<ttFont>
<head>
    <!-- Most of this table will be recalculated by the compiler -->
    <tableVersion value="1.0"/>
    <fontRevision value="1.5"/>
    <checkSumAdjustment value="0x5bf8a20a"/>
    <magicNumber value="0x5f0f3cf5"/>
    <flags value="00000000 00000101"/>
    <unitsPerEm value="2000"/>
    <created value="Fri Jun  6 07:58:38 2014"/>
    <modified value="Sat Dec 22 18:12:24 2018"/>
    <xMin value="-377"/>
    <yMin value="-584"/>
    <xMax value="2614"/>
    <yMax value="1999"/>
    <macStyle value="00000000 00000001"/>
    <lowestRecPPEM value="6"/>
    <fontDirectionHint value="2"/>
    <indexToLocFormat value="0"/>
    <glyphDataFormat value="0"/>
  </head>
    <TTGlyph name="A" xMin="17" yMin="-18" xMax="1259" yMax="1378">
      <contour>
        <pt x="483" y="286" on="1"/>
        <pt x="467" y="286" on="0"/>
        <pt x="424" y="288" on="0"/>
        <pt x="404" y="288" on="1"/>
        <pt x="319" y="-2" on="1"/>
        <pt x="289" y="-9" on="0"/>
        <pt x="220" y="-14" on="0"/>
        <pt x="183" y="-14" on="1"/>
        <pt x="147" y="-14" on="0"/>
        <pt x="56" y="-3" on="0"/>
        <pt x="29" y="8" on="1"/>
        <pt x="17" y="25" on="1"/>
        <pt x="459" y="1366" on="1"/>
        <pt x="497" y="1372" on="0"/>
        <pt x="604" y="1378" on="0"/>
        <pt x="644" y="1378" on="1"/>
        <pt x="682" y="1378" on="0"/>
        <pt x="790" y="1371" on="0"/>
        <pt x="829" y="1364" on="1"/>
        <pt x="1259" y="21" on="1"/>
        <pt x="1226" y="2" on="0"/>
        <pt x="1121" y="-18" on="0"/>
        <pt x="1076" y="-18" on="1"/>
        <pt x="1000" y="-18" on="0"/>
        <pt x="914" y="53" on="0"/>
        <pt x="885" y="156" on="1"/>
        <pt x="847" y="288" on="1"/>
        <pt x="828" y="288" on="0"/>
        <pt x="784" y="286" on="0"/>
        <pt x="768" y="286" on="1"/>
      </contour>
      <contour>
        <pt x="523" y="693" on="1"/>
        <pt x="478" y="538" on="1"/>
        <pt x="497" y="538" on="0"/>
        <pt x="541" y="539" on="0"/>
        <pt x="558" y="539" on="1"/>
        <pt x="704" y="539" on="1"/>
        <pt x="719" y="539" on="0"/>
        <pt x="758" y="538" on="0"/>
        <pt x="777" y="538" on="1"/>
        <pt x="742" y="663" on="1"/>
        <pt x="719" y="747" on="0"/>
        <pt x="657" y="975" on="0"/>
        <pt x="632" y="1074" on="1"/>
        <pt x="620" y="1074" on="1"/>
        <pt x="610" y="1018" on="0"/>
        <pt x="576" y="882" on="0"/>
        <pt x="539" y="747" on="0"/>
      </contour>
    </TTGlyph>
    <TTGlyph name="AE" xMin="9" yMin="-12" xMax="1703" yMax="1366">
      <contour>
        <pt x="533" y="286" on="1"/>
        <pt x="518" y="286" on="0"/>
        <pt x="473" y="287" on="0"/>
        <pt x="452" y="288" on="1"/>
        <pt x="332" y="0" on="1"/>
        <pt x="296" y="-9" on="0"/>
        <pt x="221" y="-12" on="0"/>
        <pt x="184" y="-12" on="1"/>
        <pt x="144" y="-12" on="0"/>
        <pt x="49" y="-2" on="0"/>
        <pt x="20" y="9" on="1"/>
        <pt x="9" y="26" on="1"/>
        <pt x="600" y="1339" on="1"/>
        <pt x="635" y="1355" on="0"/>
        <pt x="747" y="1366" on="0"/>
        <pt x="793" y="1366" on="1"/>
        <pt x="1653" y="1366" on="1"/>
        <pt x="1660" y="1330" on="0"/>
        <pt x="1664" y="1267" on="0"/>
        <pt x="1664" y="1240" on="1"/>
        <pt x="1664" y="1213" on="0"/>
        <pt x="1651" y="1134" on="0"/>
        <pt x="1638" y="1098" on="1"/>
        <pt x="1223" y="1098" on="1"/>
        <pt x="1202" y="1098" on="0"/>
        <pt x="1126" y="1099" on="0"/>
        <pt x="1086" y="1100" on="1"/>
        <pt x="1087" y="1059" on="0"/>
        <pt x="1088" y="994" on="0"/>
        <pt x="1088" y="954" on="1"/>
        <pt x="1088" y="815" on="1"/>
        <pt x="1128" y="816" on="0"/>
        <pt x="1202" y="817" on="0"/>
        <pt x="1223" y="817" on="1"/>
        <pt x="1534" y="817" on="1"/>
        <pt x="1544" y="788" on="0"/>
        <pt x="1553" y="712" on="0"/>
        <pt x="1553" y="686" on="1"/>
        <pt x="1553" y="659" on="0"/>
        <pt x="1544" y="587" on="0"/>
        <pt x="1534" y="556" on="1"/>
        <pt x="1223" y="556" on="1"/>
        <pt x="1202" y="556" on="0"/>
        <pt x="1128" y="557" on="0"/>
        <pt x="1088" y="558" on="1"/>
        <pt x="1088" y="407" on="1"/>
        <pt x="1088" y="369" on="0"/>
        <pt x="1086" y="300" on="0"/>
        <pt x="1086" y="260" on="1"/>
        <pt x="1086" y="258" on="1"/>
        <pt x="1121" y="260" on="0"/>
        <pt x="1192" y="262" on="0"/>
        <pt x="1234" y="262" on="1"/>
        <pt x="1703" y="262" on="1"/>
        <pt x="1703" y="111" on="0"/>
        <pt x="1606" y="-6" on="0"/>
        <pt x="1493" y="-6" on="1"/>
        <pt x="961" y="-6" on="1"/>
        <pt x="875" y="-6" on="0"/>
        <pt x="779" y="94" on="0"/>
        <pt x="779" y="181" on="1"/>
        <pt x="779" y="288" on="1"/>
        <pt x="761" y="287" on="0"/>
        <pt x="724" y="286" on="0"/>
        <pt x="710" y="286" on="1"/>
      </contour>
      <contour>
        <pt x="708" y="536" on="1"/>
        <pt x="723" y="536" on="0"/>
        <pt x="761" y="535" on="0"/>
        <pt x="779" y="534" on="1"/>
        <pt x="779" y="1074" on="1"/>
        <pt x="771" y="1074" on="1"/>
        <pt x="739" y="985" on="0"/>
        <pt x="658" y="779" on="0"/>
        <pt x="621" y="691" on="1"/>
        <pt x="555" y="534" on="1"/>
        <pt x="572" y="535" on="0"/>
        <pt x="608" y="536" on="0"/>
        <pt x="623" y="536" on="1"/>
      </contour>
    </TTGlyph>
    <TTGlyph name="Aacute" xMin="17" yMin="-18" xMax="1259" yMax="1878">
      <component glyphName="A" x="0" y="0" flags="0x204"/>
      <component glyphName="glyph00128" x="246" y="0" flags="0x4"/>
    </TTGlyph>
    <TTGlyph name="Abreve" xMin="17" yMin="-18" xMax="1259" yMax="1824">
      <component glyphName="A" x="0" y="0" flags="0x204"/>
      <component glyphName="glyph00136" x="246" y="0" flags="0x4"/>
    </TTGlyph>
    <TTGlyph name="Acircumflex" xMin="17" yMin="-18" xMax="1259" yMax="1832">
      <component glyphName="A" x="0" y="0" flags="0x204"/>
      <component glyphName="glyph00129" x="246" y="0" flags="0x4"/>
    </TTGlyph>
    <TTGlyph name="Adieresis" xMin="17" yMin="-18" xMax="1259" yMax="1740">
      <component glyphName="A" x="0" y="0" flags="0x204"/>
      <component glyphName="glyph00130" x="246" y="0" flags="0x4"/>
    </TTGlyph>
    <TTGlyph name="Agrave" xMin="17" yMin="-18" xMax="1259" yMax="1878">
      <component glyphName="A" x="0" y="0" flags="0x204"/>
      <component glyphName="glyph00127" x="246" y="0" flags="0x4"/>
    </TTGlyph>
    <TTGlyph name="Amacron" xMin="17" yMin="-18" xMax="1259" yMax="1736">
      <component glyphName="A" x="0" y="0" flags="0x204"/>
      <component glyphName="glyph00135" x="246" y="0" flags="0x4"/>
    </TTGlyph>
    <TTGlyph name="Aogonek" xMin="17" yMin="-436" xMax="1336" yMax="1378">
      <contour>
        <pt x="483" y="286" on="1"/>
        <pt x="467" y="286" on="0"/>
        <pt x="424" y="288" on="0"/>
        <pt x="404" y="288" on="1"/>
        <pt x="319" y="-2" on="1"/>
        <pt x="289" y="-9" on="0"/>
        <pt x="220" y="-14" on="0"/>
        <pt x="183" y="-14" on="1"/>
        <pt x="147" y="-14" on="0"/>
        <pt x="56" y="-3" on="0"/>
        <pt x="29" y="8" on="1"/>
        <pt x="17" y="25" on="1"/>
        <pt x="459" y="1366" on="1"/>
        <pt x="497" y="1372" on="0"/>
        <pt x="604" y="1378" on="0"/>
        <pt x="644" y="1378" on="1"/>
        <pt x="682" y="1378" on="0"/>
        <pt x="790" y="1371" on="0"/>
        <pt x="829" y="1364" on="1"/>
        <pt x="1259" y="21" on="1"/>
        <pt x="1255" y="19" on="0"/>
        <pt x="1252" y="17" on="1"/>
        <pt x="1173" y="-25" on="0"/>
        <pt x="1088" y="-120" on="0"/>
        <pt x="1088" y="-171" on="1"/>
        <pt x="1088" y="-208" on="0"/>
        <pt x="1136" y="-244" on="0"/>
        <pt x="1170" y="-244" on="1"/>
        <pt x="1198" y="-244" on="0"/>
        <pt x="1251" y="-226" on="0"/>
        <pt x="1271" y="-215" on="1"/>
        <pt x="1295" y="-237" on="0"/>
        <pt x="1333" y="-312" on="0"/>
        <pt x="1336" y="-355" on="1"/>
        <pt x="1298" y="-388" on="0"/>
        <pt x="1172" y="-436" on="0"/>
        <pt x="1100" y="-436" on="1"/>
        <pt x="995" y="-436" on="0"/>
        <pt x="861" y="-329" on="0"/>
        <pt x="861" y="-237" on="1"/>
        <pt x="861" y="-165" on="0"/>
        <pt x="941" y="-45" on="0"/>
        <pt x="988" y="-2" on="1"/>
        <pt x="953" y="14" on="0"/>
        <pt x="904" y="88" on="0"/>
        <pt x="885" y="156" on="1"/>
        <pt x="847" y="288" on="1"/>
        <pt x="828" y="288" on="0"/>
        <pt x="784" y="286" on="0"/>
        <pt x="768" y="286" on="1"/>
      </contour>
      <contour>
        <pt x="523" y="693" on="1"/>
        <pt x="478" y="538" on="1"/>
        <pt x="497" y="538" on="0"/>
        <pt x="541" y="539" on="0"/>
        <pt x="558" y="539" on="1"/>
        <pt x="704" y="539" on="1"/>
        <pt x="719" y="539" on="0"/>
        <pt x="758" y="538" on="0"/>
        <pt x="777" y="538" on="1"/>
        <pt x="742" y="663" on="1"/>
        <pt x="719" y="747" on="0"/>
        <pt x="657" y="975" on="0"/>
        <pt x="632" y="1074" on="1"/>
        <pt x="620" y="1074" on="1"/>
        <pt x="610" y="1018" on="0"/>
        <pt x="576" y="882" on="0"/>
        <pt x="539" y="747" on="0"/>
      </contour>
    </TTGlyph>
    <TTGlyph name="Aring" xMin="17" yMin="-18" xMax="1259" yMax="1832">
      <component glyphName="A" x="0" y="0" flags="0x204"/>
      <component glyphName="glyph00132" x="246" y="0" flags="0x4"/>
    </TTGlyph>
    <TTGlyph name="Atilde" xMin="17" yMin="-18" xMax="1259" yMax="1815">
      <component glyphName="A" x="0" y="0" flags="0x204"/>
      <component glyphName="glyph00133" x="246" y="0" flags="0x4"/>
    </TTGlyph>
    <TTGlyph name="B" xMin="152" yMin="-12" xMax="1159" yMax="1378">
      <contour>
        <pt x="166" y="1370" on="1"/>
        <pt x="286" y="1373" on="0"/>
        <pt x="521" y="1378" on="0"/>
        <pt x="627" y="1378" on="1"/>
        <pt x="836" y="1378" on="0"/>
        <pt x="1095" y="1203" on="0"/>
        <pt x="1095" y="1014" on="1"/>
        <pt x="1095" y="923" on="0"/>
        <pt x="994" y="773" on="0"/>
        <pt x="919" y="740" on="1"/>
        <pt x="985" y="718" on="0"/>
        <pt x="1094" y="615" on="0"/>
        <pt x="1159" y="472" on="0"/>
        <pt x="1159" y="393" on="1"/>
        <pt x="1159" y="183" on="0"/>
        <pt x="888" y="-12" on="0"/>
        <pt x="659" y="-12" on="1"/>
        <pt x="542" y="-12" on="0"/>
        <pt x="294" y="-7" on="0"/>
        <pt x="166" y="-4" on="1"/>
        <pt x="152" y="10" on="1"/>
        <pt x="152" y="1356" on="1"/>
      </contour>
      <contour>
        <pt x="611" y="1151" on="1"/>
        <pt x="585" y="1151" on="0"/>
        <pt x="505" y="1151" on="0"/>
        <pt x="467" y="1153" on="1"/>
        <pt x="467" y="830" on="1"/>
        <pt x="611" y="830" on="1"/>
        <pt x="678" y="830" on="0"/>
        <pt x="753" y="878" on="0"/>
        <pt x="783" y="953" on="0"/>
        <pt x="783" y="992" on="1"/>
        <pt x="783" y="1051" on="0"/>
        <pt x="712" y="1151" on="0"/>
      </contour>
      <contour>
        <pt x="467" y="212" on="1"/>
        <pt x="516" y="213" on="0"/>
        <pt x="604" y="214" on="0"/>
        <pt x="636" y="214" on="1"/>
        <pt x="718" y="214" on="0"/>
        <pt x="805" y="275" on="0"/>
        <pt x="838" y="364" on="0"/>
        <pt x="838" y="406" on="1"/>
        <pt x="838" y="450" on="0"/>
        <pt x="803" y="541" on="0"/>
        <pt x="714" y="603" on="0"/>
        <pt x="634" y="603" on="1"/>
        <pt x="467" y="603" on="1"/>
      </contour>
    </TTGlyph>
    <TTGlyph name="C" xMin="72" yMin="-30" xMax="1170" yMax="1397">
      <contour>
        <pt x="866" y="822" on="1"/>
        <pt x="868" y="905" on="0"/>
        <pt x="831" y="1052" on="0"/>
        <pt x="734" y="1143" on="0"/>
        <pt x="646" y="1143" on="1"/>
        <pt x="517" y="1143" on="0"/>
        <pt x="408" y="904" on="0"/>
        <pt x="408" y="676" on="1"/>
        <pt x="408" y="463" on="0"/>
        <pt x="551" y="249" on="0"/>
        <pt x="682" y="249" on="1"/>
        <pt x="786" y="249" on="0"/>
        <pt x="953" y="337" on="0"/>
        <pt x="1022" y="389" on="1"/>
        <pt x="1069" y="357" on="0"/>
        <pt x="1158" y="239" on="0"/>
        <pt x="1169" y="183" on="1"/>
        <pt x="1111" y="126" on="0"/>
        <pt x="940" y="29" on="0"/>
        <pt x="734" y="-30" on="0"/>
        <pt x="623" y="-30" on="1"/>
        <pt x="466" y="-30" on="0"/>
        <pt x="253" y="93" on="0"/>
        <pt x="127" y="298" on="0"/>
        <pt x="72" y="549" on="0"/>
        <pt x="72" y="678" on="1"/>
        <pt x="72" y="929" on="0"/>
        <pt x="231" y="1247" on="0"/>
        <pt x="497" y="1397" on="0"/>
        <pt x="657" y="1397" on="1"/>
        <pt x="812" y="1397" on="0"/>
        <pt x="1043" y="1287" on="0"/>
        <pt x="1170" y="1099" on="0"/>
        <pt x="1170" y="981" on="1"/>
        <pt x="1170" y="888" on="0"/>
        <pt x="1073" y="805" on="0"/>
        <pt x="987" y="805" on="1"/>
        <pt x="952" y="805" on="0"/>
        <pt x="895" y="815" on="0"/>
      </contour>
    </TTGlyph>
    <TTGlyph name="Cacute" xMin="72" yMin="-30" xMax="1170" yMax="1880">
      <component glyphName="C" x="0" y="0" flags="0x204"/>
      <component glyphName="glyph00128" x="255" y="2" flags="0x4"/>
    </TTGlyph>
    <TTGlyph name="Ccaron" xMin="72" yMin="-30" xMax="1170" yMax="1840">
      <component glyphName="C" x="0" y="0" flags="0x204"/>
      <component glyphName="glyph00131" x="255" y="2" flags="0x4"/>
    </TTGlyph>
    <TTGlyph name="Ccedilla" xMin="72" yMin="-464" xMax="1170" yMax="1397">
      <component glyphName="C" x="0" y="0" flags="0x204"/>
      <component glyphName="cedilla" x="239" y="0" flags="0x4"/>
    </TTGlyph>
    <TTGlyph name="Ccircumflex" xMin="72" yMin="-30" xMax="1170" yMax="1834">
      <component glyphName="C" x="0" y="0" flags="0x204"/>
      <component glyphName="glyph00129" x="255" y="2" flags="0x4"/>
    </TTGlyph>
    <TTGlyph name="Cdotaccent" xMin="72" yMin="-30" xMax="1170" yMax="1781">
      <component glyphName="C" x="0" y="0" flags="0x204"/>
      <component glyphName="glyph00134" x="255" y="2" flags="0x4"/>
    </TTGlyph>
    <TTGlyph name="D" xMin="152" yMin="-12" xMax="1261" yMax="1378">
      <contour>
        <pt x="1261" y="684" on="1"/>
        <pt x="1261" y="567" on="0"/>
        <pt x="1228" y="350" on="0"/>
        <pt x="1132" y="162" on="0"/>
        <pt x="1036" y="88" on="1"/>
        <pt x="990" y="52" on="0"/>
        <pt x="861" y="8" on="0"/>
        <pt x="725" y="-12" on="0"/>
        <pt x="669" y="-12" on="1"/>
        <pt x="540" y="-12" on="0"/>
        <pt x="297" y="-7" on="0"/>
        <pt x="166" y="-4" on="1"/>
        <pt x="152" y="10" on="1"/>
        <pt x="152" y="1356" on="1"/>
        <pt x="166" y="1370" on="1"/>
        <pt x="295" y="1374" on="0"/>
        <pt x="540" y="1378" on="0"/>
        <pt x="669" y="1378" on="1"/>
        <pt x="725" y="1378" on="0"/>
        <pt x="861" y="1357" on="0"/>
        <pt x="991" y="1313" on="0"/>
        <pt x="1036" y="1277" on="1"/>
        <pt x="1131" y="1203" on="0"/>
        <pt x="1227" y="1016" on="0"/>
        <pt x="1261" y="800" on="0"/>
      </contour>
      <contour>
        <pt x="932" y="684" on="1"/>
        <pt x="932" y="760" on="0"/>
        <pt x="913" y="917" on="0"/>
        <pt x="860" y="1048" on="0"/>
        <pt x="755" y="1129" on="0"/>
        <pt x="669" y="1129" on="1"/>
        <pt x="618" y="1129" on="0"/>
        <pt x="524" y="1129" on="0"/>
        <pt x="471" y="1131" on="1"/>
        <pt x="471" y="236" on="1"/>
        <pt x="524" y="237" on="0"/>
        <pt x="618" y="237" on="0"/>
        <pt x="669" y="237" on="1"/>
        <pt x="755" y="237" on="0"/>
        <pt x="860" y="318" on="0"/>
        <pt x="913" y="451" on="0"/>
        <pt x="932" y="608" on="0"/>
      </contour>
    </TTGlyph>
    <TTGlyph name="Dcaron" xMin="152" yMin="-12" xMax="1261" yMax="1838">
      <component glyphName="D" x="0" y="0" flags="0x204"/>
      <component glyphName="glyph00131" x="243" y="0" flags="0x4"/>
    </TTGlyph>
    <TTGlyph name="Dcroat" xMin="34" yMin="-12" xMax="1291" yMax="1378">
      <component glyphName="Eth" x="0" y="0" flags="0x204"/>
    </TTGlyph>
    <TTGlyph name="Delta" xMin="41" yMin="0" xMax="1235" yMax="1378">
      <contour>
        <pt x="76" y="0" on="1"/>
        <pt x="60" y="69" on="0"/>
        <pt x="45" y="142" on="0"/>
        <pt x="41" y="178" on="0"/>
        <pt x="41" y="192" on="1"/>
        <pt x="41" y="223" on="0"/>
        <pt x="51" y="253" on="1"/>
        <pt x="459" y="1366" on="1"/>
        <pt x="497" y="1372" on="0"/>
        <pt x="604" y="1378" on="0"/>
        <pt x="644" y="1378" on="1"/>
        <pt x="682" y="1378" on="0"/>
        <pt x="790" y="1371" on="0"/>
        <pt x="829" y="1364" on="1"/>
        <pt x="1226" y="253" on="1"/>
        <pt x="1230" y="238" on="0"/>
        <pt x="1235" y="209" on="0"/>
        <pt x="1235" y="192" on="1"/>
        <pt x="1235" y="178" on="0"/>
        <pt x="1231" y="142" on="0"/>
        <pt x="1216" y="69" on="0"/>
        <pt x="1200" y="0" on="1"/>
      </contour>
      <contour>
        <pt x="889" y="280" on="1"/>
        <pt x="763" y="654" on="1"/>
        <pt x="727" y="758" on="0"/>
        <pt x="657" y="993" on="0"/>
        <pt x="632" y="1092" on="1"/>
        <pt x="620" y="1092" on="1"/>
        <pt x="602" y="1026" on="0"/>
        <pt x="557" y="882" on="0"/>
        <pt x="513" y="748" on="0"/>
        <pt x="497" y="700" on="1"/>
        <pt x="351" y="280" on="1"/>
        <pt x="357" y="274" on="1"/>
        <pt x="382" y="275" on="0"/>
        <pt x="455" y="278" on="0"/>
        <pt x="484" y="278" on="1"/>
        <pt x="759" y="278" on="1"/>
        <pt x="787" y="278" on="0"/>
        <pt x="859" y="275" on="0"/>
        <pt x="883" y="274" on="1"/>
      </contour>
    </TTGlyph>
    <TTGlyph name="E" xMin="150" yMin="-6" xMax="1076" yMax="1366">
      <contour>
        <pt x="1076" y="262" on="1"/>
        <pt x="1076" y="130" on="0"/>
        <pt x="993" y="-6" on="0"/>
        <pt x="866" y="-6" on="1"/>
        <pt x="334" y="-6" on="1"/>
        <pt x="248" y="-6" on="0"/>
        <pt x="150" y="94" on="0"/>
        <pt x="150" y="181" on="1"/>
        <pt x="150" y="1352" on="1"/>
        <pt x="164" y="1366" on="1"/>
        <pt x="1026" y="1366" on="1"/>
        <pt x="1033" y="1330" on="0"/>
        <pt x="1037" y="1267" on="0"/>
        <pt x="1037" y="1240" on="1"/>
        <pt x="1037" y="1213" on="0"/>
        <pt x="1024" y="1134" on="0"/>
        <pt x="1011" y="1098" on="1"/>
        <pt x="602" y="1098" on="1"/>
        <pt x="580" y="1098" on="0"/>
        <pt x="505" y="1099" on="0"/>
        <pt x="465" y="1100" on="1"/>
        <pt x="465" y="1059" on="0"/>
        <pt x="467" y="994" on="0"/>
        <pt x="467" y="954" on="1"/>
        <pt x="467" y="815" on="1"/>
        <pt x="507" y="816" on="0"/>
        <pt x="581" y="817" on="0"/>
        <pt x="602" y="817" on="1"/>
        <pt x="907" y="817" on="1"/>
        <pt x="917" y="788" on="0"/>
        <pt x="926" y="712" on="0"/>
        <pt x="926" y="686" on="1"/>
        <pt x="926" y="659" on="0"/>
        <pt x="917" y="587" on="0"/>
        <pt x="907" y="556" on="1"/>
        <pt x="602" y="556" on="1"/>
        <pt x="581" y="556" on="0"/>
        <pt x="507" y="557" on="0"/>
        <pt x="467" y="558" on="1"/>
        <pt x="467" y="404" on="1"/>
        <pt x="467" y="365" on="0"/>
        <pt x="465" y="300" on="0"/>
        <pt x="465" y="260" on="1"/>
        <pt x="465" y="258" on="1"/>
        <pt x="499" y="260" on="0"/>
        <pt x="571" y="262" on="0"/>
        <pt x="613" y="262" on="1"/>
      </contour>
    </TTGlyph>
    <TTGlyph name="Eacute" xMin="150" yMin="-6" xMax="1076" yMax="1878">
      <component glyphName="E" x="0" y="0" flags="0x204"/>
      <component glyphName="glyph00128" x="200" y="0" flags="0x4"/>
    </TTGlyph>
    <TTGlyph name="Ebreve" xMin="150" yMin="-6" xMax="1076" yMax="1824">
      <component glyphName="E" x="0" y="0" flags="0x204"/>
      <component glyphName="glyph00136" x="200" y="0" flags="0x4"/>
    </TTGlyph>
    <TTGlyph name="Ecaron" xMin="150" yMin="-6" xMax="1076" yMax="1838">
      <component glyphName="E" x="0" y="0" flags="0x204"/>
      <component glyphName="glyph00131" x="200" y="0" flags="0x4"/>
    </TTGlyph>
    <TTGlyph name="Ecircumflex" xMin="150" yMin="-6" xMax="1076" yMax="1832">
      <component glyphName="E" x="0" y="0" flags="0x204"/>
      <component glyphName="glyph00129" x="200" y="0" flags="0x4"/>
    </TTGlyph>
    <TTGlyph name="Edieresis" xMin="150" yMin="-6" xMax="1076" yMax="1740">
      <component glyphName="E" x="0" y="0" flags="0x204"/>
      <component glyphName="glyph00130" x="200" y="0" flags="0x4"/>
    </TTGlyph>
    <TTGlyph name="Edotaccent" xMin="150" yMin="-6" xMax="1076" yMax="1779">
      <component glyphName="E" x="0" y="0" flags="0x204"/>
      <component glyphName="glyph00134" x="200" y="0" flags="0x4"/>
    </TTGlyph>
    <TTGlyph name="Egrave" xMin="150" yMin="-6" xMax="1076" yMax="1878">
      <component glyphName="E" x="0" y="0" flags="0x204"/>
      <component glyphName="glyph00127" x="200" y="0" flags="0x4"/>
    </TTGlyph>
    <TTGlyph name="Emacron" xMin="150" yMin="-6" xMax="1076" yMax="1736">
      <component glyphName="E" x="0" y="0" flags="0x204"/>
      <component glyphName="glyph00135" x="200" y="0" flags="0x4"/>
    </TTGlyph>
    <TTGlyph name="Eng" xMin="152" yMin="-448" xMax="1239" yMax="1379">
      <contour>
        <pt x="680" y="-173" on="1"/>
        <pt x="745" y="-203" on="0"/>
        <pt x="808" y="-203" on="1"/>
        <pt x="884" y="-203" on="0"/>
        <pt x="960" y="-102" on="0"/>
        <pt x="960" y="-13" on="1"/>
        <pt x="960" y="-9" on="1"/>
        <pt x="937" y="-8" on="0"/>
        <pt x="886" y="-3" on="0"/>
        <pt x="861" y="0" on="1"/>
        <pt x="545" y="716" on="1"/>
        <pt x="512" y="793" on="0"/>
        <pt x="454" y="941" on="0"/>
        <pt x="433" y="998" on="1"/>
        <pt x="425" y="995" on="1"/>
        <pt x="433" y="910" on="0"/>
        <pt x="444" y="695" on="0"/>
        <pt x="450" y="481" on="0"/>
        <pt x="450" y="398" on="1"/>
        <pt x="450" y="0" on="1"/>
        <pt x="411" y="-7" on="0"/>
        <pt x="335" y="-12" on="0"/>
        <pt x="305" y="-12" on="1"/>
        <pt x="276" y="-12" on="0"/>
        <pt x="189" y="-7" on="0"/>
        <pt x="152" y="0" on="1"/>
        <pt x="152" y="1360" on="1"/>
        <pt x="177" y="1366" on="0"/>
        <pt x="251" y="1374" on="0"/>
        <pt x="321" y="1378" on="0"/>
        <pt x="341" y="1378" on="1"/>
        <pt x="371" y="1378" on="0"/>
        <pt x="474" y="1373" on="0"/>
        <pt x="527" y="1366" on="1"/>
        <pt x="835" y="652" on="1"/>
        <pt x="873" y="564" on="0"/>
        <pt x="938" y="404" on="0"/>
        <pt x="960" y="349" on="1"/>
        <pt x="968" y="352" on="1"/>
        <pt x="960" y="445" on="0"/>
        <pt x="949" y="667" on="0"/>
        <pt x="943" y="873" on="0"/>
        <pt x="943" y="942" on="1"/>
        <pt x="943" y="1186" on="1"/>
        <pt x="943" y="1293" on="0"/>
        <pt x="1030" y="1379" on="0"/>
        <pt x="1122" y="1379" on="1"/>
        <pt x="1226" y="1379" on="1"/>
        <pt x="1239" y="1366" on="1"/>
        <pt x="1239" y="6" on="1"/>
        <pt x="1239" y="-125" on="0"/>
        <pt x="1155" y="-330" on="0"/>
        <pt x="970" y="-448" on="0"/>
        <pt x="821" y="-448" on="1"/>
        <pt x="775" y="-448" on="0"/>
        <pt x="640" y="-421" on="0"/>
        <pt x="592" y="-395" on="1"/>
        <pt x="604" y="-276" on="0"/>
      </contour>
    </TTGlyph>
    <TTGlyph name="Eogonek" xMin="150" yMin="-436" xMax="1076" yMax="1366">
      <contour>
        <pt x="986" y="-215" on="1"/>
        <pt x="1011" y="-237" on="0"/>
        <pt x="1049" y="-312" on="0"/>
        <pt x="1052" y="-355" on="1"/>
        <pt x="1013" y="-388" on="0"/>
        <pt x="887" y="-436" on="0"/>
        <pt x="815" y="-436" on="1"/>
        <pt x="710" y="-436" on="0"/>
        <pt x="576" y="-328" on="0"/>
        <pt x="576" y="-234" on="1"/>
        <pt x="576" y="-163" on="0"/>
        <pt x="646" y="-48" on="0"/>
        <pt x="698" y="-6" on="1"/>
        <pt x="334" y="-6" on="1"/>
        <pt x="248" y="-6" on="0"/>
        <pt x="150" y="94" on="0"/>
        <pt x="150" y="181" on="1"/>
        <pt x="150" y="1352" on="1"/>
        <pt x="164" y="1366" on="1"/>
        <pt x="1026" y="1366" on="1"/>
        <pt x="1033" y="1330" on="0"/>
        <pt x="1037" y="1267" on="0"/>
        <pt x="1037" y="1240" on="1"/>
        <pt x="1037" y="1213" on="0"/>
        <pt x="1024" y="1134" on="0"/>
        <pt x="1011" y="1098" on="1"/>
        <pt x="602" y="1098" on="1"/>
        <pt x="580" y="1098" on="0"/>
        <pt x="505" y="1099" on="0"/>
        <pt x="465" y="1100" on="1"/>
        <pt x="465" y="1059" on="0"/>
        <pt x="467" y="994" on="0"/>
        <pt x="467" y="954" on="1"/>
        <pt x="467" y="815" on="1"/>
        <pt x="507" y="816" on="0"/>
        <pt x="581" y="817" on="0"/>
        <pt x="602" y="817" on="1"/>
        <pt x="907" y="817" on="1"/>
        <pt x="917" y="788" on="0"/>
        <pt x="926" y="712" on="0"/>
        <pt x="926" y="686" on="1"/>
        <pt x="926" y="659" on="0"/>
        <pt x="917" y="587" on="0"/>
        <pt x="907" y="556" on="1"/>
        <pt x="602" y="556" on="1"/>
        <pt x="581" y="556" on="0"/>
        <pt x="507" y="557" on="0"/>
        <pt x="467" y="558" on="1"/>
        <pt x="467" y="404" on="1"/>
        <pt x="467" y="365" on="0"/>
        <pt x="465" y="300" on="0"/>
        <pt x="465" y="260" on="1"/>
        <pt x="465" y="258" on="1"/>
        <pt x="499" y="260" on="0"/>
        <pt x="571" y="262" on="0"/>
        <pt x="613" y="262" on="1"/>
        <pt x="1076" y="262" on="1"/>
        <pt x="1076" y="139" on="0"/>
        <pt x="1024" y="35" on="0"/>
        <pt x="966" y="12" on="1"/>
        <pt x="880" y="-22" on="0"/>
        <pt x="804" y="-125" on="0"/>
        <pt x="804" y="-171" on="1"/>
        <pt x="804" y="-208" on="0"/>
        <pt x="852" y="-244" on="0"/>
        <pt x="886" y="-244" on="1"/>
        <pt x="913" y="-244" on="0"/>
        <pt x="966" y="-226" on="0"/>
      </contour>
    </TTGlyph>
    <TTGlyph name="Eth" xMin="34" yMin="-12" xMax="1291" yMax="1378">
      <contour>
        <pt x="48" y="564" on="1"/>
        <pt x="39" y="594" on="0"/>
        <pt x="34" y="658" on="0"/>
        <pt x="34" y="690" on="1"/>
        <pt x="34" y="719" on="0"/>
        <pt x="39" y="791" on="0"/>
        <pt x="48" y="822" on="1"/>
        <pt x="182" y="822" on="1"/>
        <pt x="182" y="1356" on="1"/>
        <pt x="196" y="1370" on="1"/>
        <pt x="327" y="1374" on="0"/>
        <pt x="572" y="1378" on="0"/>
        <pt x="701" y="1378" on="1"/>
        <pt x="756" y="1378" on="0"/>
        <pt x="891" y="1357" on="0"/>
        <pt x="1021" y="1313" on="0"/>
        <pt x="1066" y="1277" on="1"/>
        <pt x="1161" y="1203" on="0"/>
        <pt x="1257" y="1016" on="0"/>
        <pt x="1291" y="800" on="0"/>
        <pt x="1291" y="684" on="1"/>
        <pt x="1291" y="567" on="0"/>
        <pt x="1258" y="350" on="0"/>
        <pt x="1162" y="162" on="0"/>
        <pt x="1066" y="88" on="1"/>
        <pt x="1021" y="52" on="0"/>
        <pt x="891" y="8" on="0"/>
        <pt x="756" y="-12" on="0"/>
        <pt x="701" y="-12" on="1"/>
        <pt x="572" y="-12" on="0"/>
        <pt x="327" y="-7" on="0"/>
        <pt x="196" y="-4" on="1"/>
        <pt x="182" y="10" on="1"/>
        <pt x="182" y="564" on="1"/>
      </contour>
      <contour>
        <pt x="962" y="684" on="1"/>
        <pt x="962" y="760" on="0"/>
        <pt x="944" y="917" on="0"/>
        <pt x="890" y="1048" on="0"/>
        <pt x="786" y="1129" on="0"/>
        <pt x="701" y="1129" on="1"/>
        <pt x="648" y="1129" on="0"/>
        <pt x="547" y="1129" on="0"/>
        <pt x="494" y="1131" on="1"/>
        <pt x="494" y="822" on="1"/>
        <pt x="748" y="822" on="1"/>
        <pt x="761" y="763" on="0"/>
        <pt x="761" y="694" on="1"/>
        <pt x="761" y="660" on="0"/>
        <pt x="755" y="594" on="0"/>
        <pt x="748" y="564" on="1"/>
        <pt x="494" y="564" on="1"/>
        <pt x="494" y="236" on="1"/>
        <pt x="547" y="237" on="0"/>
        <pt x="648" y="237" on="0"/>
        <pt x="701" y="237" on="1"/>
        <pt x="786" y="237" on="0"/>
        <pt x="890" y="318" on="0"/>
        <pt x="944" y="451" on="0"/>
        <pt x="962" y="608" on="0"/>
      </contour>
    </TTGlyph>
    <TTGlyph name="Euro" xMin="12" yMin="-30" xMax="1109" yMax="1326">
      <contour>
        <pt x="24" y="389" on="1"/>
        <pt x="15" y="418" on="0"/>
        <pt x="12" y="467" on="0"/>
        <pt x="12" y="485" on="1"/>
        <pt x="12" y="501" on="0"/>
        <pt x="15" y="552" on="0"/>
        <pt x="24" y="582" on="1"/>
        <pt x="167" y="582" on="1"/>
        <pt x="166" y="613" on="0"/>
        <pt x="166" y="646" on="1"/>
        <pt x="166" y="680" on="0"/>
        <pt x="167" y="712" on="1"/>
        <pt x="24" y="712" on="1"/>
        <pt x="15" y="740" on="0"/>
        <pt x="12" y="790" on="0"/>
        <pt x="12" y="808" on="1"/>
        <pt x="12" y="823" on="0"/>
        <pt x="15" y="874" on="0"/>
        <pt x="24" y="904" on="1"/>
        <pt x="189" y="904" on="1"/>
        <pt x="213" y="1021" on="0"/>
        <pt x="321" y="1212" on="0"/>
        <pt x="509" y="1326" on="0"/>
        <pt x="652" y="1326" on="1"/>
        <pt x="782" y="1326" on="0"/>
        <pt x="1017" y="1227" on="0"/>
        <pt x="1109" y="1150" on="1"/>
        <pt x="1101" y="1098" on="0"/>
        <pt x="1029" y="991" on="0"/>
        <pt x="981" y="965" on="1"/>
        <pt x="920" y="1013" on="0"/>
        <pt x="768" y="1076" on="0"/>
        <pt x="695" y="1076" on="1"/>
        <pt x="548" y="1076" on="0"/>
        <pt x="501" y="904" on="1"/>
        <pt x="825" y="904" on="1"/>
        <pt x="832" y="874" on="0"/>
        <pt x="836" y="828" on="0"/>
        <pt x="836" y="808" on="1"/>
        <pt x="836" y="788" on="0"/>
        <pt x="832" y="740" on="0"/>
        <pt x="825" y="712" on="1"/>
        <pt x="477" y="712" on="1"/>
        <pt x="476" y="680" on="0"/>
        <pt x="476" y="644" on="1"/>
        <pt x="476" y="611" on="0"/>
        <pt x="477" y="582" on="1"/>
        <pt x="825" y="582" on="1"/>
        <pt x="832" y="552" on="0"/>
        <pt x="836" y="505" on="0"/>
        <pt x="836" y="485" on="1"/>
        <pt x="836" y="466" on="0"/>
        <pt x="832" y="418" on="0"/>
        <pt x="825" y="389" on="1"/>
        <pt x="502" y="389" on="1"/>
        <pt x="549" y="220" on="0"/>
        <pt x="695" y="220" on="1"/>
        <pt x="768" y="220" on="0"/>
        <pt x="920" y="283" on="0"/>
        <pt x="981" y="329" on="1"/>
        <pt x="1033" y="300" on="0"/>
        <pt x="1101" y="198" on="0"/>
        <pt x="1109" y="146" on="1"/>
        <pt x="1017" y="68" on="0"/>
        <pt x="781" y="-30" on="0"/>
        <pt x="652" y="-30" on="1"/>
        <pt x="508" y="-30" on="0"/>
        <pt x="321" y="84" on="0"/>
        <pt x="213" y="274" on="0"/>
        <pt x="189" y="389" on="1"/>
      </contour>
    </TTGlyph>
    <TTGlyph name="F" xMin="152" yMin="-12" xMax="1035" yMax="1366">
      <contour>
        <pt x="473" y="0" on="1"/>
        <pt x="432" y="-7" on="0"/>
        <pt x="349" y="-12" on="0"/>
        <pt x="316" y="-12" on="1"/>
        <pt x="283" y="-12" on="0"/>
        <pt x="193" y="-7" on="0"/>
        <pt x="152" y="0" on="1"/>
        <pt x="152" y="1354" on="1"/>
        <pt x="166" y="1366" on="1"/>
        <pt x="1021" y="1366" on="1"/>
        <pt x="1028" y="1340" on="0"/>
        <pt x="1035" y="1271" on="0"/>
        <pt x="1035" y="1243" on="1"/>
        <pt x="1035" y="1165" on="0"/>
        <pt x="950" y="1095" on="0"/>
        <pt x="864" y="1095" on="1"/>
        <pt x="614" y="1095" on="1"/>
        <pt x="576" y="1095" on="0"/>
        <pt x="506" y="1095" on="0"/>
        <pt x="472" y="1096" on="1"/>
        <pt x="472" y="1055" on="0"/>
        <pt x="473" y="976" on="0"/>
        <pt x="473" y="938" on="1"/>
        <pt x="473" y="811" on="1"/>
        <pt x="493" y="811" on="0"/>
        <pt x="511" y="811" on="1"/>
        <pt x="899" y="811" on="1"/>
        <pt x="908" y="784" on="0"/>
        <pt x="916" y="707" on="0"/>
        <pt x="916" y="681" on="1"/>
        <pt x="916" y="654" on="0"/>
        <pt x="908" y="578" on="0"/>
        <pt x="899" y="549" on="1"/>
        <pt x="511" y="549" on="1"/>
        <pt x="493" y="549" on="0"/>
        <pt x="473" y="549" on="1"/>
      </contour>
    </TTGlyph>
    <TTGlyph name="G" xMin="72" yMin="-30" xMax="1205" yMax="1396">
      <contour>
        <pt x="905" y="371" on="1"/>
        <pt x="905" y="404" on="0"/>
        <pt x="907" y="474" on="0"/>
        <pt x="909" y="510" on="1"/>
        <pt x="846" y="510" on="0"/>
        <pt x="810" y="510" on="1"/>
        <pt x="732" y="510" on="0"/>
        <pt x="658" y="569" on="0"/>
        <pt x="658" y="644" on="1"/>
        <pt x="658" y="675" on="0"/>
        <pt x="671" y="747" on="0"/>
        <pt x="681" y="776" on="1"/>
        <pt x="994" y="778" on="1"/>
        <pt x="1113" y="779" on="0"/>
        <pt x="1205" y="665" on="0"/>
        <pt x="1205" y="578" on="1"/>
        <pt x="1205" y="53" on="1"/>
        <pt x="1118" y="24" on="0"/>
        <pt x="843" y="-30" on="0"/>
        <pt x="676" y="-30" on="1"/>
        <pt x="472" y="-30" on="0"/>
        <pt x="204" y="142" on="0"/>
        <pt x="72" y="458" on="0"/>
        <pt x="72" y="674" on="1"/>
        <pt x="72" y="856" on="0"/>
        <pt x="178" y="1127" on="0"/>
        <pt x="358" y="1306" on="0"/>
        <pt x="582" y="1396" on="0"/>
        <pt x="700" y="1396" on="1"/>
        <pt x="845" y="1396" on="0"/>
        <pt x="1100" y="1316" on="0"/>
        <pt x="1202" y="1253" on="1"/>
        <pt x="1197" y="1185" on="0"/>
        <pt x="1108" y="1055" on="0"/>
        <pt x="1059" y="1023" on="1"/>
        <pt x="986" y="1072" on="0"/>
        <pt x="808" y="1131" on="0"/>
        <pt x="723" y="1131" on="1"/>
        <pt x="573" y="1131" on="0"/>
        <pt x="399" y="912" on="0"/>
        <pt x="399" y="672" on="1"/>
        <pt x="399" y="438" on="0"/>
        <pt x="572" y="222" on="0"/>
        <pt x="732" y="222" on="1"/>
        <pt x="780" y="222" on="0"/>
        <pt x="867" y="232" on="0"/>
        <pt x="905" y="239" on="1"/>
      </contour>
    </TTGlyph>
    <TTGlyph name="Gbreve" xMin="72" yMin="-30" xMax="1205" yMax="1824">
      <component glyphName="G" x="0" y="0" flags="0x204"/>
      <component glyphName="glyph00136" x="302" y="0" flags="0x4"/>
    </TTGlyph>
    <TTGlyph name="Gcircumflex" xMin="72" yMin="-30" xMax="1205" yMax="1832">
      <component glyphName="G" x="0" y="0" flags="0x204"/>
      <component glyphName="glyph00129" x="302" y="0" flags="0x4"/>
    </TTGlyph>
    <TTGlyph name="Gdotaccent" xMin="72" yMin="-30" xMax="1205" yMax="1779">
      <component glyphName="G" x="0" y="0" flags="0x204"/>
      <component glyphName="glyph00134" x="302" y="0" flags="0x4"/>
    </TTGlyph>
    <TTGlyph name="H" xMin="152" yMin="-12" xMax="1220" yMax="1378">
      <contour>
        <pt x="473" y="0" on="1"/>
        <pt x="433" y="-7" on="0"/>
        <pt x="344" y="-12" on="0"/>
        <pt x="312" y="-12" on="1"/>
        <pt x="283" y="-12" on="0"/>
        <pt x="191" y="-7" on="0"/>
        <pt x="152" y="0" on="1"/>
        <pt x="152" y="1366" on="1"/>
        <pt x="191" y="1373" on="0"/>
        <pt x="283" y="1378" on="0"/>
        <pt x="312" y="1378" on="1"/>
        <pt x="344" y="1378" on="0"/>
        <pt x="433" y="1373" on="0"/>
        <pt x="473" y="1366" on="1"/>
        <pt x="473" y="984" on="1"/>
        <pt x="473" y="942" on="0"/>
        <pt x="471" y="877" on="0"/>
        <pt x="471" y="836" on="1"/>
        <pt x="492" y="836" on="0"/>
        <pt x="549" y="838" on="0"/>
        <pt x="571" y="838" on="1"/>
        <pt x="802" y="838" on="1"/>
        <pt x="823" y="838" on="0"/>
        <pt x="880" y="836" on="0"/>
        <pt x="902" y="836" on="1"/>
        <pt x="902" y="877" on="0"/>
        <pt x="900" y="942" on="0"/>
        <pt x="900" y="984" on="1"/>
        <pt x="900" y="1366" on="1"/>
        <pt x="940" y="1373" on="0"/>
        <pt x="1028" y="1378" on="0"/>
        <pt x="1060" y="1378" on="1"/>
        <pt x="1089" y="1378" on="0"/>
        <pt x="1182" y="1373" on="0"/>
        <pt x="1220" y="1366" on="1"/>
        <pt x="1220" y="0" on="1"/>
        <pt x="1179" y="-7" on="0"/>
        <pt x="1097" y="-12" on="0"/>
        <pt x="1064" y="-12" on="1"/>
        <pt x="1030" y="-12" on="0"/>
        <pt x="941" y="-7" on="0"/>
        <pt x="900" y="0" on="1"/>
        <pt x="900" y="424" on="1"/>
        <pt x="900" y="466" on="0"/>
        <pt x="902" y="532" on="0"/>
        <pt x="902" y="572" on="1"/>
        <pt x="880" y="572" on="0"/>
        <pt x="823" y="570" on="0"/>
        <pt x="802" y="570" on="1"/>
        <pt x="571" y="570" on="1"/>
        <pt x="549" y="570" on="0"/>
        <pt x="492" y="572" on="0"/>
        <pt x="471" y="572" on="1"/>
        <pt x="471" y="532" on="0"/>
        <pt x="473" y="466" on="0"/>
        <pt x="473" y="424" on="1"/>
      </contour>
    </TTGlyph>
    <TTGlyph name="Hbar" xMin="15" yMin="-12" xMax="1374" yMax="1378">
      <contour>
        <pt x="481" y="0" on="1"/>
        <pt x="441" y="-7" on="0"/>
        <pt x="353" y="-12" on="0"/>
        <pt x="320" y="-12" on="1"/>
        <pt x="291" y="-12" on="0"/>
        <pt x="199" y="-7" on="0"/>
        <pt x="160" y="0" on="1"/>
        <pt x="160" y="976" on="1"/>
        <pt x="31" y="976" on="1"/>
        <pt x="15" y="1029" on="0"/>
        <pt x="15" y="1091" on="1"/>
        <pt x="15" y="1120" on="0"/>
        <pt x="22" y="1175" on="0"/>
        <pt x="31" y="1206" on="1"/>
        <pt x="160" y="1206" on="1"/>
        <pt x="160" y="1366" on="1"/>
        <pt x="199" y="1373" on="0"/>
        <pt x="291" y="1378" on="0"/>
        <pt x="320" y="1378" on="1"/>
        <pt x="353" y="1378" on="0"/>
        <pt x="441" y="1373" on="0"/>
        <pt x="481" y="1366" on="1"/>
        <pt x="481" y="1206" on="1"/>
        <pt x="908" y="1206" on="1"/>
        <pt x="908" y="1366" on="1"/>
        <pt x="948" y="1373" on="0"/>
        <pt x="1036" y="1378" on="0"/>
        <pt x="1068" y="1378" on="1"/>
        <pt x="1097" y="1378" on="0"/>
        <pt x="1190" y="1373" on="0"/>
        <pt x="1229" y="1366" on="1"/>
        <pt x="1229" y="1206" on="1"/>
        <pt x="1360" y="1206" on="1"/>
        <pt x="1367" y="1175" on="0"/>
        <pt x="1374" y="1128" on="0"/>
        <pt x="1374" y="1095" on="1"/>
        <pt x="1374" y="1032" on="0"/>
        <pt x="1360" y="976" on="1"/>
        <pt x="1229" y="976" on="1"/>
        <pt x="1229" y="0" on="1"/>
        <pt x="1187" y="-7" on="0"/>
        <pt x="1105" y="-12" on="0"/>
        <pt x="1072" y="-12" on="1"/>
        <pt x="1039" y="-12" on="0"/>
        <pt x="949" y="-7" on="0"/>
        <pt x="908" y="0" on="1"/>
        <pt x="908" y="419" on="1"/>
        <pt x="908" y="461" on="0"/>
        <pt x="910" y="526" on="0"/>
        <pt x="910" y="567" on="1"/>
        <pt x="888" y="567" on="0"/>
        <pt x="832" y="565" on="0"/>
        <pt x="810" y="565" on="1"/>
        <pt x="579" y="565" on="1"/>
        <pt x="557" y="565" on="0"/>
        <pt x="501" y="567" on="0"/>
        <pt x="479" y="567" on="1"/>
        <pt x="479" y="526" on="0"/>
        <pt x="481" y="461" on="0"/>
        <pt x="481" y="419" on="1"/>
      </contour>
      <contour>
        <pt x="810" y="829" on="1"/>
        <pt x="832" y="829" on="0"/>
        <pt x="888" y="827" on="0"/>
        <pt x="910" y="827" on="1"/>
        <pt x="910" y="867" on="0"/>
        <pt x="908" y="936" on="0"/>
        <pt x="908" y="976" on="1"/>
        <pt x="481" y="976" on="1"/>
        <pt x="481" y="935" on="0"/>
        <pt x="479" y="867" on="0"/>
        <pt x="479" y="827" on="1"/>
        <pt x="501" y="827" on="0"/>
        <pt x="557" y="829" on="0"/>
        <pt x="579" y="829" on="1"/>
      </contour>
    </TTGlyph>
    <TTGlyph name="Hcircumflex" xMin="152" yMin="-12" xMax="1220" yMax="1834">
      <component glyphName="H" x="0" y="0" flags="0x204"/>
      <component glyphName="glyph00129" x="288" y="2" flags="0x4"/>
    </TTGlyph>
    <TTGlyph name="I" xMin="156" yMin="-12" xMax="477" yMax="1378">
      <contour>
        <pt x="156" y="1366" on="1"/>
        <pt x="195" y="1373" on="0"/>
        <pt x="287" y="1378" on="0"/>
        <pt x="317" y="1378" on="1"/>
        <pt x="349" y="1378" on="0"/>
        <pt x="437" y="1373" on="0"/>
        <pt x="477" y="1366" on="1"/>
        <pt x="477" y="0" on="1"/>
        <pt x="437" y="-7" on="0"/>
        <pt x="349" y="-12" on="0"/>
        <pt x="317" y="-12" on="1"/>
        <pt x="287" y="-12" on="0"/>
        <pt x="195" y="-7" on="0"/>
        <pt x="156" y="0" on="1"/>
      </contour>
    </TTGlyph>
    <TTGlyph name="IJ" xMin="156" yMin="-20" xMax="1429" yMax="1378">
      <component glyphName="I" x="0" y="0" flags="0x4"/>
      <component glyphName="J" x="619" y="0" flags="0x4"/>
    </TTGlyph>
    <TTGlyph name="Iacute" xMin="68" yMin="-12" xMax="637" yMax="1880">
      <component glyphName="I" x="0" y="0" flags="0x204"/>
      <component glyphName="glyph00128" x="-81" y="2" flags="0x4"/>
    </TTGlyph>
    <TTGlyph name="Ibreve" xMin="-52" yMin="-12" xMax="686" yMax="1826">
      <component glyphName="I" x="0" y="0" flags="0x204"/>
      <component glyphName="glyph00136" x="-81" y="2" flags="0x4"/>
    </TTGlyph>
    <TTGlyph name="Icircumflex" xMin="-45" yMin="-12" xMax="671" yMax="1834">
      <component glyphName="I" x="0" y="0" flags="0x204"/>
      <component glyphName="glyph00129" x="-81" y="2" flags="0x4"/>
    </TTGlyph>
    <TTGlyph name="Idieresis" xMin="-63" yMin="-12" xMax="697" yMax="1742">
      <component glyphName="I" x="0" y="0" flags="0x204"/>
      <component glyphName="glyph00130" x="-81" y="2" flags="0x4"/>
    </TTGlyph>
    <TTGlyph name="Idotaccent" xMin="145" yMin="-12" xMax="489" yMax="1781">
      <component glyphName="I" x="0" y="0" flags="0x204"/>
      <component glyphName="glyph00134" x="-81" y="2" flags="0x4"/>
    </TTGlyph>
    <TTGlyph name="Igrave" xMin="15" yMin="-12" xMax="585" yMax="1880">
      <component glyphName="I" x="0" y="0" flags="0x204"/>
      <component glyphName="glyph00127" x="-81" y="2" flags="0x4"/>
    </TTGlyph>
    <TTGlyph name="Imacron" xMin="-21" yMin="-12" xMax="655" yMax="1738">
      <component glyphName="I" x="0" y="0" flags="0x204"/>
      <component glyphName="glyph00135" x="-81" y="2" flags="0x4"/>
    </TTGlyph>
    <TTGlyph name="Iogonek" xMin="134" yMin="-436" xMax="609" yMax="1378">
      <component glyphName="I" x="0" y="0" flags="0x204"/>
      <component glyphName="glyph00140" x="-82" y="0" flags="0x4"/>
    </TTGlyph>
    <TTGlyph name="Itilde" xMin="-83" yMin="-12" xMax="717" yMax="1817">
      <component glyphName="I" x="0" y="0" flags="0x204"/>
      <component glyphName="glyph00133" x="-81" y="2" flags="0x4"/>
    </TTGlyph>
    <TTGlyph name="J" xMin="20" yMin="-20" xMax="810" yMax="1378">
      <contour>
        <pt x="130" y="304" on="1"/>
        <pt x="172" y="279" on="0"/>
        <pt x="263" y="244" on="0"/>
        <pt x="310" y="244" on="1"/>
        <pt x="419" y="244" on="0"/>
        <pt x="489" y="376" on="0"/>
        <pt x="489" y="494" on="1"/>
        <pt x="489" y="1366" on="1"/>
        <pt x="528" y="1373" on="0"/>
        <pt x="621" y="1378" on="0"/>
        <pt x="650" y="1378" on="1"/>
        <pt x="682" y="1378" on="0"/>
        <pt x="770" y="1373" on="0"/>
        <pt x="810" y="1366" on="1"/>
        <pt x="810" y="524" on="1"/>
        <pt x="810" y="367" on="0"/>
        <pt x="735" y="121" on="0"/>
        <pt x="534" y="-20" on="0"/>
        <pt x="346" y="-20" on="1"/>
        <pt x="267" y="-20" on="0"/>
        <pt x="91" y="23" on="0"/>
        <pt x="20" y="68" on="1"/>
        <pt x="29" y="128" on="0"/>
        <pt x="86" y="256" on="0"/>
      </contour>
    </TTGlyph>
    <TTGlyph name="Jcircumflex" xMin="20" yMin="-20" xMax="1004" yMax="1832">
      <component glyphName="J" x="0" y="0" flags="0x204"/>
      <component glyphName="glyph00129" x="252" y="0" flags="0x4"/>
    </TTGlyph>
    <TTGlyph name="K" xMin="152" yMin="-17" xMax="1228" yMax="1378">
      <contour>
        <pt x="1228" y="79" on="1"/>
        <pt x="1197" y="33" on="0"/>
        <pt x="1080" y="-17" on="0"/>
        <pt x="1016" y="-17" on="1"/>
        <pt x="929" y="-17" on="0"/>
        <pt x="851" y="73" on="0"/>
        <pt x="822" y="165" on="1"/>
        <pt x="747" y="399" on="1"/>
        <pt x="717" y="494" on="0"/>
        <pt x="631" y="574" on="0"/>
        <pt x="560" y="574" on="1"/>
        <pt x="525" y="574" on="0"/>
        <pt x="473" y="570" on="1"/>
        <pt x="473" y="0" on="1"/>
        <pt x="433" y="-7" on="0"/>
        <pt x="344" y="-12" on="0"/>
        <pt x="312" y="-12" on="1"/>
        <pt x="283" y="-12" on="0"/>
        <pt x="191" y="-7" on="0"/>
        <pt x="152" y="0" on="1"/>
        <pt x="152" y="1366" on="1"/>
        <pt x="191" y="1373" on="0"/>
        <pt x="283" y="1378" on="0"/>
        <pt x="312" y="1378" on="1"/>
        <pt x="344" y="1378" on="0"/>
        <pt x="433" y="1373" on="0"/>
        <pt x="473" y="1366" on="1"/>
        <pt x="473" y="839" on="1"/>
        <pt x="500" y="839" on="0"/>
        <pt x="523" y="840" on="1"/>
        <pt x="561" y="840" on="0"/>
        <pt x="593" y="867" on="0"/>
        <pt x="614" y="908" on="1"/>
        <pt x="803" y="1267" on="1"/>
        <pt x="832" y="1323" on="0"/>
        <pt x="898" y="1377" on="0"/>
        <pt x="968" y="1377" on="1"/>
        <pt x="1007" y="1377" on="0"/>
        <pt x="1113" y="1372" on="0"/>
        <pt x="1160" y="1368" on="1"/>
        <pt x="1177" y="1346" on="1"/>
        <pt x="935" y="887" on="1"/>
        <pt x="912" y="843" on="0"/>
        <pt x="856" y="770" on="0"/>
        <pt x="822" y="741" on="1"/>
        <pt x="924" y="718" on="0"/>
        <pt x="1016" y="595" on="0"/>
        <pt x="1042" y="514" on="1"/>
        <pt x="1124" y="267" on="1"/>
        <pt x="1144" y="208" on="0"/>
        <pt x="1173" y="142" on="0"/>
        <pt x="1205" y="100" on="0"/>
      </contour>
    </TTGlyph>
    <TTGlyph name="L" xMin="150" yMin="-6" xMax="1005" yMax="1379">
      <contour>
        <pt x="1005" y="270" on="1"/>
        <pt x="1005" y="118" on="0"/>
        <pt x="906" y="-6" on="0"/>
        <pt x="787" y="-6" on="1"/>
        <pt x="336" y="-6" on="1"/>
        <pt x="250" y="-6" on="0"/>
        <pt x="150" y="94" on="0"/>
        <pt x="150" y="181" on="1"/>
        <pt x="150" y="1366" on="1"/>
        <pt x="164" y="1379" on="1"/>
        <pt x="281" y="1379" on="1"/>
        <pt x="373" y="1379" on="0"/>
        <pt x="471" y="1284" on="0"/>
        <pt x="471" y="1177" on="1"/>
        <pt x="471" y="263" on="1"/>
        <pt x="569" y="270" on="0"/>
        <pt x="658" y="270" on="1"/>
      </contour>
    </TTGlyph>
    <TTGlyph name="Lacute" xMin="56" yMin="-6" xMax="1005" yMax="1878">
      <component glyphName="L" x="0" y="0" flags="0x204"/>
      <component glyphName="glyph00128" x="-93" y="0" flags="0x4"/>
    </TTGlyph>
    <TTGlyph name="Lcaron" xMin="150" yMin="-6" xMax="1005" yMax="1498">
      <component glyphName="L" x="0" y="0" flags="0x204"/>
      <component glyphName="glyph00114" x="245" y="-110" flags="0x4"/>
    </TTGlyph>
    <TTGlyph name="Ldot" xMin="150" yMin="-6" xMax="1005" yMax="1379">
      <component glyphName="L" x="0" y="0" flags="0x204"/>
      <component glyphName="glyph00123" x="431" y="-2" flags="0x4"/>
    </TTGlyph>
    <TTGlyph name="Lslash" xMin="-9" yMin="-6" xMax="1026" yMax="1379">
      <contour>
        <pt x="1026" y="270" on="1"/>
        <pt x="1026" y="118" on="0"/>
        <pt x="927" y="-6" on="0"/>
        <pt x="808" y="-6" on="1"/>
        <pt x="356" y="-6" on="1"/>
        <pt x="271" y="-6" on="0"/>
        <pt x="171" y="94" on="0"/>
        <pt x="171" y="181" on="1"/>
        <pt x="171" y="527" on="1"/>
        <pt x="32" y="477" on="1"/>
        <pt x="9" y="488" on="1"/>
        <pt x="-6" y="529" on="0"/>
        <pt x="-9" y="662" on="0"/>
        <pt x="3" y="722" on="1"/>
        <pt x="171" y="780" on="1"/>
        <pt x="171" y="1366" on="1"/>
        <pt x="185" y="1379" on="1"/>
        <pt x="302" y="1379" on="1"/>
        <pt x="394" y="1379" on="0"/>
        <pt x="492" y="1284" on="0"/>
        <pt x="492" y="1177" on="1"/>
        <pt x="492" y="876" on="1"/>
        <pt x="800" y="987" on="1"/>
        <pt x="823" y="976" on="1"/>
        <pt x="837" y="935" on="0"/>
        <pt x="840" y="802" on="0"/>
        <pt x="829" y="742" on="1"/>
        <pt x="492" y="626" on="1"/>
        <pt x="492" y="263" on="1"/>
        <pt x="590" y="270" on="0"/>
        <pt x="679" y="270" on="1"/>
      </contour>
    </TTGlyph>
    <TTGlyph name="M" xMin="109" yMin="-12" xMax="1557" yMax="1379">
      <contour>
        <pt x="215" y="1364" on="1"/>
        <pt x="266" y="1373" on="0"/>
        <pt x="387" y="1379" on="0"/>
        <pt x="431" y="1379" on="1"/>
        <pt x="475" y="1379" on="0"/>
        <pt x="583" y="1373" on="0"/>
        <pt x="634" y="1364" on="1"/>
        <pt x="752" y="875" on="1"/>
        <pt x="756" y="857" on="0"/>
        <pt x="775" y="769" on="0"/>
        <pt x="799" y="657" on="0"/>
        <pt x="820" y="549" on="0"/>
        <pt x="826" y="511" on="1"/>
        <pt x="840" y="511" on="1"/>
        <pt x="846" y="549" on="0"/>
        <pt x="868" y="657" on="0"/>
        <pt x="891" y="769" on="0"/>
        <pt x="911" y="857" on="0"/>
        <pt x="915" y="875" on="1"/>
        <pt x="1033" y="1364" on="1"/>
        <pt x="1084" y="1373" on="0"/>
        <pt x="1191" y="1379" on="0"/>
        <pt x="1235" y="1379" on="1"/>
        <pt x="1279" y="1379" on="0"/>
        <pt x="1401" y="1373" on="0"/>
        <pt x="1451" y="1364" on="1"/>
        <pt x="1557" y="4" on="1"/>
        <pt x="1523" y="-5" on="0"/>
        <pt x="1434" y="-12" on="0"/>
        <pt x="1395" y="-12" on="1"/>
        <pt x="1359" y="-12" on="0"/>
        <pt x="1290" y="-8" on="0"/>
        <pt x="1255" y="-2" on="1"/>
        <pt x="1225" y="555" on="1"/>
        <pt x="1219" y="661" on="0"/>
        <pt x="1209" y="917" on="0"/>
        <pt x="1209" y="1015" on="1"/>
        <pt x="1195" y="1015" on="1"/>
        <pt x="998" y="201" on="1"/>
        <pt x="962" y="195" on="0"/>
        <pt x="866" y="190" on="0"/>
        <pt x="832" y="190" on="1"/>
        <pt x="802" y="190" on="0"/>
        <pt x="704" y="195" on="0"/>
        <pt x="668" y="201" on="1"/>
        <pt x="471" y="1015" on="1"/>
        <pt x="458" y="1015" on="1"/>
        <pt x="457" y="917" on="0"/>
        <pt x="448" y="661" on="0"/>
        <pt x="442" y="555" on="1"/>
        <pt x="411" y="-2" on="1"/>
        <pt x="377" y="-8" on="0"/>
        <pt x="307" y="-12" on="0"/>
        <pt x="271" y="-12" on="1"/>
        <pt x="233" y="-12" on="0"/>
        <pt x="144" y="-5" on="0"/>
        <pt x="109" y="4" on="1"/>
      </contour>
    </TTGlyph>
    <TTGlyph name="N" xMin="152" yMin="-12" xMax="1239" yMax="1379">
      <contour>
        <pt x="545" y="716" on="1"/>
        <pt x="512" y="793" on="0"/>
        <pt x="454" y="941" on="0"/>
        <pt x="433" y="998" on="1"/>
        <pt x="425" y="995" on="1"/>
        <pt x="433" y="910" on="0"/>
        <pt x="444" y="695" on="0"/>
        <pt x="450" y="481" on="0"/>
        <pt x="450" y="398" on="1"/>
        <pt x="450" y="0" on="1"/>
        <pt x="411" y="-7" on="0"/>
        <pt x="335" y="-12" on="0"/>
        <pt x="305" y="-12" on="1"/>
        <pt x="276" y="-12" on="0"/>
        <pt x="189" y="-7" on="0"/>
        <pt x="152" y="0" on="1"/>
        <pt x="152" y="1360" on="1"/>
        <pt x="177" y="1366" on="0"/>
        <pt x="251" y="1374" on="0"/>
        <pt x="321" y="1378" on="0"/>
        <pt x="341" y="1378" on="1"/>
        <pt x="371" y="1378" on="0"/>
        <pt x="474" y="1373" on="0"/>
        <pt x="527" y="1366" on="1"/>
        <pt x="835" y="652" on="1"/>
        <pt x="873" y="564" on="0"/>
        <pt x="938" y="404" on="0"/>
        <pt x="960" y="349" on="1"/>
        <pt x="968" y="352" on="1"/>
        <pt x="960" y="445" on="0"/>
        <pt x="949" y="667" on="0"/>
        <pt x="943" y="873" on="0"/>
        <pt x="943" y="942" on="1"/>
        <pt x="943" y="1186" on="1"/>
        <pt x="943" y="1293" on="0"/>
        <pt x="1030" y="1379" on="0"/>
        <pt x="1122" y="1379" on="1"/>
        <pt x="1226" y="1379" on="1"/>
        <pt x="1239" y="1366" on="1"/>
        <pt x="1239" y="6" on="1"/>
        <pt x="1214" y="0" on="0"/>
        <pt x="1138" y="-8" on="0"/>
        <pt x="1067" y="-12" on="0"/>
        <pt x="1046" y="-12" on="1"/>
        <pt x="1016" y="-12" on="0"/>
        <pt x="913" y="-7" on="0"/>
        <pt x="861" y="0" on="1"/>
      </contour>
    </TTGlyph>
    <TTGlyph name="Nacute" xMin="152" yMin="-12" xMax="1239" yMax="1878">
      <component glyphName="N" x="0" y="0" flags="0x204"/>
      <component glyphName="glyph00128" x="305" y="0" flags="0x4"/>
    </TTGlyph>
    <TTGlyph name="Ncaron" xMin="152" yMin="-12" xMax="1239" yMax="1838">
      <component glyphName="N" x="0" y="0" flags="0x204"/>
      <component glyphName="glyph00131" x="305" y="0" flags="0x4"/>
    </TTGlyph>
    <TTGlyph name="Ntilde" xMin="152" yMin="-12" xMax="1239" yMax="1815">
      <component glyphName="N" x="0" y="0" flags="0x204"/>
      <component glyphName="glyph00133" x="305" y="0" flags="0x4"/>
    </TTGlyph>
    <TTGlyph name="O" xMin="72" yMin="-30" xMax="1262" yMax="1396">
      <contour>
        <pt x="72" y="684" on="1"/>
        <pt x="72" y="898" on="0"/>
        <pt x="201" y="1218" on="0"/>
        <pt x="465" y="1396" on="0"/>
        <pt x="667" y="1396" on="1"/>
        <pt x="870" y="1396" on="0"/>
        <pt x="1134" y="1217" on="0"/>
        <pt x="1262" y="896" on="0"/>
        <pt x="1262" y="684" on="1"/>
        <pt x="1262" y="469" on="0"/>
        <pt x="1132" y="148" on="0"/>
        <pt x="869" y="-30" on="0"/>
        <pt x="667" y="-30" on="1"/>
        <pt x="463" y="-30" on="0"/>
        <pt x="200" y="150" on="0"/>
        <pt x="72" y="471" on="0"/>
      </contour>
      <contour>
        <pt x="406" y="684" on="1"/>
        <pt x="406" y="605" on="0"/>
        <pt x="423" y="441" on="0"/>
        <pt x="476" y="301" on="0"/>
        <pt x="580" y="216" on="0"/>
        <pt x="667" y="216" on="1"/>
        <pt x="753" y="216" on="0"/>
        <pt x="857" y="301" on="0"/>
        <pt x="910" y="441" on="0"/>
        <pt x="927" y="605" on="0"/>
        <pt x="927" y="684" on="1"/>
        <pt x="927" y="763" on="0"/>
        <pt x="910" y="927" on="0"/>
        <pt x="857" y="1065" on="0"/>
        <pt x="753" y="1150" on="0"/>
        <pt x="667" y="1150" on="1"/>
        <pt x="580" y="1150" on="0"/>
        <pt x="476" y="1065" on="0"/>
        <pt x="423" y="927" on="0"/>
        <pt x="406" y="763" on="0"/>
      </contour>
    </TTGlyph>
    <TTGlyph name="OE" xMin="72" yMin="-30" xMax="1785" yMax="1396">
      <contour>
        <pt x="1785" y="264" on="1"/>
        <pt x="1785" y="110" on="0"/>
        <pt x="1685" y="-4" on="0"/>
        <pt x="1575" y="-4" on="1"/>
        <pt x="955" y="-4" on="1"/>
        <pt x="888" y="-14" on="0"/>
        <pt x="737" y="-30" on="0"/>
        <pt x="671" y="-30" on="1"/>
        <pt x="466" y="-30" on="0"/>
        <pt x="201" y="153" on="0"/>
        <pt x="72" y="475" on="0"/>
        <pt x="72" y="684" on="1"/>
        <pt x="72" y="896" on="0"/>
        <pt x="203" y="1217" on="0"/>
        <pt x="469" y="1396" on="0"/>
        <pt x="671" y="1396" on="1"/>
        <pt x="739" y="1396" on="0"/>
        <pt x="894" y="1377" on="0"/>
        <pt x="961" y="1366" on="1"/>
        <pt x="1734" y="1366" on="1"/>
        <pt x="1741" y="1330" on="0"/>
        <pt x="1746" y="1267" on="0"/>
        <pt x="1746" y="1240" on="1"/>
        <pt x="1746" y="1213" on="0"/>
        <pt x="1732" y="1134" on="0"/>
        <pt x="1719" y="1098" on="1"/>
        <pt x="1310" y="1098" on="1"/>
        <pt x="1288" y="1098" on="0"/>
        <pt x="1212" y="1099" on="0"/>
        <pt x="1171" y="1100" on="1"/>
        <pt x="1171" y="1059" on="0"/>
        <pt x="1173" y="994" on="0"/>
        <pt x="1173" y="954" on="1"/>
        <pt x="1173" y="815" on="1"/>
        <pt x="1214" y="816" on="0"/>
        <pt x="1289" y="817" on="0"/>
        <pt x="1310" y="817" on="1"/>
        <pt x="1616" y="817" on="1"/>
        <pt x="1626" y="788" on="0"/>
        <pt x="1635" y="712" on="0"/>
        <pt x="1635" y="686" on="1"/>
        <pt x="1635" y="659" on="0"/>
        <pt x="1626" y="587" on="0"/>
        <pt x="1616" y="556" on="1"/>
        <pt x="1310" y="556" on="1"/>
        <pt x="1289" y="556" on="0"/>
        <pt x="1214" y="557" on="0"/>
        <pt x="1173" y="558" on="1"/>
        <pt x="1173" y="406" on="1"/>
        <pt x="1173" y="367" on="0"/>
        <pt x="1171" y="302" on="0"/>
        <pt x="1171" y="262" on="1"/>
        <pt x="1171" y="260" on="1"/>
        <pt x="1206" y="261" on="0"/>
        <pt x="1279" y="264" on="0"/>
        <pt x="1321" y="264" on="1"/>
      </contour>
      <contour>
        <pt x="400" y="684" on="1"/>
        <pt x="400" y="605" on="0"/>
        <pt x="420" y="441" on="0"/>
        <pt x="476" y="301" on="0"/>
        <pt x="583" y="216" on="0"/>
        <pt x="670" y="216" on="1"/>
        <pt x="717" y="216" on="0"/>
        <pt x="816" y="233" on="0"/>
        <pt x="864" y="246" on="1"/>
        <pt x="864" y="1120" on="1"/>
        <pt x="817" y="1133" on="0"/>
        <pt x="718" y="1150" on="0"/>
        <pt x="671" y="1150" on="1"/>
        <pt x="583" y="1150" on="0"/>
        <pt x="476" y="1065" on="0"/>
        <pt x="420" y="927" on="0"/>
        <pt x="400" y="763" on="0"/>
      </contour>
    </TTGlyph>
    <TTGlyph name="Oacute" xMin="72" yMin="-30" xMax="1262" yMax="1878">
      <component glyphName="O" x="0" y="0" flags="0x204"/>
      <component glyphName="glyph00128" x="269" y="0" flags="0x4"/>
    </TTGlyph>
    <TTGlyph name="Obreve" xMin="72" yMin="-30" xMax="1262" yMax="1824">
      <component glyphName="O" x="0" y="0" flags="0x204"/>
      <component glyphName="glyph00136" x="269" y="0" flags="0x4"/>
    </TTGlyph>
    <TTGlyph name="Ocircumflex" xMin="72" yMin="-30" xMax="1262" yMax="1832">
      <component glyphName="O" x="0" y="0" flags="0x204"/>
      <component glyphName="glyph00129" x="269" y="0" flags="0x4"/>
    </TTGlyph>
    <TTGlyph name="Odieresis" xMin="72" yMin="-30" xMax="1262" yMax="1740">
      <component glyphName="O" x="0" y="0" flags="0x204"/>
      <component glyphName="glyph00130" x="269" y="0" flags="0x4"/>
    </TTGlyph>
    <TTGlyph name="Ograve" xMin="72" yMin="-30" xMax="1262" yMax="1878">
      <component glyphName="O" x="0" y="0" flags="0x204"/>
      <component glyphName="glyph00127" x="269" y="0" flags="0x4"/>
    </TTGlyph>
    <TTGlyph name="Ohungarumlaut" xMin="72" yMin="-30" xMax="1262" yMax="1880">
      <component glyphName="O" x="0" y="0" flags="0x204"/>
      <component glyphName="glyph00137" x="269" y="0" flags="0x4"/>
    </TTGlyph>
    <TTGlyph name="Omacron" xMin="72" yMin="-30" xMax="1262" yMax="1736">
      <component glyphName="O" x="0" y="0" flags="0x204"/>
      <component glyphName="glyph00135" x="269" y="0" flags="0x4"/>
    </TTGlyph>
    <TTGlyph name="Omega" xMin="88" yMin="0" xMax="1438" yMax="1396">
      <contour>
        <pt x="113" y="0" on="1"/>
        <pt x="106" y="30" on="0"/>
        <pt x="100" y="97" on="0"/>
        <pt x="100" y="130" on="1"/>
        <pt x="100" y="164" on="0"/>
        <pt x="106" y="233" on="0"/>
        <pt x="113" y="264" on="1"/>
        <pt x="260" y="264" on="1"/>
        <pt x="295" y="264" on="0"/>
        <pt x="369" y="256" on="0"/>
        <pt x="407" y="250" on="1"/>
        <pt x="398" y="256" on="0"/>
        <pt x="388" y="262" on="1"/>
        <pt x="306" y="313" on="0"/>
        <pt x="170" y="468" on="0"/>
        <pt x="88" y="658" on="0"/>
        <pt x="88" y="762" on="1"/>
        <pt x="88" y="952" on="0"/>
        <pt x="267" y="1237" on="0"/>
        <pt x="573" y="1396" on="0"/>
        <pt x="763" y="1396" on="1"/>
        <pt x="958" y="1396" on="0"/>
        <pt x="1263" y="1234" on="0"/>
        <pt x="1438" y="949" on="0"/>
        <pt x="1438" y="762" on="1"/>
        <pt x="1438" y="658" on="0"/>
        <pt x="1356" y="468" on="0"/>
        <pt x="1220" y="313" on="0"/>
        <pt x="1138" y="262" on="1"/>
        <pt x="1128" y="256" on="0"/>
        <pt x="1119" y="250" on="1"/>
        <pt x="1157" y="256" on="0"/>
        <pt x="1231" y="264" on="0"/>
        <pt x="1266" y="264" on="1"/>
        <pt x="1413" y="264" on="1"/>
        <pt x="1420" y="233" on="0"/>
        <pt x="1427" y="164" on="0"/>
        <pt x="1427" y="130" on="1"/>
        <pt x="1427" y="97" on="0"/>
        <pt x="1420" y="30" on="0"/>
        <pt x="1413" y="0" on="1"/>
        <pt x="921" y="0" on="1"/>
        <pt x="893" y="60" on="0"/>
        <pt x="863" y="149" on="0"/>
        <pt x="863" y="178" on="1"/>
        <pt x="863" y="232" on="0"/>
        <pt x="910" y="286" on="1"/>
        <pt x="979" y="365" on="0"/>
        <pt x="1066" y="505" on="0"/>
        <pt x="1106" y="654" on="0"/>
        <pt x="1106" y="747" on="1"/>
        <pt x="1106" y="853" on="0"/>
        <pt x="1025" y="1040" on="0"/>
        <pt x="872" y="1156" on="0"/>
        <pt x="763" y="1156" on="1"/>
        <pt x="654" y="1156" on="0"/>
        <pt x="501" y="1040" on="0"/>
        <pt x="420" y="853" on="0"/>
        <pt x="420" y="747" on="1"/>
        <pt x="420" y="654" on="0"/>
        <pt x="460" y="505" on="0"/>
        <pt x="547" y="365" on="0"/>
        <pt x="616" y="286" on="1"/>
        <pt x="663" y="232" on="0"/>
        <pt x="663" y="178" on="1"/>
        <pt x="663" y="149" on="0"/>
        <pt x="633" y="60" on="0"/>
        <pt x="605" y="0" on="1"/>
      </contour>
    </TTGlyph>
    <TTGlyph name="Oslash" xMin="72" yMin="-146" xMax="1269" yMax="1518">
      <contour>
        <pt x="72" y="684" on="1"/>
        <pt x="72" y="895" on="0"/>
        <pt x="202" y="1215" on="0"/>
        <pt x="468" y="1396" on="0"/>
        <pt x="670" y="1396" on="1"/>
        <pt x="796" y="1396" on="0"/>
        <pt x="898" y="1358" on="1"/>
        <pt x="990" y="1518" on="1"/>
        <pt x="1043" y="1509" on="0"/>
        <pt x="1153" y="1450" on="0"/>
        <pt x="1186" y="1410" on="1"/>
        <pt x="1088" y="1236" on="1"/>
        <pt x="1179" y="1141" on="0"/>
        <pt x="1269" y="858" on="0"/>
        <pt x="1269" y="684" on="1"/>
        <pt x="1269" y="473" on="0"/>
        <pt x="1139" y="152" on="0"/>
        <pt x="874" y="-30" on="0"/>
        <pt x="670" y="-30" on="1"/>
        <pt x="544" y="-30" on="0"/>
        <pt x="441" y="8" on="1"/>
        <pt x="352" y="-146" on="1"/>
        <pt x="299" y="-138" on="0"/>
        <pt x="189" y="-79" on="0"/>
        <pt x="156" y="-39" on="1"/>
        <pt x="253" y="131" on="1"/>
        <pt x="161" y="226" on="0"/>
        <pt x="72" y="510" on="0"/>
      </contour>
      <contour>
        <pt x="391" y="684" on="1"/>
        <pt x="391" y="624" on="0"/>
        <pt x="402" y="498" on="0"/>
        <pt x="417" y="440" on="1"/>
        <pt x="780" y="1136" on="1"/>
        <pt x="732" y="1159" on="0"/>
        <pt x="670" y="1159" on="1"/>
        <pt x="582" y="1159" on="0"/>
        <pt x="472" y="1073" on="0"/>
        <pt x="413" y="931" on="0"/>
        <pt x="391" y="764" on="0"/>
      </contour>
      <contour>
        <pt x="949" y="684" on="1"/>
        <pt x="949" y="744" on="0"/>
        <pt x="938" y="870" on="0"/>
        <pt x="924" y="928" on="1"/>
        <pt x="560" y="231" on="1"/>
        <pt x="609" y="207" on="0"/>
        <pt x="670" y="207" on="1"/>
        <pt x="759" y="207" on="0"/>
        <pt x="869" y="294" on="0"/>
        <pt x="928" y="436" on="0"/>
        <pt x="949" y="604" on="0"/>
      </contour>
    </TTGlyph>
    <TTGlyph name="Otilde" xMin="72" yMin="-30" xMax="1262" yMax="1815">
      <component glyphName="O" x="0" y="0" flags="0x4"/>
      <component glyphName="glyph00133" x="269" y="0" flags="0x4"/>
    </TTGlyph>
    <TTGlyph name="P" xMin="152" yMin="-12" xMax="1120" yMax="1378">
      <contour>
        <pt x="1120" y="902" on="1"/>
        <pt x="1120" y="745" on="0"/>
        <pt x="993" y="534" on="0"/>
        <pt x="772" y="428" on="0"/>
        <pt x="630" y="428" on="1"/>
        <pt x="473" y="428" on="1"/>
        <pt x="473" y="0" on="1"/>
        <pt x="433" y="-7" on="0"/>
        <pt x="344" y="-12" on="0"/>
        <pt x="312" y="-12" on="1"/>
        <pt x="283" y="-12" on="0"/>
        <pt x="191" y="-7" on="0"/>
        <pt x="152" y="0" on="1"/>
        <pt x="152" y="1356" on="1"/>
        <pt x="166" y="1370" on="1"/>
        <pt x="294" y="1373" on="0"/>
        <pt x="517" y="1378" on="0"/>
        <pt x="630" y="1378" on="1"/>
        <pt x="772" y="1378" on="0"/>
        <pt x="993" y="1275" on="0"/>
        <pt x="1120" y="1064" on="0"/>
      </contour>
      <contour>
        <pt x="473" y="1134" on="1"/>
        <pt x="473" y="668" on="1"/>
        <pt x="515" y="669" on="0"/>
        <pt x="588" y="671" on="0"/>
        <pt x="603" y="671" on="1"/>
        <pt x="683" y="671" on="0"/>
        <pt x="765" y="747" on="0"/>
        <pt x="793" y="854" on="0"/>
        <pt x="793" y="902" on="1"/>
        <pt x="793" y="949" on="0"/>
        <pt x="765" y="1056" on="0"/>
        <pt x="683" y="1132" on="0"/>
        <pt x="603" y="1132" on="1"/>
        <pt x="573" y="1132" on="0"/>
        <pt x="513" y="1133" on="0"/>
      </contour>
    </TTGlyph>
    <TTGlyph name="Q" xMin="72" yMin="-289" xMax="1286" yMax="1396">
      <contour>
        <pt x="72" y="684" on="1"/>
        <pt x="72" y="894" on="0"/>
        <pt x="201" y="1215" on="0"/>
        <pt x="466" y="1396" on="0"/>
        <pt x="669" y="1396" on="1"/>
        <pt x="874" y="1396" on="0"/>
        <pt x="1139" y="1214" on="0"/>
        <pt x="1267" y="892" on="0"/>
        <pt x="1267" y="682" on="1"/>
        <pt x="1267" y="545" on="0"/>
        <pt x="1208" y="295" on="0"/>
        <pt x="1083" y="110" on="0"/>
        <pt x="984" y="68" on="1"/>
        <pt x="1034" y="33" on="1"/>
        <pt x="1113" y="-23" on="0"/>
        <pt x="1224" y="-61" on="0"/>
        <pt x="1286" y="-62" on="1"/>
        <pt x="1284" y="-167" on="0"/>
        <pt x="1165" y="-289" on="0"/>
        <pt x="1084" y="-289" on="1"/>
        <pt x="1014" y="-289" on="0"/>
        <pt x="912" y="-245" on="0"/>
        <pt x="871" y="-209" on="1"/>
        <pt x="668" y="-30" on="1"/>
        <pt x="464" y="-29" on="0"/>
        <pt x="200" y="154" on="0"/>
        <pt x="72" y="475" on="0"/>
      </contour>
      <contour>
        <pt x="400" y="684" on="1"/>
        <pt x="400" y="605" on="0"/>
        <pt x="420" y="441" on="0"/>
        <pt x="475" y="302" on="0"/>
        <pt x="582" y="216" on="0"/>
        <pt x="669" y="216" on="1"/>
        <pt x="757" y="216" on="0"/>
        <pt x="863" y="302" on="0"/>
        <pt x="918" y="441" on="0"/>
        <pt x="936" y="605" on="0"/>
        <pt x="936" y="684" on="1"/>
        <pt x="936" y="764" on="0"/>
        <pt x="918" y="928" on="0"/>
        <pt x="863" y="1066" on="0"/>
        <pt x="757" y="1150" on="0"/>
        <pt x="669" y="1150" on="1"/>
        <pt x="582" y="1150" on="0"/>
        <pt x="475" y="1066" on="0"/>
        <pt x="420" y="928" on="0"/>
        <pt x="400" y="764" on="0"/>
      </contour>
    </TTGlyph>
    <TTGlyph name="R" xMin="152" yMin="-18" xMax="1202" yMax="1378">
      <contour>
        <pt x="1132" y="943" on="1"/>
        <pt x="1132" y="847" on="0"/>
        <pt x="1058" y="698" on="0"/>
        <pt x="946" y="599" on="0"/>
        <pt x="889" y="577" on="1"/>
        <pt x="945" y="557" on="0"/>
        <pt x="1020" y="459" on="0"/>
        <pt x="1043" y="393" on="1"/>
        <pt x="1103" y="224" on="1"/>
        <pt x="1137" y="127" on="0"/>
        <pt x="1202" y="76" on="1"/>
        <pt x="1171" y="36" on="0"/>
        <pt x="1053" y="-18" on="0"/>
        <pt x="989" y="-18" on="1"/>
        <pt x="903" y="-18" on="0"/>
        <pt x="825" y="75" on="0"/>
        <pt x="793" y="167" on="1"/>
        <pt x="721" y="376" on="1"/>
        <pt x="704" y="428" on="0"/>
        <pt x="632" y="501" on="0"/>
        <pt x="552" y="501" on="1"/>
        <pt x="469" y="501" on="1"/>
        <pt x="469" y="0" on="1"/>
        <pt x="429" y="-7" on="0"/>
        <pt x="343" y="-12" on="0"/>
        <pt x="310" y="-12" on="1"/>
        <pt x="281" y="-12" on="0"/>
        <pt x="191" y="-7" on="0"/>
        <pt x="152" y="0" on="1"/>
        <pt x="152" y="1356" on="1"/>
        <pt x="166" y="1370" on="1"/>
        <pt x="294" y="1373" on="0"/>
        <pt x="531" y="1378" on="0"/>
        <pt x="645" y="1378" on="1"/>
        <pt x="784" y="1378" on="0"/>
        <pt x="1005" y="1286" on="0"/>
        <pt x="1132" y="1094" on="0"/>
      </contour>
      <contour>
        <pt x="469" y="1138" on="1"/>
        <pt x="469" y="746" on="1"/>
        <pt x="516" y="748" on="0"/>
        <pt x="599" y="750" on="0"/>
        <pt x="618" y="750" on="1"/>
        <pt x="694" y="750" on="0"/>
        <pt x="775" y="805" on="0"/>
        <pt x="806" y="893" on="0"/>
        <pt x="806" y="943" on="1"/>
        <pt x="806" y="995" on="0"/>
        <pt x="775" y="1083" on="0"/>
        <pt x="694" y="1136" on="0"/>
        <pt x="618" y="1136" on="1"/>
        <pt x="587" y="1136" on="0"/>
        <pt x="512" y="1136" on="0"/>
      </contour>
    </TTGlyph>
    <TTGlyph name="Racute" xMin="152" yMin="-18" xMax="1202" yMax="1878">
      <component glyphName="R" x="0" y="0" flags="0x204"/>
      <component glyphName="glyph00128" x="210" y="0" flags="0x4"/>
    </TTGlyph>
    <TTGlyph name="Rcaron" xMin="152" yMin="-18" xMax="1202" yMax="1838">
      <component glyphName="R" x="0" y="0" flags="0x204"/>
      <component glyphName="glyph00131" x="210" y="0" flags="0x4"/>
    </TTGlyph>
    <TTGlyph name="S" xMin="30" yMin="-30" xMax="1062" yMax="1396">
      <contour>
        <pt x="30" y="119" on="1"/>
        <pt x="36" y="186" on="0"/>
        <pt x="107" y="318" on="0"/>
        <pt x="154" y="358" on="1"/>
        <pt x="238" y="307" on="0"/>
        <pt x="452" y="227" on="0"/>
        <pt x="559" y="227" on="1"/>
        <pt x="646" y="227" on="0"/>
        <pt x="722" y="311" on="0"/>
        <pt x="722" y="359" on="1"/>
        <pt x="722" y="392" on="0"/>
        <pt x="679" y="472" on="0"/>
        <pt x="596" y="509" on="1"/>
        <pt x="360" y="609" on="1"/>
        <pt x="237" y="663" on="0"/>
        <pt x="74" y="835" on="0"/>
        <pt x="74" y="978" on="1"/>
        <pt x="74" y="1103" on="0"/>
        <pt x="204" y="1291" on="0"/>
        <pt x="425" y="1396" on="0"/>
        <pt x="561" y="1396" on="1"/>
        <pt x="703" y="1396" on="0"/>
        <pt x="952" y="1321" on="0"/>
        <pt x="1030" y="1281" on="1"/>
        <pt x="1026" y="1212" on="0"/>
        <pt x="969" y="1085" on="0"/>
        <pt x="923" y="1042" on="1"/>
        <pt x="846" y="1078" on="0"/>
        <pt x="642" y="1139" on="0"/>
        <pt x="561" y="1139" on="1"/>
        <pt x="475" y="1139" on="0"/>
        <pt x="402" y="1061" on="0"/>
        <pt x="402" y="1021" on="1"/>
        <pt x="402" y="983" on="0"/>
        <pt x="453" y="923" on="0"/>
        <pt x="519" y="895" on="1"/>
        <pt x="760" y="794" on="1"/>
        <pt x="904" y="732" on="0"/>
        <pt x="1062" y="528" on="0"/>
        <pt x="1062" y="399" on="1"/>
        <pt x="1062" y="278" on="0"/>
        <pt x="945" y="84" on="0"/>
        <pt x="711" y="-30" on="0"/>
        <pt x="536" y="-30" on="1"/>
        <pt x="415" y="-30" on="0"/>
        <pt x="141" y="47" on="0"/>
      </contour>
    </TTGlyph>
    <TTGlyph name="Sacute" xMin="30" yMin="-30" xMax="1062" yMax="1878">
      <component glyphName="S" x="0" y="0" flags="0x204"/>
      <component glyphName="glyph00128" x="172" y="0" flags="0x4"/>
    </TTGlyph>
    <TTGlyph name="Scaron" xMin="30" yMin="-30" xMax="1062" yMax="1838">
      <component glyphName="S" x="0" y="0" flags="0x204"/>
      <component glyphName="glyph00131" x="172" y="0" flags="0x4"/>
    </TTGlyph>
    <TTGlyph name="Scedilla" xMin="30" yMin="-464" xMax="1062" yMax="1396">
      <component glyphName="S" x="0" y="0" flags="0x204"/>
      <component glyphName="cedilla" x="115" y="0" flags="0x4"/>
    </TTGlyph>
    <TTGlyph name="Scircumflex" xMin="30" yMin="-30" xMax="1062" yMax="1832">
      <component glyphName="S" x="0" y="0" flags="0x204"/>
      <component glyphName="glyph00129" x="172" y="0" flags="0x4"/>
    </TTGlyph>
    <TTGlyph name="T" xMin="7" yMin="-12" xMax="1024" yMax="1366">
      <contour>
        <pt x="351" y="954" on="1"/>
        <pt x="351" y="995" on="0"/>
        <pt x="353" y="1060" on="0"/>
        <pt x="353" y="1102" on="1"/>
        <pt x="351" y="1102" on="1"/>
        <pt x="329" y="1102" on="0"/>
        <pt x="247" y="1100" on="0"/>
        <pt x="225" y="1100" on="1"/>
        <pt x="18" y="1100" on="1"/>
        <pt x="11" y="1136" on="0"/>
        <pt x="7" y="1205" on="0"/>
        <pt x="7" y="1232" on="1"/>
        <pt x="7" y="1260" on="0"/>
        <pt x="11" y="1330" on="0"/>
        <pt x="18" y="1366" on="1"/>
        <pt x="1008" y="1366" on="1"/>
        <pt x="1015" y="1341" on="0"/>
        <pt x="1024" y="1274" on="0"/>
        <pt x="1024" y="1243" on="1"/>
        <pt x="1024" y="1165" on="0"/>
        <pt x="943" y="1100" on="0"/>
        <pt x="857" y="1100" on="1"/>
        <pt x="798" y="1100" on="1"/>
        <pt x="776" y="1100" on="0"/>
        <pt x="694" y="1102" on="0"/>
        <pt x="672" y="1102" on="1"/>
        <pt x="670" y="1102" on="1"/>
        <pt x="670" y="1060" on="0"/>
        <pt x="672" y="995" on="0"/>
        <pt x="672" y="954" on="1"/>
        <pt x="672" y="0" on="1"/>
        <pt x="631" y="-7" on="0"/>
        <pt x="545" y="-12" on="0"/>
        <pt x="511" y="-12" on="1"/>
        <pt x="478" y="-12" on="0"/>
        <pt x="392" y="-7" on="0"/>
        <pt x="351" y="0" on="1"/>
      </contour>
    </TTGlyph>
    <TTGlyph name="Tbar" xMin="7" yMin="-12" xMax="1024" yMax="1366">
      <contour>
        <pt x="116" y="522" on="1"/>
        <pt x="100" y="576" on="0"/>
        <pt x="100" y="637" on="1"/>
        <pt x="100" y="667" on="0"/>
        <pt x="107" y="721" on="0"/>
        <pt x="116" y="753" on="1"/>
        <pt x="351" y="753" on="1"/>
        <pt x="351" y="954" on="1"/>
        <pt x="351" y="995" on="0"/>
        <pt x="353" y="1060" on="0"/>
        <pt x="353" y="1102" on="1"/>
        <pt x="351" y="1102" on="1"/>
        <pt x="329" y="1102" on="0"/>
        <pt x="247" y="1100" on="0"/>
        <pt x="225" y="1100" on="1"/>
        <pt x="18" y="1100" on="1"/>
        <pt x="11" y="1136" on="0"/>
        <pt x="7" y="1205" on="0"/>
        <pt x="7" y="1232" on="1"/>
        <pt x="7" y="1260" on="0"/>
        <pt x="11" y="1330" on="0"/>
        <pt x="18" y="1366" on="1"/>
        <pt x="1008" y="1366" on="1"/>
        <pt x="1015" y="1341" on="0"/>
        <pt x="1024" y="1274" on="0"/>
        <pt x="1024" y="1243" on="1"/>
        <pt x="1024" y="1165" on="0"/>
        <pt x="943" y="1100" on="0"/>
        <pt x="857" y="1100" on="1"/>
        <pt x="798" y="1100" on="1"/>
        <pt x="776" y="1100" on="0"/>
        <pt x="694" y="1102" on="0"/>
        <pt x="672" y="1102" on="1"/>
        <pt x="670" y="1102" on="1"/>
        <pt x="670" y="1060" on="0"/>
        <pt x="672" y="995" on="0"/>
        <pt x="672" y="954" on="1"/>
        <pt x="672" y="753" on="1"/>
        <pt x="907" y="753" on="1"/>
        <pt x="915" y="721" on="0"/>
        <pt x="921" y="674" on="0"/>
        <pt x="921" y="641" on="1"/>
        <pt x="921" y="578" on="0"/>
        <pt x="907" y="522" on="1"/>
        <pt x="672" y="522" on="1"/>
        <pt x="672" y="0" on="1"/>
        <pt x="631" y="-7" on="0"/>
        <pt x="545" y="-12" on="0"/>
        <pt x="511" y="-12" on="1"/>
        <pt x="478" y="-12" on="0"/>
        <pt x="392" y="-7" on="0"/>
        <pt x="351" y="0" on="1"/>
        <pt x="351" y="522" on="1"/>
      </contour>
    </TTGlyph>
    <TTGlyph name="Tcaron" xMin="7" yMin="-12" xMax="1024" yMax="1838">
      <component glyphName="T" x="0" y="0" flags="0x204"/>
      <component glyphName="glyph00131" x="113" y="0" flags="0x4"/>
    </TTGlyph>
    <TTGlyph name="Thorn" xMin="152" yMin="-12" xMax="1120" yMax="1378">
      <contour>
        <pt x="152" y="1366" on="1"/>
        <pt x="191" y="1373" on="0"/>
        <pt x="283" y="1378" on="0"/>
        <pt x="312" y="1378" on="1"/>
        <pt x="344" y="1378" on="0"/>
        <pt x="433" y="1373" on="0"/>
        <pt x="473" y="1366" on="1"/>
        <pt x="473" y="1178" on="1"/>
        <pt x="511" y="1179" on="0"/>
        <pt x="587" y="1180" on="0"/>
        <pt x="626" y="1180" on="1"/>
        <pt x="768" y="1180" on="0"/>
        <pt x="991" y="1088" on="0"/>
        <pt x="1120" y="888" on="0"/>
        <pt x="1120" y="726" on="1"/>
        <pt x="1120" y="570" on="0"/>
        <pt x="991" y="368" on="0"/>
        <pt x="768" y="271" on="0"/>
        <pt x="626" y="271" on="1"/>
        <pt x="473" y="271" on="1"/>
        <pt x="473" y="0" on="1"/>
        <pt x="433" y="-7" on="0"/>
        <pt x="344" y="-12" on="0"/>
        <pt x="312" y="-12" on="1"/>
        <pt x="283" y="-12" on="0"/>
        <pt x="191" y="-7" on="0"/>
        <pt x="152" y="0" on="1"/>
      </contour>
      <contour>
        <pt x="599" y="935" on="1"/>
        <pt x="584" y="935" on="0"/>
        <pt x="515" y="936" on="0"/>
        <pt x="473" y="937" on="1"/>
        <pt x="473" y="514" on="1"/>
        <pt x="515" y="516" on="0"/>
        <pt x="585" y="518" on="0"/>
        <pt x="599" y="518" on="1"/>
        <pt x="679" y="518" on="0"/>
        <pt x="763" y="582" on="0"/>
        <pt x="793" y="679" on="0"/>
        <pt x="793" y="726" on="1"/>
        <pt x="793" y="773" on="0"/>
        <pt x="763" y="870" on="0"/>
        <pt x="679" y="935" on="0"/>
      </contour>
    </TTGlyph>
    <TTGlyph name="U" xMin="132" yMin="-30" xMax="1214" yMax="1379">
      <contour>
        <pt x="1214" y="504" on="1"/>
        <pt x="1214" y="250" on="0"/>
        <pt x="933" y="-30" on="0"/>
        <pt x="673" y="-30" on="1"/>
        <pt x="414" y="-30" on="0"/>
        <pt x="132" y="250" on="0"/>
        <pt x="132" y="504" on="1"/>
        <pt x="132" y="1366" on="1"/>
        <pt x="146" y="1379" on="1"/>
        <pt x="263" y="1379" on="1"/>
        <pt x="355" y="1379" on="0"/>
        <pt x="453" y="1284" on="0"/>
        <pt x="453" y="1177" on="1"/>
        <pt x="453" y="501" on="1"/>
        <pt x="453" y="364" on="0"/>
        <pt x="553" y="225" on="0"/>
        <pt x="673" y="225" on="1"/>
        <pt x="794" y="225" on="0"/>
        <pt x="894" y="364" on="0"/>
        <pt x="894" y="501" on="1"/>
        <pt x="894" y="1366" on="1"/>
        <pt x="933" y="1373" on="0"/>
        <pt x="1018" y="1378" on="0"/>
        <pt x="1050" y="1378" on="1"/>
        <pt x="1079" y="1378" on="0"/>
        <pt x="1176" y="1373" on="0"/>
        <pt x="1214" y="1366" on="1"/>
      </contour>
    </TTGlyph>
    <TTGlyph name="Uacute" xMin="132" yMin="-30" xMax="1214" yMax="1878">
      <component glyphName="U" x="0" y="0" flags="0x204"/>
      <component glyphName="glyph00128" x="270" y="0" flags="0x4"/>
    </TTGlyph>
    <TTGlyph name="Ubreve" xMin="132" yMin="-30" xMax="1214" yMax="1824">
      <component glyphName="U" x="0" y="0" flags="0x204"/>
      <component glyphName="glyph00136" x="270" y="0" flags="0x4"/>
    </TTGlyph>
    <TTGlyph name="Ucircumflex" xMin="132" yMin="-30" xMax="1214" yMax="1832">
      <component glyphName="U" x="0" y="0" flags="0x204"/>
      <component glyphName="glyph00129" x="270" y="0" flags="0x4"/>
    </TTGlyph>
    <TTGlyph name="Udieresis" xMin="132" yMin="-30" xMax="1214" yMax="1740">
      <component glyphName="U" x="0" y="0" flags="0x204"/>
      <component glyphName="glyph00130" x="270" y="0" flags="0x4"/>
    </TTGlyph>
    <TTGlyph name="Ugrave" xMin="132" yMin="-30" xMax="1214" yMax="1878">
      <component glyphName="U" x="0" y="0" flags="0x204"/>
      <component glyphName="glyph00127" x="270" y="0" flags="0x4"/>
    </TTGlyph>
    <TTGlyph name="Uhungarumlaut" xMin="132" yMin="-30" xMax="1214" yMax="1880">
      <component glyphName="U" x="0" y="0" flags="0x204"/>
      <component glyphName="glyph00137" x="270" y="0" flags="0x4"/>
    </TTGlyph>
    <TTGlyph name="Umacron" xMin="132" yMin="-30" xMax="1214" yMax="1736">
      <component glyphName="U" x="0" y="0" flags="0x204"/>
      <component glyphName="glyph00135" x="270" y="0" flags="0x4"/>
    </TTGlyph>
    <TTGlyph name="Uogonek" xMin="132" yMin="-436" xMax="1214" yMax="1379">
      <component glyphName="U" x="0" y="0" flags="0x204"/>
      <component glyphName="glyph00140" x="273" y="0" flags="0x4"/>
    </TTGlyph>
    <TTGlyph name="Uring" xMin="132" yMin="-30" xMax="1214" yMax="1832">
      <component glyphName="U" x="0" y="0" flags="0x204"/>
      <component glyphName="glyph00132" x="270" y="0" flags="0x4"/>
    </TTGlyph>
    <TTGlyph name="Utilde" xMin="132" yMin="-30" xMax="1214" yMax="1815">
      <component glyphName="U" x="0" y="0" flags="0x204"/>
      <component glyphName="glyph00133" x="270" y="0" flags="0x4"/>
    </TTGlyph>
    <TTGlyph name="V" xMin="17" yMin="-12" xMax="1196" yMax="1384">
      <contour>
        <pt x="897" y="1366" on="1"/>
        <pt x="932" y="1375" on="0"/>
        <pt x="1004" y="1378" on="0"/>
        <pt x="1036" y="1378" on="1"/>
        <pt x="1065" y="1378" on="0"/>
        <pt x="1150" y="1368" on="0"/>
        <pt x="1183" y="1357" on="1"/>
        <pt x="1196" y="1339" on="1"/>
        <pt x="821" y="0" on="1"/>
        <pt x="765" y="-6" on="0"/>
        <pt x="628" y="-12" on="0"/>
        <pt x="566" y="-12" on="1"/>
        <pt x="476" y="-12" on="0"/>
        <pt x="374" y="48" on="0"/>
        <pt x="350" y="132" on="1"/>
        <pt x="17" y="1337" on="1"/>
        <pt x="60" y="1356" on="0"/>
        <pt x="158" y="1384" on="0"/>
        <pt x="210" y="1384" on="1"/>
        <pt x="282" y="1384" on="0"/>
        <pt x="361" y="1307" on="0"/>
        <pt x="382" y="1225" on="1"/>
        <pt x="536" y="656" on="1"/>
        <pt x="560" y="568" on="0"/>
        <pt x="598" y="380" on="0"/>
        <pt x="612" y="292" on="1"/>
        <pt x="615" y="276" on="0"/>
        <pt x="624" y="267" on="0"/>
        <pt x="633" y="267" on="1"/>
      </contour>
    </TTGlyph>
    <TTGlyph name="W" xMin="30" yMin="-12" xMax="1767" yMax="1384">
      <contour>
        <pt x="30" y="1347" on="1"/>
        <pt x="65" y="1362" on="0"/>
        <pt x="156" y="1384" on="0"/>
        <pt x="199" y="1384" on="1"/>
        <pt x="283" y="1384" on="0"/>
        <pt x="360" y="1311" on="0"/>
        <pt x="376" y="1208" on="1"/>
        <pt x="460" y="691" on="1"/>
        <pt x="471" y="626" on="0"/>
        <pt x="493" y="479" on="0"/>
        <pt x="511" y="342" on="0"/>
        <pt x="515" y="294" on="1"/>
        <pt x="517" y="275" on="0"/>
        <pt x="525" y="267" on="0"/>
        <pt x="535" y="267" on="1"/>
        <pt x="700" y="1340" on="1"/>
        <pt x="748" y="1348" on="0"/>
        <pt x="858" y="1355" on="0"/>
        <pt x="905" y="1355" on="1"/>
        <pt x="953" y="1355" on="0"/>
        <pt x="1064" y="1348" on="0"/>
        <pt x="1109" y="1340" on="1"/>
        <pt x="1262" y="294" on="1"/>
        <pt x="1265" y="274" on="0"/>
        <pt x="1275" y="267" on="0"/>
        <pt x="1284" y="267" on="1"/>
        <pt x="1289" y="322" on="0"/>
        <pt x="1308" y="470" on="0"/>
        <pt x="1331" y="627" on="0"/>
        <pt x="1343" y="695" on="1"/>
        <pt x="1457" y="1366" on="1"/>
        <pt x="1493" y="1373" on="0"/>
        <pt x="1567" y="1378" on="0"/>
        <pt x="1600" y="1378" on="1"/>
        <pt x="1637" y="1378" on="0"/>
        <pt x="1720" y="1367" on="0"/>
        <pt x="1751" y="1357" on="1"/>
        <pt x="1767" y="1337" on="1"/>
        <pt x="1502" y="2" on="1"/>
        <pt x="1447" y="-4" on="0"/>
        <pt x="1292" y="-12" on="0"/>
        <pt x="1229" y="-12" on="1"/>
        <pt x="1158" y="-12" on="0"/>
        <pt x="1049" y="36" on="0"/>
        <pt x="1034" y="133" on="1"/>
        <pt x="966" y="565" on="1"/>
        <pt x="948" y="683" on="0"/>
        <pt x="917" y="935" on="0"/>
        <pt x="909" y="1029" on="1"/>
        <pt x="893" y="1029" on="1"/>
        <pt x="883" y="935" on="0"/>
        <pt x="848" y="684" on="0"/>
        <pt x="828" y="565" on="1"/>
        <pt x="737" y="2" on="1"/>
        <pt x="680" y="-4" on="0"/>
        <pt x="535" y="-12" on="0"/>
        <pt x="470" y="-12" on="1"/>
        <pt x="392" y="-12" on="0"/>
        <pt x="285" y="36" on="0"/>
        <pt x="266" y="133" on="1"/>
      </contour>
    </TTGlyph>
    <TTGlyph name="Wacute" xMin="30" yMin="-12" xMax="1767" yMax="1878">
      <component glyphName="W" x="0" y="0" flags="0x204"/>
      <component glyphName="glyph00128" x="507" y="0" flags="0x4"/>
    </TTGlyph>
    <TTGlyph name="Wcircumflex" xMin="30" yMin="-12" xMax="1767" yMax="1832">
      <component glyphName="W" x="0" y="0" flags="0x204"/>
      <component glyphName="glyph00129" x="507" y="0" flags="0x4"/>
    </TTGlyph>
    <TTGlyph name="Wdieresis" xMin="30" yMin="-12" xMax="1767" yMax="1740">
      <component glyphName="W" x="0" y="0" flags="0x204"/>
      <component glyphName="glyph00130" x="507" y="0" flags="0x4"/>
    </TTGlyph>
    <TTGlyph name="Wgrave" xMin="30" yMin="-12" xMax="1767" yMax="1878">
      <component glyphName="W" x="0" y="0" flags="0x204"/>
      <component glyphName="glyph00127" x="507" y="0" flags="0x4"/>
    </TTGlyph>
    <TTGlyph name="X" xMin="17" yMin="-19" xMax="1215" yMax="1385">
      <contour>
        <pt x="49" y="1316" on="1"/>
        <pt x="96" y="1348" on="0"/>
        <pt x="207" y="1385" on="0"/>
        <pt x="257" y="1385" on="1"/>
        <pt x="325" y="1385" on="0"/>
        <pt x="415" y="1331" on="0"/>
        <pt x="460" y="1261" on="1"/>
        <pt x="636" y="977" on="1"/>
        <pt x="866" y="1366" on="1"/>
        <pt x="917" y="1378" on="0"/>
        <pt x="999" y="1378" on="1"/>
        <pt x="1045" y="1378" on="0"/>
        <pt x="1136" y="1362" on="0"/>
        <pt x="1167" y="1351" on="1"/>
        <pt x="1175" y="1335" on="1"/>
        <pt x="799" y="717" on="1"/>
        <pt x="1215" y="50" on="1"/>
        <pt x="1168" y="18" on="0"/>
        <pt x="1057" y="-19" on="0"/>
        <pt x="1007" y="-19" on="1"/>
        <pt x="939" y="-19" on="0"/>
        <pt x="847" y="35" on="0"/>
        <pt x="801" y="107" on="1"/>
        <pt x="592" y="442" on="1"/>
        <pt x="330" y="0" on="1"/>
        <pt x="278" y="-12" on="0"/>
        <pt x="196" y="-12" on="1"/>
        <pt x="150" y="-12" on="0"/>
        <pt x="59" y="4" on="0"/>
        <pt x="25" y="15" on="1"/>
        <pt x="17" y="33" on="1"/>
        <pt x="429" y="705" on="1"/>
      </contour>
    </TTGlyph>
    <TTGlyph name="Y" xMin="-5" yMin="-12" xMax="1090" yMax="1382">
      <contour>
        <pt x="790" y="1366" on="1"/>
        <pt x="823" y="1373" on="0"/>
        <pt x="889" y="1378" on="0"/>
        <pt x="920" y="1378" on="1"/>
        <pt x="960" y="1378" on="0"/>
        <pt x="1045" y="1366" on="0"/>
        <pt x="1077" y="1355" on="1"/>
        <pt x="1090" y="1337" on="1"/>
        <pt x="703" y="420" on="1"/>
        <pt x="703" y="0" on="1"/>
        <pt x="663" y="-7" on="0"/>
        <pt x="576" y="-12" on="0"/>
        <pt x="544" y="-12" on="1"/>
        <pt x="515" y="-12" on="0"/>
        <pt x="421" y="-7" on="0"/>
        <pt x="382" y="0" on="1"/>
        <pt x="382" y="428" on="1"/>
        <pt x="-5" y="1328" on="1"/>
        <pt x="36" y="1351" on="0"/>
        <pt x="139" y="1382" on="0"/>
        <pt x="190" y="1382" on="1"/>
        <pt x="258" y="1382" on="0"/>
        <pt x="331" y="1322" on="0"/>
        <pt x="359" y="1255" on="1"/>
        <pt x="454" y="1016" on="1"/>
        <pt x="505" y="887" on="0"/>
        <pt x="545" y="729" on="1"/>
        <pt x="557" y="729" on="1"/>
        <pt x="576" y="805" on="0"/>
        <pt x="628" y="959" on="0"/>
        <pt x="655" y="1027" on="1"/>
      </contour>
    </TTGlyph>
    <TTGlyph name="Yacute" xMin="-5" yMin="-12" xMax="1090" yMax="1878">
      <component glyphName="Y" x="0" y="0" flags="0x204"/>
      <component glyphName="glyph00128" x="151" y="0" flags="0x4"/>
    </TTGlyph>
    <TTGlyph name="Ycircumflex" xMin="-5" yMin="-12" xMax="1090" yMax="1832">
      <component glyphName="Y" x="0" y="0" flags="0x204"/>
      <component glyphName="glyph00129" x="151" y="0" flags="0x4"/>
    </TTGlyph>
    <TTGlyph name="Ydieresis" xMin="-5" yMin="-12" xMax="1090" yMax="1740">
      <component glyphName="Y" x="0" y="0" flags="0x204"/>
      <component glyphName="glyph00130" x="151" y="0" flags="0x4"/>
    </TTGlyph>
    <TTGlyph name="Ygrave" xMin="-5" yMin="-12" xMax="1090" yMax="1878">
      <component glyphName="Y" x="0" y="0" flags="0x204"/>
      <component glyphName="glyph00127" x="151" y="0" flags="0x4"/>
    </TTGlyph>
    <TTGlyph name="Z" xMin="75" yMin="0" xMax="1084" yMax="1366">
      <contour>
        <pt x="558" y="921" on="1"/>
        <pt x="587" y="961" on="0"/>
        <pt x="681" y="1076" on="0"/>
        <pt x="719" y="1117" on="1"/>
        <pt x="713" y="1123" on="1"/>
        <pt x="643" y="1114" on="0"/>
        <pt x="466" y="1106" on="0"/>
        <pt x="405" y="1106" on="1"/>
        <pt x="118" y="1106" on="1"/>
        <pt x="111" y="1134" on="0"/>
        <pt x="106" y="1187" on="0"/>
        <pt x="106" y="1213" on="1"/>
        <pt x="106" y="1254" on="0"/>
        <pt x="118" y="1326" on="0"/>
        <pt x="128" y="1366" on="1"/>
        <pt x="1013" y="1366" on="1"/>
        <pt x="1034" y="1291" on="0"/>
        <pt x="1053" y="1215" on="0"/>
        <pt x="1057" y="1182" on="0"/>
        <pt x="1057" y="1170" on="1"/>
        <pt x="1057" y="1143" on="0"/>
        <pt x="1042" y="1087" on="0"/>
        <pt x="1022" y="1058" on="1"/>
        <pt x="576" y="446" on="1"/>
        <pt x="547" y="406" on="0"/>
        <pt x="459" y="299" on="0"/>
        <pt x="420" y="258" on="1"/>
        <pt x="426" y="252" on="1"/>
        <pt x="490" y="257" on="0"/>
        <pt x="662" y="266" on="0"/>
        <pt x="726" y="266" on="1"/>
        <pt x="837" y="266" on="1"/>
        <pt x="910" y="266" on="0"/>
        <pt x="1022" y="294" on="0"/>
        <pt x="1063" y="313" on="1"/>
        <pt x="1072" y="284" on="0"/>
        <pt x="1084" y="206" on="0"/>
        <pt x="1084" y="169" on="1"/>
        <pt x="1084" y="83" on="0"/>
        <pt x="967" y="0" on="0"/>
        <pt x="875" y="0" on="1"/>
        <pt x="110" y="0" on="1"/>
        <pt x="94" y="71" on="0"/>
        <pt x="79" y="143" on="0"/>
        <pt x="75" y="178" on="0"/>
        <pt x="75" y="192" on="1"/>
        <pt x="75" y="256" on="0"/>
        <pt x="113" y="310" on="1"/>
      </contour>
    </TTGlyph>
    <TTGlyph name="Zacute" xMin="75" yMin="0" xMax="1084" yMax="1878">
      <component glyphName="Z" x="0" y="0" flags="0x204"/>
      <component glyphName="glyph00128" x="179" y="0" flags="0x4"/>
    </TTGlyph>
    <TTGlyph name="Zcaron" xMin="75" yMin="0" xMax="1084" yMax="1838">
      <component glyphName="Z" x="0" y="0" flags="0x204"/>
      <component glyphName="glyph00131" x="179" y="0" flags="0x4"/>
    </TTGlyph>
    <TTGlyph name="Zdotaccent" xMin="75" yMin="0" xMax="1084" yMax="1779">
      <component glyphName="Z" x="0" y="0" flags="0x204"/>
      <component glyphName="glyph00134" x="179" y="0" flags="0x4"/>
    </TTGlyph>
    <TTGlyph name="a" xMin="9" yMin="-18" xMax="1142" yMax="1114">
      <contour>
        <pt x="424" y="193" on="1"/>
        <pt x="408" y="193" on="0"/>
        <pt x="378" y="194" on="0"/>
        <pt x="363" y="195" on="1"/>
        <pt x="301" y="0" on="1"/>
        <pt x="272" y="-7" on="0"/>
        <pt x="204" y="-14" on="0"/>
        <pt x="167" y="-14" on="1"/>
        <pt x="127" y="-14" on="0"/>
        <pt x="46" y="-2" on="0"/>
        <pt x="20" y="9" on="1"/>
        <pt x="9" y="26" on="1"/>
        <pt x="398" y="1102" on="1"/>
        <pt x="450" y="1110" on="0"/>
        <pt x="547" y="1114" on="0"/>
        <pt x="587" y="1114" on="1"/>
        <pt x="624" y="1114" on="0"/>
        <pt x="710" y="1110" on="0"/>
        <pt x="764" y="1102" on="1"/>
        <pt x="1142" y="15" on="1"/>
        <pt x="1107" y="-1" on="0"/>
        <pt x="999" y="-18" on="0"/>
        <pt x="966" y="-18" on="1"/>
        <pt x="911" y="-18" on="0"/>
        <pt x="809" y="24" on="0"/>
        <pt x="783" y="114" on="1"/>
        <pt x="758" y="195" on="1"/>
        <pt x="742" y="194" on="0"/>
        <pt x="712" y="193" on="0"/>
        <pt x="695" y="193" on="1"/>
      </contour>
      <contour>
        <pt x="464" y="509" on="1"/>
        <pt x="442" y="440" on="1"/>
        <pt x="457" y="441" on="0"/>
        <pt x="487" y="442" on="0"/>
        <pt x="503" y="442" on="1"/>
        <pt x="628" y="442" on="1"/>
        <pt x="643" y="442" on="0"/>
        <pt x="668" y="441" on="0"/>
        <pt x="681" y="440" on="1"/>
        <pt x="660" y="508" on="1"/>
        <pt x="637" y="587" on="0"/>
        <pt x="591" y="781" on="0"/>
        <pt x="572" y="860" on="1"/>
        <pt x="560" y="860" on="1"/>
        <pt x="539" y="784" on="0"/>
        <pt x="488" y="588" on="0"/>
      </contour>
    </TTGlyph>
    <TTGlyph name="aacute" xMin="9" yMin="-18" xMax="1142" yMax="1643">
      <component glyphName="a" x="0" y="0" flags="0x204"/>
      <component glyphName="acute" x="192" y="104" flags="0x4"/>
    </TTGlyph>
    <TTGlyph name="abreve" xMin="9" yMin="-18" xMax="1142" yMax="1556">
      <component glyphName="a" x="0" y="0" flags="0x204"/>
      <component glyphName="breve" x="189" y="104" flags="0x4"/>
    </TTGlyph>
    <TTGlyph name="acircumflex" xMin="9" yMin="-18" xMax="1142" yMax="1600">
      <component glyphName="a" x="0" y="0" flags="0x204"/>
      <component glyphName="circumflex" x="189" y="104" flags="0x4"/>
    </TTGlyph>
    <TTGlyph name="acute" xMin="208" yMin="1081" xMax="706" yMax="1539">
      <contour>
        <pt x="518" y="1539" on="1"/>
        <pt x="574" y="1522" on="0"/>
        <pt x="688" y="1419" on="0"/>
        <pt x="706" y="1359" on="1"/>
        <pt x="336" y="1081" on="1"/>
        <pt x="297" y="1093" on="0"/>
        <pt x="224" y="1159" on="0"/>
        <pt x="208" y="1202" on="1"/>
      </contour>
    </TTGlyph>
    <TTGlyph name="acutecomb" xMin="-215" yMin="1081" xMax="283" yMax="1539">
      <component glyphName="acute" x="-423" y="0" flags="0x4"/>
    </TTGlyph>
    <TTGlyph name="adieresis" xMin="9" yMin="-18" xMax="1142" yMax="1483">
      <component glyphName="a" x="0" y="0" flags="0x204"/>
      <component glyphName="dieresis" x="189" y="104" flags="0x4"/>
    </TTGlyph>
    <TTGlyph name="ae" xMin="2" yMin="-12" xMax="1532" yMax="1102">
      <contour>
        <pt x="479" y="206" on="1"/>
        <pt x="458" y="206" on="0"/>
        <pt x="407" y="208" on="0"/>
        <pt x="388" y="208" on="1"/>
        <pt x="291" y="0" on="1"/>
        <pt x="256" y="-9" on="0"/>
        <pt x="191" y="-12" on="0"/>
        <pt x="154" y="-12" on="1"/>
        <pt x="114" y="-12" on="0"/>
        <pt x="43" y="-2" on="0"/>
        <pt x="14" y="9" on="1"/>
        <pt x="2" y="28" on="1"/>
        <pt x="521" y="1077" on="1"/>
        <pt x="554" y="1093" on="0"/>
        <pt x="671" y="1102" on="0"/>
        <pt x="718" y="1102" on="1"/>
        <pt x="1495" y="1102" on="1"/>
        <pt x="1502" y="1068" on="0"/>
        <pt x="1504" y="1006" on="0"/>
        <pt x="1504" y="978" on="1"/>
        <pt x="1504" y="951" on="0"/>
        <pt x="1493" y="884" on="0"/>
        <pt x="1480" y="850" on="1"/>
        <pt x="1123" y="850" on="1"/>
        <pt x="1080" y="850" on="0"/>
        <pt x="1000" y="851" on="1"/>
        <pt x="1000" y="819" on="0"/>
        <pt x="1002" y="772" on="0"/>
        <pt x="1002" y="741" on="1"/>
        <pt x="1002" y="673" on="1"/>
        <pt x="1037" y="674" on="0"/>
        <pt x="1104" y="675" on="0"/>
        <pt x="1123" y="675" on="1"/>
        <pt x="1386" y="675" on="1"/>
        <pt x="1396" y="647" on="0"/>
        <pt x="1403" y="582" on="0"/>
        <pt x="1403" y="558" on="1"/>
        <pt x="1403" y="530" on="0"/>
        <pt x="1396" y="462" on="0"/>
        <pt x="1386" y="435" on="1"/>
        <pt x="1123" y="435" on="1"/>
        <pt x="1104" y="435" on="0"/>
        <pt x="1037" y="435" on="0"/>
        <pt x="1002" y="435" on="1"/>
        <pt x="1002" y="368" on="1"/>
        <pt x="1002" y="331" on="0"/>
        <pt x="1000" y="280" on="0"/>
        <pt x="1000" y="243" on="1"/>
        <pt x="1000" y="241" on="1"/>
        <pt x="1033" y="243" on="0"/>
        <pt x="1089" y="247" on="0"/>
        <pt x="1134" y="247" on="1"/>
        <pt x="1532" y="247" on="1"/>
        <pt x="1532" y="106" on="0"/>
        <pt x="1440" y="-4" on="0"/>
        <pt x="1337" y="-4" on="1"/>
        <pt x="885" y="-4" on="1"/>
        <pt x="801" y="-4" on="0"/>
        <pt x="709" y="93" on="0"/>
        <pt x="709" y="175" on="1"/>
        <pt x="709" y="207" on="1"/>
        <pt x="695" y="207" on="0"/>
        <pt x="667" y="206" on="0"/>
        <pt x="652" y="206" on="1"/>
      </contour>
      <contour>
        <pt x="548" y="551" on="1"/>
        <pt x="495" y="436" on="1"/>
        <pt x="513" y="437" on="0"/>
        <pt x="550" y="438" on="0"/>
        <pt x="568" y="438" on="1"/>
        <pt x="648" y="438" on="1"/>
        <pt x="664" y="438" on="0"/>
        <pt x="694" y="437" on="0"/>
        <pt x="709" y="437" on="1"/>
        <pt x="709" y="885" on="1"/>
        <pt x="707" y="883" on="1"/>
        <pt x="699" y="883" on="1"/>
        <pt x="661" y="798" on="0"/>
        <pt x="579" y="618" on="0"/>
      </contour>
    </TTGlyph>
    <TTGlyph name="agrave" xMin="9" yMin="-18" xMax="1142" yMax="1643">
      <component glyphName="a" x="0" y="0" flags="0x204"/>
      <component glyphName="grave" x="189" y="104" flags="0x4"/>
    </TTGlyph>
    <TTGlyph name="amacron" xMin="9" yMin="-18" xMax="1142" yMax="1471">
      <component glyphName="a" x="0" y="0" flags="0x204"/>
      <component glyphName="macron" x="189" y="104" flags="0x4"/>
    </TTGlyph>
    <TTGlyph name="ampersand" xMin="79" yMin="-30" xMax="1305" yMax="1396">
      <contour>
        <pt x="1052" y="849" on="1"/>
        <pt x="1110" y="849" on="0"/>
        <pt x="1221" y="869" on="0"/>
        <pt x="1264" y="888" on="1"/>
        <pt x="1283" y="865" on="0"/>
        <pt x="1305" y="785" on="0"/>
        <pt x="1305" y="742" on="1"/>
        <pt x="1305" y="662" on="0"/>
        <pt x="1206" y="585" on="0"/>
        <pt x="1116" y="585" on="1"/>
        <pt x="1072" y="585" on="1"/>
        <pt x="1073" y="551" on="0"/>
        <pt x="1074" y="488" on="0"/>
        <pt x="1074" y="463" on="1"/>
        <pt x="1074" y="320" on="1"/>
        <pt x="1074" y="253" on="0"/>
        <pt x="1081" y="71" on="0"/>
        <pt x="1087" y="0" on="1"/>
        <pt x="1060" y="-10" on="0"/>
        <pt x="986" y="-19" on="0"/>
        <pt x="944" y="-19" on="1"/>
        <pt x="905" y="-19" on="0"/>
        <pt x="828" y="-11" on="0"/>
        <pt x="802" y="-4" on="1"/>
        <pt x="781" y="84" on="1"/>
        <pt x="725" y="33" on="0"/>
        <pt x="562" y="-30" on="0"/>
        <pt x="470" y="-30" on="1"/>
        <pt x="342" y="-30" on="0"/>
        <pt x="168" y="77" on="0"/>
        <pt x="79" y="254" on="0"/>
        <pt x="79" y="358" on="1"/>
        <pt x="79" y="453" on="0"/>
        <pt x="150" y="605" on="0"/>
        <pt x="267" y="708" on="0"/>
        <pt x="335" y="730" on="1"/>
        <pt x="248" y="761" on="0"/>
        <pt x="139" y="924" on="0"/>
        <pt x="139" y="1031" on="1"/>
        <pt x="139" y="1194" on="0"/>
        <pt x="375" y="1396" on="0"/>
        <pt x="574" y="1396" on="1"/>
        <pt x="692" y="1396" on="0"/>
        <pt x="916" y="1357" on="0"/>
        <pt x="998" y="1329" on="1"/>
        <pt x="1001" y="1270" on="0"/>
        <pt x="958" y="1138" on="0"/>
        <pt x="918" y="1095" on="1"/>
        <pt x="850" y="1117" on="0"/>
        <pt x="704" y="1150" on="0"/>
        <pt x="629" y="1150" on="1"/>
        <pt x="547" y="1150" on="0"/>
        <pt x="466" y="1067" on="0"/>
        <pt x="466" y="1004" on="1"/>
        <pt x="466" y="849" on="0"/>
        <pt x="664" y="849" on="1"/>
      </contour>
      <contour>
        <pt x="560" y="212" on="1"/>
        <pt x="631" y="212" on="0"/>
        <pt x="735" y="262" on="0"/>
        <pt x="766" y="288" on="1"/>
        <pt x="766" y="463" on="1"/>
        <pt x="766" y="488" on="0"/>
        <pt x="767" y="551" on="0"/>
        <pt x="768" y="585" on="1"/>
        <pt x="641" y="585" on="1"/>
        <pt x="406" y="585" on="0"/>
        <pt x="406" y="388" on="1"/>
        <pt x="406" y="295" on="0"/>
        <pt x="497" y="212" on="0"/>
      </contour>
    </TTGlyph>
    <TTGlyph name="aogonek" xMin="9" yMin="-436" xMax="1220" yMax="1114">
      <contour>
        <pt x="424" y="193" on="1"/>
        <pt x="408" y="193" on="0"/>
        <pt x="378" y="194" on="0"/>
        <pt x="363" y="195" on="1"/>
        <pt x="301" y="0" on="1"/>
        <pt x="272" y="-7" on="0"/>
        <pt x="204" y="-14" on="0"/>
        <pt x="167" y="-14" on="1"/>
        <pt x="127" y="-14" on="0"/>
        <pt x="46" y="-2" on="0"/>
        <pt x="20" y="9" on="1"/>
        <pt x="9" y="26" on="1"/>
        <pt x="398" y="1102" on="1"/>
        <pt x="450" y="1110" on="0"/>
        <pt x="547" y="1114" on="0"/>
        <pt x="587" y="1114" on="1"/>
        <pt x="624" y="1114" on="0"/>
        <pt x="710" y="1110" on="0"/>
        <pt x="764" y="1102" on="1"/>
        <pt x="1142" y="15" on="1"/>
        <pt x="1061" y="-23" on="0"/>
        <pt x="972" y="-120" on="0"/>
        <pt x="972" y="-173" on="1"/>
        <pt x="972" y="-209" on="0"/>
        <pt x="1020" y="-244" on="0"/>
        <pt x="1054" y="-244" on="1"/>
        <pt x="1081" y="-244" on="0"/>
        <pt x="1134" y="-226" on="0"/>
        <pt x="1154" y="-215" on="1"/>
        <pt x="1179" y="-237" on="0"/>
        <pt x="1217" y="-312" on="0"/>
        <pt x="1220" y="-355" on="1"/>
        <pt x="1181" y="-388" on="0"/>
        <pt x="1055" y="-436" on="0"/>
        <pt x="983" y="-436" on="1"/>
        <pt x="878" y="-436" on="0"/>
        <pt x="744" y="-329" on="0"/>
        <pt x="744" y="-237" on="1"/>
        <pt x="744" y="-165" on="0"/>
        <pt x="827" y="-46" on="0"/>
        <pt x="876" y="-4" on="1"/>
        <pt x="846" y="8" on="0"/>
        <pt x="798" y="62" on="0"/>
        <pt x="783" y="114" on="1"/>
        <pt x="758" y="195" on="1"/>
        <pt x="742" y="194" on="0"/>
        <pt x="712" y="193" on="0"/>
        <pt x="695" y="193" on="1"/>
      </contour>
      <contour>
        <pt x="464" y="509" on="1"/>
        <pt x="442" y="440" on="1"/>
        <pt x="457" y="441" on="0"/>
        <pt x="487" y="442" on="0"/>
        <pt x="503" y="442" on="1"/>
        <pt x="628" y="442" on="1"/>
        <pt x="643" y="442" on="0"/>
        <pt x="668" y="441" on="0"/>
        <pt x="681" y="440" on="1"/>
        <pt x="660" y="508" on="1"/>
        <pt x="637" y="587" on="0"/>
        <pt x="591" y="781" on="0"/>
        <pt x="572" y="860" on="1"/>
        <pt x="560" y="860" on="1"/>
        <pt x="539" y="784" on="0"/>
        <pt x="488" y="588" on="0"/>
      </contour>
    </TTGlyph>
    <TTGlyph name="approxequal" xMin="61" yMin="190" xMax="1114" yMax="1007">
      <component glyphName="asciitilde" x="4" y="286" scalex="0.9232" scaley="0.888" flags="0x4"/>
      <component glyphName="asciitilde" x="4" y="-152" scalex="0.9232" scaley="0.888" flags="0x4"/>
    </TTGlyph>
    <TTGlyph name="aring" xMin="9" yMin="-18" xMax="1142" yMax="1702">
      <component glyphName="a" x="0" y="0" flags="0x204"/>
      <component glyphName="ring" x="189" y="104" flags="0x4"/>
    </TTGlyph>
    <TTGlyph name="asciicircum" xMin="56" yMin="598" xMax="1004" yMax="1310">
      <contour>
        <pt x="1004" y="612" on="1"/>
        <pt x="943" y="598" on="0"/>
        <pt x="851" y="598" on="1"/>
        <pt x="810" y="598" on="0"/>
        <pt x="735" y="605" on="0"/>
        <pt x="707" y="612" on="1"/>
        <pt x="611" y="850" on="1"/>
        <pt x="603" y="871" on="0"/>
        <pt x="574" y="956" on="0"/>
        <pt x="545" y="1042" on="0"/>
        <pt x="538" y="1064" on="1"/>
        <pt x="522" y="1064" on="1"/>
        <pt x="515" y="1042" on="0"/>
        <pt x="486" y="956" on="0"/>
        <pt x="457" y="871" on="0"/>
        <pt x="449" y="850" on="1"/>
        <pt x="353" y="612" on="1"/>
        <pt x="325" y="605" on="0"/>
        <pt x="250" y="598" on="0"/>
        <pt x="209" y="598" on="1"/>
        <pt x="117" y="598" on="0"/>
        <pt x="56" y="612" on="1"/>
        <pt x="364" y="1296" on="1"/>
        <pt x="390" y="1303" on="0"/>
        <pt x="483" y="1310" on="0"/>
        <pt x="534" y="1310" on="1"/>
        <pt x="582" y="1310" on="0"/>
        <pt x="670" y="1303" on="0"/>
        <pt x="696" y="1296" on="1"/>
      </contour>
    </TTGlyph>
    <TTGlyph name="asciitilde" xMin="62" yMin="385" xMax="1202" yMax="812">
      <contour>
        <pt x="769" y="694" on="1"/>
        <pt x="821" y="672" on="0"/>
        <pt x="857" y="672" on="1"/>
        <pt x="918" y="672" on="0"/>
        <pt x="967" y="726" on="1"/>
        <pt x="1017" y="778" on="1"/>
        <pt x="1065" y="774" on="0"/>
        <pt x="1180" y="711" on="0"/>
        <pt x="1202" y="658" on="1"/>
        <pt x="1162" y="591" on="1"/>
        <pt x="1107" y="498" on="0"/>
        <pt x="944" y="385" on="0"/>
        <pt x="841" y="385" on="1"/>
        <pt x="757" y="385" on="0"/>
        <pt x="662" y="427" on="1"/>
        <pt x="495" y="502" on="1"/>
        <pt x="444" y="525" on="0"/>
        <pt x="407" y="525" on="1"/>
        <pt x="347" y="525" on="0"/>
        <pt x="298" y="471" on="1"/>
        <pt x="247" y="418" on="1"/>
        <pt x="200" y="423" on="0"/>
        <pt x="85" y="486" on="0"/>
        <pt x="62" y="539" on="1"/>
        <pt x="102" y="606" on="1"/>
        <pt x="158" y="699" on="0"/>
        <pt x="321" y="812" on="0"/>
        <pt x="424" y="812" on="1"/>
        <pt x="507" y="812" on="0"/>
        <pt x="603" y="770" on="1"/>
      </contour>
    </TTGlyph>
    <TTGlyph name="asterisk" xMin="69" yMin="607" xMax="971" yMax="1480">
      <contour>
        <pt x="368" y="609" on="1"/>
        <pt x="338" y="616" on="0"/>
        <pt x="255" y="665" on="0"/>
        <pt x="182" y="728" on="0"/>
        <pt x="166" y="755" on="1"/>
        <pt x="247" y="856" on="1"/>
        <pt x="278" y="894" on="0"/>
        <pt x="362" y="961" on="0"/>
        <pt x="405" y="993" on="1"/>
        <pt x="351" y="993" on="0"/>
        <pt x="245" y="999" on="0"/>
        <pt x="198" y="1011" on="1"/>
        <pt x="72" y="1043" on="1"/>
        <pt x="69" y="1074" on="0"/>
        <pt x="91" y="1168" on="0"/>
        <pt x="129" y="1258" on="0"/>
        <pt x="150" y="1282" on="1"/>
        <pt x="269" y="1235" on="1"/>
        <pt x="315" y="1218" on="0"/>
        <pt x="406" y="1159" on="0"/>
        <pt x="449" y="1127" on="1"/>
        <pt x="433" y="1178" on="0"/>
        <pt x="405" y="1282" on="0"/>
        <pt x="402" y="1331" on="1"/>
        <pt x="395" y="1460" on="1"/>
        <pt x="423" y="1472" on="0"/>
        <pt x="519" y="1480" on="0"/>
        <pt x="616" y="1472" on="0"/>
        <pt x="645" y="1460" on="1"/>
        <pt x="638" y="1331" on="1"/>
        <pt x="635" y="1282" on="0"/>
        <pt x="607" y="1178" on="0"/>
        <pt x="590" y="1127" on="1"/>
        <pt x="634" y="1158" on="0"/>
        <pt x="724" y="1213" on="0"/>
        <pt x="770" y="1232" on="1"/>
        <pt x="890" y="1280" on="1"/>
        <pt x="910" y="1257" on="0"/>
        <pt x="947" y="1169" on="0"/>
        <pt x="971" y="1075" on="0"/>
        <pt x="969" y="1043" on="1"/>
        <pt x="842" y="1009" on="1"/>
        <pt x="795" y="997" on="0"/>
        <pt x="688" y="992" on="0"/>
        <pt x="635" y="992" on="1"/>
        <pt x="678" y="961" on="0"/>
        <pt x="759" y="892" on="0"/>
        <pt x="790" y="854" on="1"/>
        <pt x="872" y="755" on="1"/>
        <pt x="856" y="729" on="0"/>
        <pt x="785" y="666" on="0"/>
        <pt x="703" y="615" on="0"/>
        <pt x="672" y="607" on="1"/>
        <pt x="601" y="717" on="1"/>
        <pt x="574" y="758" on="0"/>
        <pt x="536" y="857" on="0"/>
        <pt x="520" y="908" on="1"/>
        <pt x="503" y="858" on="0"/>
        <pt x="463" y="760" on="0"/>
        <pt x="437" y="718" on="1"/>
      </contour>
    </TTGlyph>
    <TTGlyph name="at" xMin="77" yMin="-406" xMax="1896" yMax="1372">
      <contour>
        <pt x="1391" y="328" on="1"/>
        <pt x="1391" y="274" on="0"/>
        <pt x="1419" y="227" on="0"/>
        <pt x="1452" y="227" on="1"/>
        <pt x="1490" y="227" on="0"/>
        <pt x="1552" y="295" on="0"/>
        <pt x="1589" y="458" on="0"/>
        <pt x="1589" y="600" on="1"/>
        <pt x="1589" y="769" on="0"/>
        <pt x="1446" y="1012" on="0"/>
        <pt x="1186" y="1142" on="0"/>
        <pt x="1012" y="1142" on="1"/>
        <pt x="823" y="1142" on="0"/>
        <pt x="543" y="964" on="0"/>
        <pt x="388" y="648" on="0"/>
        <pt x="388" y="443" on="1"/>
        <pt x="388" y="131" on="0"/>
        <pt x="688" y="-169" on="0"/>
        <pt x="946" y="-169" on="1"/>
        <pt x="1047" y="-169" on="0"/>
        <pt x="1244" y="-129" on="0"/>
        <pt x="1338" y="-93" on="1"/>
        <pt x="1377" y="-136" on="0"/>
        <pt x="1415" y="-255" on="0"/>
        <pt x="1415" y="-305" on="1"/>
        <pt x="1352" y="-333" on="0"/>
        <pt x="1184" y="-379" on="0"/>
        <pt x="1004" y="-406" on="0"/>
        <pt x="922" y="-406" on="1"/>
        <pt x="675" y="-406" on="0"/>
        <pt x="294" y="-226" on="0"/>
        <pt x="77" y="150" on="0"/>
        <pt x="77" y="443" on="1"/>
        <pt x="77" y="647" on="0"/>
        <pt x="217" y="987" on="0"/>
        <pt x="469" y="1236" on="0"/>
        <pt x="810" y="1372" on="0"/>
        <pt x="1012" y="1372" on="1"/>
        <pt x="1200" y="1372" on="0"/>
        <pt x="1522" y="1269" on="0"/>
        <pt x="1762" y="1069" on="0"/>
        <pt x="1896" y="779" on="0"/>
        <pt x="1896" y="592" on="1"/>
        <pt x="1896" y="384" on="0"/>
        <pt x="1763" y="123" on="0"/>
        <pt x="1559" y="1" on="0"/>
        <pt x="1451" y="1" on="1"/>
        <pt x="1363" y="1" on="0"/>
        <pt x="1221" y="65" on="0"/>
        <pt x="1175" y="119" on="1"/>
        <pt x="1121" y="67" on="0"/>
        <pt x="978" y="-6" on="0"/>
        <pt x="902" y="-6" on="1"/>
        <pt x="794" y="-6" on="0"/>
        <pt x="648" y="112" on="0"/>
        <pt x="575" y="319" on="0"/>
        <pt x="575" y="454" on="1"/>
        <pt x="575" y="607" on="0"/>
        <pt x="674" y="841" on="0"/>
        <pt x="867" y="973" on="0"/>
        <pt x="1006" y="973" on="1"/>
        <pt x="1123" y="973" on="0"/>
        <pt x="1333" y="881" on="0"/>
        <pt x="1391" y="822" on="1"/>
      </contour>
      <contour>
        <pt x="873" y="469" on="1"/>
        <pt x="873" y="343" on="0"/>
        <pt x="916" y="226" on="0"/>
        <pt x="974" y="226" on="1"/>
        <pt x="1006" y="226" on="0"/>
        <pt x="1074" y="264" on="0"/>
        <pt x="1103" y="294" on="1"/>
        <pt x="1102" y="306" on="0"/>
        <pt x="1102" y="319" on="1"/>
        <pt x="1102" y="722" on="1"/>
        <pt x="1060" y="756" on="0"/>
        <pt x="1006" y="756" on="1"/>
        <pt x="951" y="756" on="0"/>
        <pt x="894" y="678" on="0"/>
        <pt x="873" y="547" on="0"/>
      </contour>
    </TTGlyph>
    <TTGlyph name="atilde" xMin="9" yMin="-18" xMax="1142" yMax="1546">
      <component glyphName="a" x="0" y="0" flags="0x204"/>
      <component glyphName="tilde" x="189" y="104" flags="0x4"/>
    </TTGlyph>
    <TTGlyph name="b" xMin="144" yMin="-8" xMax="1062" yMax="1112">
      <contour>
        <pt x="155" y="1104" on="1"/>
        <pt x="207" y="1106" on="0"/>
        <pt x="354" y="1110" on="0"/>
        <pt x="509" y="1112" on="0"/>
        <pt x="574" y="1112" on="1"/>
        <pt x="698" y="1112" on="0"/>
        <pt x="892" y="1056" on="0"/>
        <pt x="1004" y="927" on="0"/>
        <pt x="1004" y="819" on="1"/>
        <pt x="1004" y="749" on="0"/>
        <pt x="927" y="623" on="0"/>
        <pt x="860" y="597" on="1"/>
        <pt x="946" y="570" on="0"/>
        <pt x="1062" y="413" on="0"/>
        <pt x="1062" y="322" on="1"/>
        <pt x="1062" y="194" on="0"/>
        <pt x="943" y="51" on="0"/>
        <pt x="734" y="-8" on="0"/>
        <pt x="600" y="-8" on="1"/>
        <pt x="497" y="-8" on="0"/>
        <pt x="276" y="-5" on="0"/>
        <pt x="155" y="-2" on="1"/>
        <pt x="144" y="8" on="1"/>
        <pt x="144" y="1092" on="1"/>
      </contour>
      <contour>
        <pt x="560" y="897" on="1"/>
        <pt x="541" y="897" on="0"/>
        <pt x="478" y="897" on="0"/>
        <pt x="449" y="899" on="1"/>
        <pt x="449" y="684" on="1"/>
        <pt x="558" y="684" on="1"/>
        <pt x="638" y="684" on="0"/>
        <pt x="696" y="750" on="0"/>
        <pt x="696" y="791" on="1"/>
        <pt x="696" y="831" on="0"/>
        <pt x="639" y="897" on="0"/>
      </contour>
      <contour>
        <pt x="449" y="207" on="1"/>
        <pt x="489" y="209" on="0"/>
        <pt x="564" y="209" on="0"/>
        <pt x="595" y="209" on="1"/>
        <pt x="686" y="209" on="0"/>
        <pt x="745" y="292" on="0"/>
        <pt x="745" y="336" on="1"/>
        <pt x="745" y="384" on="0"/>
        <pt x="674" y="468" on="0"/>
        <pt x="579" y="468" on="1"/>
        <pt x="449" y="468" on="1"/>
      </contour>
    </TTGlyph>
    <TTGlyph name="backslash" xMin="6" yMin="-239" xMax="900" yMax="1536">
      <contour>
        <pt x="634" y="-239" on="1"/>
        <pt x="6" y="1435" on="1"/>
        <pt x="63" y="1479" on="0"/>
        <pt x="203" y="1528" on="0"/>
        <pt x="272" y="1536" on="1"/>
        <pt x="900" y="-138" on="1"/>
        <pt x="843" y="-183" on="0"/>
        <pt x="703" y="-231" on="0"/>
      </contour>
    </TTGlyph>
    <TTGlyph name="bar" xMin="125" yMin="-297" xMax="415" yMax="1560">
      <contour>
        <pt x="125" y="1546" on="1"/>
        <pt x="159" y="1555" on="0"/>
        <pt x="249" y="1560" on="0"/>
        <pt x="273" y="1560" on="1"/>
        <pt x="301" y="1560" on="0"/>
        <pt x="379" y="1555" on="0"/>
        <pt x="415" y="1546" on="1"/>
        <pt x="415" y="-284" on="1"/>
        <pt x="379" y="-292" on="0"/>
        <pt x="301" y="-297" on="0"/>
        <pt x="273" y="-297" on="1"/>
        <pt x="249" y="-297" on="0"/>
        <pt x="159" y="-292" on="0"/>
        <pt x="125" y="-284" on="1"/>
      </contour>
    </TTGlyph>
    <TTGlyph name="braceleft" xMin="75" yMin="-361" xMax="779" yMax="1671">
      <contour>
        <pt x="89" y="755" on="1"/>
        <pt x="164" y="768" on="0"/>
        <pt x="259" y="895" on="0"/>
        <pt x="259" y="973" on="1"/>
        <pt x="259" y="1294" on="1"/>
        <pt x="259" y="1451" on="0"/>
        <pt x="441" y="1628" on="0"/>
        <pt x="581" y="1650" on="1"/>
        <pt x="715" y="1671" on="1"/>
        <pt x="736" y="1648" on="0"/>
        <pt x="767" y="1571" on="0"/>
        <pt x="779" y="1493" on="0"/>
        <pt x="774" y="1470" on="1"/>
        <pt x="653" y="1429" on="1"/>
        <pt x="622" y="1419" on="0"/>
        <pt x="572" y="1349" on="0"/>
        <pt x="572" y="1292" on="1"/>
        <pt x="572" y="977" on="1"/>
        <pt x="572" y="875" on="0"/>
        <pt x="476" y="698" on="0"/>
        <pt x="395" y="663" on="1"/>
        <pt x="395" y="647" on="1"/>
        <pt x="476" y="613" on="0"/>
        <pt x="572" y="436" on="0"/>
        <pt x="572" y="333" on="1"/>
        <pt x="572" y="19" on="1"/>
        <pt x="572" y="-39" on="0"/>
        <pt x="622" y="-108" on="0"/>
        <pt x="653" y="-118" on="1"/>
        <pt x="774" y="-159" on="1"/>
        <pt x="779" y="-183" on="0"/>
        <pt x="767" y="-260" on="0"/>
        <pt x="736" y="-338" on="0"/>
        <pt x="715" y="-361" on="1"/>
        <pt x="581" y="-339" on="1"/>
        <pt x="441" y="-317" on="0"/>
        <pt x="259" y="-141" on="0"/>
        <pt x="259" y="17" on="1"/>
        <pt x="259" y="337" on="1"/>
        <pt x="259" y="415" on="0"/>
        <pt x="164" y="543" on="0"/>
        <pt x="89" y="556" on="1"/>
        <pt x="75" y="593" on="0"/>
        <pt x="75" y="718" on="0"/>
      </contour>
    </TTGlyph>
    <TTGlyph name="braceright" xMin="18" yMin="-361" xMax="722" yMax="1671">
      <contour>
        <pt x="708" y="755" on="1"/>
        <pt x="722" y="718" on="0"/>
        <pt x="722" y="593" on="0"/>
        <pt x="708" y="556" on="1"/>
        <pt x="633" y="543" on="0"/>
        <pt x="539" y="415" on="0"/>
        <pt x="539" y="337" on="1"/>
        <pt x="539" y="17" on="1"/>
        <pt x="539" y="-141" on="0"/>
        <pt x="356" y="-317" on="0"/>
        <pt x="216" y="-339" on="1"/>
        <pt x="82" y="-361" on="1"/>
        <pt x="61" y="-338" on="0"/>
        <pt x="31" y="-260" on="0"/>
        <pt x="18" y="-183" on="0"/>
        <pt x="24" y="-159" on="1"/>
        <pt x="144" y="-118" on="1"/>
        <pt x="175" y="-108" on="0"/>
        <pt x="225" y="-39" on="0"/>
        <pt x="225" y="19" on="1"/>
        <pt x="225" y="333" on="1"/>
        <pt x="225" y="436" on="0"/>
        <pt x="321" y="613" on="0"/>
        <pt x="402" y="647" on="1"/>
        <pt x="402" y="663" on="1"/>
        <pt x="321" y="698" on="0"/>
        <pt x="225" y="875" on="0"/>
        <pt x="225" y="977" on="1"/>
        <pt x="225" y="1292" on="1"/>
        <pt x="225" y="1349" on="0"/>
        <pt x="175" y="1419" on="0"/>
        <pt x="144" y="1429" on="1"/>
        <pt x="24" y="1470" on="1"/>
        <pt x="18" y="1493" on="0"/>
        <pt x="31" y="1571" on="0"/>
        <pt x="61" y="1648" on="0"/>
        <pt x="82" y="1671" on="1"/>
        <pt x="216" y="1650" on="1"/>
        <pt x="356" y="1628" on="0"/>
        <pt x="539" y="1451" on="0"/>
        <pt x="539" y="1294" on="1"/>
        <pt x="539" y="973" on="1"/>
        <pt x="539" y="895" on="0"/>
        <pt x="633" y="768" on="0"/>
      </contour>
    </TTGlyph>
    <TTGlyph name="bracketleft" xMin="196" yMin="-328" xMax="724" yMax="1656">
      <contour>
        <pt x="214" y="-328" on="1"/>
        <pt x="196" y="-312" on="1"/>
        <pt x="196" y="1641" on="1"/>
        <pt x="214" y="1656" on="1"/>
        <pt x="713" y="1639" on="1"/>
        <pt x="718" y="1624" on="0"/>
        <pt x="724" y="1570" on="0"/>
        <pt x="724" y="1552" on="1"/>
        <pt x="724" y="1515" on="0"/>
        <pt x="708" y="1443" on="0"/>
        <pt x="701" y="1426" on="1"/>
        <pt x="500" y="1420" on="1"/>
        <pt x="500" y="-92" on="1"/>
        <pt x="701" y="-97" on="1"/>
        <pt x="708" y="-115" on="0"/>
        <pt x="724" y="-187" on="0"/>
        <pt x="724" y="-224" on="1"/>
        <pt x="724" y="-241" on="0"/>
        <pt x="718" y="-295" on="0"/>
        <pt x="713" y="-310" on="1"/>
      </contour>
    </TTGlyph>
    <TTGlyph name="bracketright" xMin="66" yMin="-328" xMax="593" yMax="1656">
      <contour>
        <pt x="576" y="-328" on="1"/>
        <pt x="77" y="-310" on="1"/>
        <pt x="71" y="-295" on="0"/>
        <pt x="66" y="-241" on="0"/>
        <pt x="66" y="-224" on="1"/>
        <pt x="66" y="-187" on="0"/>
        <pt x="81" y="-115" on="0"/>
        <pt x="89" y="-97" on="1"/>
        <pt x="289" y="-92" on="1"/>
        <pt x="289" y="1420" on="1"/>
        <pt x="89" y="1426" on="1"/>
        <pt x="81" y="1443" on="0"/>
        <pt x="66" y="1515" on="0"/>
        <pt x="66" y="1552" on="1"/>
        <pt x="66" y="1570" on="0"/>
        <pt x="71" y="1624" on="0"/>
        <pt x="77" y="1639" on="1"/>
        <pt x="576" y="1656" on="1"/>
        <pt x="593" y="1641" on="1"/>
        <pt x="593" y="-312" on="1"/>
      </contour>
    </TTGlyph>
    <TTGlyph name="breve" xMin="54" yMin="1104" xMax="742" yMax="1452">
      <contour>
        <pt x="742" y="1382" on="1"/>
        <pt x="716" y="1263" on="0"/>
        <pt x="532" y="1104" on="0"/>
        <pt x="398" y="1104" on="1"/>
        <pt x="264" y="1104" on="0"/>
        <pt x="80" y="1263" on="0"/>
        <pt x="54" y="1382" on="1"/>
        <pt x="80" y="1415" on="0"/>
        <pt x="170" y="1452" on="0"/>
        <pt x="217" y="1449" on="1"/>
        <pt x="240" y="1391" on="0"/>
        <pt x="332" y="1324" on="0"/>
        <pt x="398" y="1324" on="1"/>
        <pt x="464" y="1324" on="0"/>
        <pt x="556" y="1391" on="0"/>
        <pt x="579" y="1449" on="1"/>
        <pt x="626" y="1452" on="0"/>
        <pt x="716" y="1415" on="0"/>
      </contour>
    </TTGlyph>
    <TTGlyph name="brokenbar" xMin="121" yMin="-297" xMax="407" yMax="1560">
      <contour>
        <pt x="121" y="1546" on="1"/>
        <pt x="155" y="1555" on="0"/>
        <pt x="243" y="1560" on="0"/>
        <pt x="267" y="1560" on="1"/>
        <pt x="295" y="1560" on="0"/>
        <pt x="372" y="1555" on="0"/>
        <pt x="407" y="1546" on="1"/>
        <pt x="407" y="772" on="1"/>
        <pt x="372" y="764" on="0"/>
        <pt x="295" y="759" on="0"/>
        <pt x="267" y="759" on="1"/>
        <pt x="243" y="759" on="0"/>
        <pt x="155" y="764" on="0"/>
        <pt x="121" y="772" on="1"/>
      </contour>
      <contour>
        <pt x="121" y="490" on="1"/>
        <pt x="155" y="499" on="0"/>
        <pt x="243" y="504" on="0"/>
        <pt x="267" y="504" on="1"/>
        <pt x="295" y="504" on="0"/>
        <pt x="372" y="499" on="0"/>
        <pt x="407" y="490" on="1"/>
        <pt x="407" y="-284" on="1"/>
        <pt x="372" y="-292" on="0"/>
        <pt x="295" y="-297" on="0"/>
        <pt x="267" y="-297" on="1"/>
        <pt x="243" y="-297" on="0"/>
        <pt x="155" y="-292" on="0"/>
        <pt x="121" y="-284" on="1"/>
      </contour>
    </TTGlyph>
    <TTGlyph name="bullet" xMin="190" yMin="281" xMax="737" yMax="793">
      <component glyphName="period" x="29" y="315" scalex="1.516" scaley="1.6252" flags="0x4"/>
    </TTGlyph>
    <TTGlyph name="c" xMin="63" yMin="-30" xMax="1050" yMax="1132">
      <contour>
        <pt x="754" y="603" on="1"/>
        <pt x="754" y="730" on="0"/>
        <pt x="686" y="885" on="0"/>
        <pt x="583" y="885" on="1"/>
        <pt x="476" y="885" on="0"/>
        <pt x="386" y="709" on="0"/>
        <pt x="386" y="544" on="1"/>
        <pt x="386" y="418" on="0"/>
        <pt x="451" y="283" on="0"/>
        <pt x="553" y="231" on="0"/>
        <pt x="610" y="231" on="1"/>
        <pt x="684" y="231" on="0"/>
        <pt x="833" y="296" on="0"/>
        <pt x="892" y="340" on="1"/>
        <pt x="924" y="324" on="0"/>
        <pt x="984" y="254" on="0"/>
        <pt x="1028" y="174" on="0"/>
        <pt x="1034" y="141" on="1"/>
        <pt x="951" y="70" on="0"/>
        <pt x="714" y="-30" on="0"/>
        <pt x="563" y="-30" on="1"/>
        <pt x="418" y="-30" on="0"/>
        <pt x="225" y="72" on="0"/>
        <pt x="111" y="239" on="0"/>
        <pt x="63" y="443" on="0"/>
        <pt x="63" y="546" on="1"/>
        <pt x="63" y="751" on="0"/>
        <pt x="212" y="1010" on="0"/>
        <pt x="455" y="1132" on="0"/>
        <pt x="594" y="1132" on="1"/>
        <pt x="750" y="1132" on="0"/>
        <pt x="952" y="1022" on="0"/>
        <pt x="1050" y="854" on="0"/>
        <pt x="1050" y="765" on="1"/>
        <pt x="1050" y="594" on="0"/>
        <pt x="858" y="594" on="1"/>
        <pt x="835" y="594" on="0"/>
        <pt x="781" y="600" on="0"/>
      </contour>
    </TTGlyph>
    <TTGlyph name="cacute" xMin="63" yMin="-30" xMax="1050" yMax="1643">
      <component glyphName="c" x="0" y="0" flags="0x204"/>
      <component glyphName="acute" x="199" y="104" flags="0x4"/>
    </TTGlyph>
    <TTGlyph name="caron" xMin="81" yMin="1108" xMax="716" yMax="1501">
      <contour>
        <pt x="264" y="1124" on="1"/>
        <pt x="81" y="1374" on="1"/>
        <pt x="99" y="1422" on="0"/>
        <pt x="185" y="1490" on="0"/>
        <pt x="215" y="1501" on="1"/>
        <pt x="398" y="1328" on="1"/>
        <pt x="581" y="1501" on="1"/>
        <pt x="611" y="1490" on="0"/>
        <pt x="697" y="1422" on="0"/>
        <pt x="716" y="1374" on="1"/>
        <pt x="532" y="1124" on="1"/>
        <pt x="505" y="1117" on="0"/>
        <pt x="435" y="1108" on="0"/>
        <pt x="398" y="1108" on="1"/>
        <pt x="361" y="1108" on="0"/>
        <pt x="291" y="1117" on="0"/>
      </contour>
    </TTGlyph>
    <TTGlyph name="ccaron" xMin="63" yMin="-30" xMax="1050" yMax="1605">
      <component glyphName="c" x="0" y="0" flags="0x204"/>
      <component glyphName="caron" x="196" y="104" flags="0x4"/>
    </TTGlyph>
    <TTGlyph name="ccedilla" xMin="63" yMin="-464" xMax="1050" yMax="1132">
      <component glyphName="c" x="0" y="0" flags="0x204"/>
      <component glyphName="cedilla" x="189" y="0" flags="0x4"/>
    </TTGlyph>
    <TTGlyph name="ccircumflex" xMin="63" yMin="-30" xMax="1050" yMax="1600">
      <component glyphName="c" x="0" y="0" flags="0x204"/>
      <component glyphName="circumflex" x="196" y="104" flags="0x4"/>
    </TTGlyph>
    <TTGlyph name="cdotaccent" xMin="63" yMin="-30" xMax="1050" yMax="1536">
      <component glyphName="c" x="0" y="0" flags="0x204"/>
      <component glyphName="dotaccent" x="196" y="104" flags="0x4"/>
    </TTGlyph>
    <TTGlyph name="cedilla" xMin="203" yMin="-464" xMax="654" yMax="0">
      <contour>
        <pt x="269" y="-155" on="1"/>
        <pt x="277" y="-123" on="0"/>
        <pt x="308" y="-31" on="0"/>
        <pt x="321" y="0" on="1"/>
        <pt x="483" y="0" on="1"/>
        <pt x="475" y="-14" on="0"/>
        <pt x="458" y="-48" on="0"/>
        <pt x="452" y="-63" on="1"/>
        <pt x="546" y="-68" on="0"/>
        <pt x="654" y="-170" on="0"/>
        <pt x="654" y="-241" on="1"/>
        <pt x="654" y="-340" on="0"/>
        <pt x="499" y="-464" on="0"/>
        <pt x="375" y="-464" on="1"/>
        <pt x="326" y="-464" on="0"/>
        <pt x="230" y="-436" on="0"/>
        <pt x="203" y="-417" on="1"/>
        <pt x="205" y="-383" on="0"/>
        <pt x="231" y="-308" on="0"/>
        <pt x="254" y="-283" on="1"/>
        <pt x="271" y="-293" on="0"/>
        <pt x="320" y="-309" on="0"/>
        <pt x="347" y="-309" on="1"/>
        <pt x="419" y="-309" on="0"/>
        <pt x="419" y="-252" on="1"/>
        <pt x="419" y="-226" on="0"/>
        <pt x="383" y="-192" on="0"/>
        <pt x="355" y="-192" on="1"/>
        <pt x="343" y="-192" on="0"/>
        <pt x="323" y="-197" on="0"/>
        <pt x="314" y="-200" on="1"/>
        <pt x="283" y="-186" on="0"/>
      </contour>
    </TTGlyph>
    <TTGlyph name="cent" xMin="51" yMin="-73" xMax="878" yMax="1373">
      <contour>
        <pt x="600" y="708" on="1"/>
        <pt x="600" y="769" on="0"/>
        <pt x="584" y="878" on="0"/>
        <pt x="534" y="947" on="0"/>
        <pt x="484" y="947" on="1"/>
        <pt x="417" y="947" on="0"/>
        <pt x="368" y="801" on="0"/>
        <pt x="368" y="648" on="1"/>
        <pt x="368" y="487" on="0"/>
        <pt x="463" y="367" on="0"/>
        <pt x="543" y="367" on="1"/>
        <pt x="598" y="367" on="0"/>
        <pt x="709" y="417" on="0"/>
        <pt x="757" y="450" on="1"/>
        <pt x="792" y="424" on="0"/>
        <pt x="861" y="325" on="0"/>
        <pt x="871" y="279" on="1"/>
        <pt x="825" y="227" on="0"/>
        <pt x="676" y="147" on="0"/>
        <pt x="593" y="130" on="1"/>
        <pt x="593" y="-66" on="1"/>
        <pt x="570" y="-71" on="0"/>
        <pt x="499" y="-73" on="0"/>
        <pt x="482" y="-73" on="1"/>
        <pt x="464" y="-73" on="0"/>
        <pt x="391" y="-71" on="0"/>
        <pt x="370" y="-66" on="1"/>
        <pt x="370" y="133" on="1"/>
        <pt x="245" y="162" on="0"/>
        <pt x="107" y="322" on="0"/>
        <pt x="51" y="537" on="0"/>
        <pt x="51" y="648" on="1"/>
        <pt x="51" y="806" on="0"/>
        <pt x="141" y="1018" on="0"/>
        <pt x="289" y="1141" on="0"/>
        <pt x="376" y="1164" on="1"/>
        <pt x="376" y="1364" on="1"/>
        <pt x="397" y="1369" on="0"/>
        <pt x="470" y="1373" on="0"/>
        <pt x="488" y="1373" on="1"/>
        <pt x="505" y="1373" on="0"/>
        <pt x="576" y="1369" on="0"/>
        <pt x="599" y="1364" on="1"/>
        <pt x="599" y="1169" on="1"/>
        <pt x="726" y="1142" on="0"/>
        <pt x="878" y="976" on="0"/>
        <pt x="878" y="864" on="1"/>
        <pt x="878" y="774" on="0"/>
        <pt x="791" y="695" on="0"/>
        <pt x="712" y="695" on="1"/>
        <pt x="688" y="695" on="0"/>
        <pt x="625" y="701" on="0"/>
      </contour>
    </TTGlyph>
    <TTGlyph name="circumflex" xMin="90" yMin="1103" xMax="725" yMax="1496">
      <contour>
        <pt x="541" y="1480" on="1"/>
        <pt x="725" y="1229" on="1"/>
        <pt x="706" y="1182" on="0"/>
        <pt x="621" y="1114" on="0"/>
        <pt x="590" y="1103" on="1"/>
        <pt x="407" y="1276" on="1"/>
        <pt x="225" y="1103" on="1"/>
        <pt x="194" y="1114" on="0"/>
        <pt x="109" y="1182" on="0"/>
        <pt x="90" y="1229" on="1"/>
        <pt x="273" y="1480" on="1"/>
        <pt x="300" y="1487" on="0"/>
        <pt x="370" y="1496" on="0"/>
        <pt x="407" y="1496" on="1"/>
        <pt x="444" y="1496" on="0"/>
        <pt x="514" y="1487" on="0"/>
      </contour>
    </TTGlyph>
    <TTGlyph name="colon" xMin="114" yMin="-21" xMax="475" yMax="912">
      <component glyphName="period" x="8" y="0" flags="0x4"/>
      <component glyphName="period" x="8" y="618" flags="0x4"/>
    </TTGlyph>
    <TTGlyph name="comma" xMin="39" yMin="-361" xMax="476" yMax="292">
      <contour>
        <pt x="450" y="255" on="1"/>
        <pt x="465" y="215" on="0"/>
        <pt x="476" y="140" on="0"/>
        <pt x="476" y="97" on="1"/>
        <pt x="476" y="2" on="0"/>
        <pt x="395" y="-180" on="0"/>
        <pt x="237" y="-324" on="0"/>
        <pt x="118" y="-361" on="1"/>
        <pt x="78" y="-340" on="0"/>
        <pt x="39" y="-258" on="0"/>
        <pt x="43" y="-216" on="1"/>
        <pt x="114" y="-192" on="0"/>
        <pt x="219" y="-86" on="0"/>
        <pt x="230" y="-16" on="1"/>
        <pt x="206" y="-12" on="0"/>
        <pt x="158" y="4" on="0"/>
        <pt x="143" y="15" on="1"/>
        <pt x="133" y="34" on="0"/>
        <pt x="120" y="103" on="0"/>
        <pt x="120" y="132" on="1"/>
        <pt x="120" y="162" on="0"/>
        <pt x="133" y="237" on="0"/>
        <pt x="143" y="255" on="1"/>
        <pt x="170" y="271" on="0"/>
        <pt x="258" y="292" on="0"/>
        <pt x="297" y="292" on="1"/>
        <pt x="336" y="292" on="0"/>
        <pt x="424" y="271" on="0"/>
      </contour>
    </TTGlyph>
    <TTGlyph name="copyright" xMin="63" yMin="-43" xMax="1515" yMax="1409">
      <contour>
        <pt x="63" y="682" on="1"/>
        <pt x="63" y="836" on="0"/>
        <pt x="173" y="1100" on="0"/>
        <pt x="370" y="1298" on="0"/>
        <pt x="634" y="1409" on="0"/>
        <pt x="788" y="1409" on="1"/>
        <pt x="942" y="1409" on="0"/>
        <pt x="1206" y="1298" on="0"/>
        <pt x="1404" y="1100" on="0"/>
        <pt x="1515" y="836" on="0"/>
        <pt x="1515" y="682" on="1"/>
        <pt x="1515" y="528" on="0"/>
        <pt x="1404" y="264" on="0"/>
        <pt x="1206" y="67" on="0"/>
        <pt x="942" y="-43" on="0"/>
        <pt x="788" y="-43" on="1"/>
        <pt x="634" y="-43" on="0"/>
        <pt x="370" y="67" on="0"/>
        <pt x="173" y="264" on="0"/>
        <pt x="63" y="528" on="0"/>
      </contour>
      <contour>
        <pt x="296" y="682" on="1"/>
        <pt x="296" y="537" on="0"/>
        <pt x="421" y="301" on="0"/>
        <pt x="643" y="162" on="0"/>
        <pt x="788" y="162" on="1"/>
        <pt x="933" y="162" on="0"/>
        <pt x="1156" y="301" on="0"/>
        <pt x="1282" y="537" on="0"/>
        <pt x="1282" y="682" on="1"/>
        <pt x="1282" y="827" on="0"/>
        <pt x="1156" y="1064" on="0"/>
        <pt x="933" y="1204" on="0"/>
        <pt x="788" y="1204" on="1"/>
        <pt x="643" y="1204" on="0"/>
        <pt x="421" y="1064" on="0"/>
        <pt x="296" y="827" on="0"/>
      </contour>
      <contour>
        <pt x="876" y="728" on="1"/>
        <pt x="876" y="792" on="0"/>
        <pt x="842" y="899" on="0"/>
        <pt x="784" y="899" on="1"/>
        <pt x="685" y="899" on="0"/>
        <pt x="685" y="684" on="1"/>
        <pt x="685" y="482" on="0"/>
        <pt x="833" y="482" on="1"/>
        <pt x="869" y="482" on="0"/>
        <pt x="955" y="521" on="0"/>
        <pt x="996" y="544" on="1"/>
        <pt x="1025" y="524" on="0"/>
        <pt x="1074" y="444" on="0"/>
        <pt x="1078" y="408" on="1"/>
        <pt x="1033" y="361" on="0"/>
        <pt x="866" y="297" on="0"/>
        <pt x="793" y="297" on="1"/>
        <pt x="658" y="297" on="0"/>
        <pt x="507" y="412" on="0"/>
        <pt x="445" y="589" on="0"/>
        <pt x="445" y="684" on="1"/>
        <pt x="445" y="826" on="0"/>
        <pt x="551" y="996" on="0"/>
        <pt x="711" y="1071" on="0"/>
        <pt x="794" y="1071" on="1"/>
        <pt x="921" y="1071" on="0"/>
        <pt x="1090" y="938" on="0"/>
        <pt x="1090" y="839" on="1"/>
        <pt x="1090" y="717" on="0"/>
        <pt x="961" y="717" on="1"/>
        <pt x="941" y="717" on="0"/>
        <pt x="891" y="723" on="0"/>
      </contour>
    </TTGlyph>
    <TTGlyph name="currency" xMin="45" yMin="120" xMax="1137" yMax="1213">
      <contour>
        <pt x="202" y="121" on="1"/>
        <pt x="158" y="147" on="0"/>
        <pt x="74" y="234" on="0"/>
        <pt x="45" y="279" on="1"/>
        <pt x="184" y="435" on="1"/>
        <pt x="126" y="536" on="0"/>
        <pt x="126" y="666" on="1"/>
        <pt x="126" y="795" on="0"/>
        <pt x="183" y="896" on="1"/>
        <pt x="45" y="1050" on="1"/>
        <pt x="69" y="1096" on="0"/>
        <pt x="157" y="1180" on="0"/>
        <pt x="202" y="1208" on="1"/>
        <pt x="364" y="1063" on="1"/>
        <pt x="464" y="1110" on="0"/>
        <pt x="588" y="1110" on="1"/>
        <pt x="712" y="1110" on="0"/>
        <pt x="812" y="1064" on="1"/>
        <pt x="979" y="1213" on="1"/>
        <pt x="1024" y="1186" on="0"/>
        <pt x="1108" y="1101" on="0"/>
        <pt x="1137" y="1056" on="1"/>
        <pt x="995" y="895" on="1"/>
        <pt x="1052" y="795" on="0"/>
        <pt x="1052" y="666" on="1"/>
        <pt x="1052" y="535" on="0"/>
        <pt x="992" y="433" on="1"/>
        <pt x="1131" y="277" on="1"/>
        <pt x="1076" y="181" on="0"/>
        <pt x="974" y="120" on="1"/>
        <pt x="807" y="269" on="1"/>
        <pt x="709" y="224" on="0"/>
        <pt x="588" y="224" on="1"/>
        <pt x="468" y="224" on="0"/>
        <pt x="370" y="269" on="1"/>
      </contour>
      <contour>
        <pt x="432" y="666" on="1"/>
        <pt x="432" y="582" on="0"/>
        <pt x="501" y="454" on="0"/>
        <pt x="588" y="454" on="1"/>
        <pt x="677" y="454" on="0"/>
        <pt x="746" y="579" on="0"/>
        <pt x="746" y="666" on="1"/>
        <pt x="746" y="755" on="0"/>
        <pt x="677" y="881" on="0"/>
        <pt x="588" y="881" on="1"/>
        <pt x="501" y="881" on="0"/>
        <pt x="432" y="755" on="0"/>
      </contour>
    </TTGlyph>
    <TTGlyph name="d" xMin="144" yMin="-8" xMax="1149" yMax="1112">
      <contour>
        <pt x="1149" y="549" on="1"/>
        <pt x="1149" y="269" on="0"/>
        <pt x="887" y="-8" on="0"/>
        <pt x="605" y="-8" on="1"/>
        <pt x="486" y="-8" on="0"/>
        <pt x="273" y="-5" on="0"/>
        <pt x="155" y="-2" on="1"/>
        <pt x="144" y="10" on="1"/>
        <pt x="144" y="1092" on="1"/>
        <pt x="155" y="1104" on="1"/>
        <pt x="274" y="1107" on="0"/>
        <pt x="486" y="1112" on="0"/>
        <pt x="605" y="1112" on="1"/>
        <pt x="884" y="1112" on="0"/>
        <pt x="1149" y="823" on="0"/>
      </contour>
      <contour>
        <pt x="827" y="549" on="1"/>
        <pt x="827" y="622" on="0"/>
        <pt x="797" y="769" on="0"/>
        <pt x="701" y="869" on="0"/>
        <pt x="605" y="869" on="1"/>
        <pt x="561" y="869" on="0"/>
        <pt x="498" y="870" on="0"/>
        <pt x="457" y="871" on="1"/>
        <pt x="457" y="231" on="1"/>
        <pt x="500" y="231" on="0"/>
        <pt x="561" y="233" on="0"/>
        <pt x="605" y="233" on="1"/>
        <pt x="701" y="233" on="0"/>
        <pt x="797" y="332" on="0"/>
        <pt x="827" y="478" on="0"/>
      </contour>
    </TTGlyph>
    <TTGlyph name="dagger" xMin="25" yMin="-255" xMax="782" yMax="1385">
      <contour>
        <pt x="234" y="519" on="1"/>
        <pt x="231" y="568" on="0"/>
        <pt x="258" y="709" on="0"/>
        <pt x="272" y="776" on="1"/>
        <pt x="232" y="769" on="0"/>
        <pt x="158" y="758" on="0"/>
        <pt x="137" y="758" on="1"/>
        <pt x="40" y="754" on="1"/>
        <pt x="32" y="784" on="0"/>
        <pt x="25" y="858" on="0"/>
        <pt x="25" y="879" on="1"/>
        <pt x="25" y="900" on="0"/>
        <pt x="32" y="972" on="0"/>
        <pt x="40" y="1004" on="1"/>
        <pt x="137" y="1000" on="1"/>
        <pt x="156" y="1000" on="0"/>
        <pt x="232" y="988" on="0"/>
        <pt x="274" y="982" on="1"/>
        <pt x="261" y="1051" on="0"/>
        <pt x="230" y="1194" on="0"/>
        <pt x="230" y="1231" on="1"/>
        <pt x="230" y="1366" on="1"/>
        <pt x="269" y="1375" on="0"/>
        <pt x="365" y="1385" on="0"/>
        <pt x="403" y="1385" on="1"/>
        <pt x="445" y="1385" on="0"/>
        <pt x="536" y="1375" on="0"/>
        <pt x="577" y="1366" on="1"/>
        <pt x="577" y="1231" on="1"/>
        <pt x="577" y="1194" on="0"/>
        <pt x="546" y="1050" on="0"/>
        <pt x="533" y="981" on="1"/>
        <pt x="572" y="988" on="0"/>
        <pt x="647" y="999" on="0"/>
        <pt x="670" y="1000" on="1"/>
        <pt x="767" y="1004" on="1"/>
        <pt x="775" y="977" on="0"/>
        <pt x="782" y="900" on="0"/>
        <pt x="782" y="879" on="1"/>
        <pt x="782" y="858" on="0"/>
        <pt x="775" y="786" on="0"/>
        <pt x="767" y="754" on="1"/>
        <pt x="670" y="758" on="1"/>
        <pt x="648" y="758" on="0"/>
        <pt x="575" y="769" on="0"/>
        <pt x="535" y="776" on="1"/>
        <pt x="549" y="709" on="0"/>
        <pt x="576" y="568" on="0"/>
        <pt x="573" y="519" on="1"/>
        <pt x="524" y="-242" on="1"/>
        <pt x="489" y="-251" on="0"/>
        <pt x="431" y="-255" on="0"/>
        <pt x="404" y="-255" on="1"/>
        <pt x="379" y="-255" on="0"/>
        <pt x="317" y="-251" on="0"/>
        <pt x="283" y="-242" on="1"/>
      </contour>
    </TTGlyph>
    <TTGlyph name="daggerdbl" xMin="62" yMin="-255" xMax="819" yMax="1383">
      <contour>
        <pt x="276" y="532" on="1"/>
        <pt x="273" y="582" on="0"/>
        <pt x="298" y="721" on="0"/>
        <pt x="310" y="786" on="1"/>
        <pt x="270" y="779" on="0"/>
        <pt x="195" y="768" on="0"/>
        <pt x="174" y="768" on="1"/>
        <pt x="77" y="764" on="1"/>
        <pt x="69" y="794" on="0"/>
        <pt x="62" y="868" on="0"/>
        <pt x="62" y="889" on="1"/>
        <pt x="62" y="910" on="0"/>
        <pt x="69" y="982" on="0"/>
        <pt x="77" y="1014" on="1"/>
        <pt x="174" y="1010" on="1"/>
        <pt x="194" y="1010" on="0"/>
        <pt x="269" y="999" on="0"/>
        <pt x="310" y="992" on="1"/>
        <pt x="297" y="1058" on="0"/>
        <pt x="266" y="1194" on="0"/>
        <pt x="267" y="1231" on="1"/>
        <pt x="267" y="1364" on="1"/>
        <pt x="306" y="1373" on="0"/>
        <pt x="402" y="1383" on="0"/>
        <pt x="440" y="1383" on="1"/>
        <pt x="482" y="1383" on="0"/>
        <pt x="573" y="1373" on="0"/>
        <pt x="613" y="1364" on="1"/>
        <pt x="614" y="1231" on="1"/>
        <pt x="614" y="1194" on="0"/>
        <pt x="583" y="1057" on="0"/>
        <pt x="570" y="991" on="1"/>
        <pt x="609" y="998" on="0"/>
        <pt x="683" y="1009" on="0"/>
        <pt x="707" y="1010" on="1"/>
        <pt x="804" y="1014" on="1"/>
        <pt x="812" y="987" on="0"/>
        <pt x="819" y="910" on="0"/>
        <pt x="819" y="889" on="1"/>
        <pt x="819" y="868" on="0"/>
        <pt x="812" y="796" on="0"/>
        <pt x="804" y="764" on="1"/>
        <pt x="707" y="768" on="1"/>
        <pt x="684" y="768" on="0"/>
        <pt x="610" y="780" on="0"/>
        <pt x="571" y="786" on="1"/>
        <pt x="583" y="721" on="0"/>
        <pt x="608" y="581" on="0"/>
        <pt x="605" y="532" on="1"/>
        <pt x="597" y="409" on="1"/>
        <pt x="629" y="414" on="0"/>
        <pt x="687" y="422" on="0"/>
        <pt x="707" y="424" on="1"/>
        <pt x="804" y="427" on="1"/>
        <pt x="812" y="400" on="0"/>
        <pt x="819" y="323" on="0"/>
        <pt x="819" y="302" on="1"/>
        <pt x="819" y="281" on="0"/>
        <pt x="812" y="209" on="0"/>
        <pt x="804" y="177" on="1"/>
        <pt x="707" y="181" on="1"/>
        <pt x="686" y="181" on="0"/>
        <pt x="621" y="191" on="0"/>
        <pt x="585" y="197" on="1"/>
        <pt x="559" y="-242" on="1"/>
        <pt x="524" y="-251" on="0"/>
        <pt x="468" y="-255" on="0"/>
        <pt x="440" y="-255" on="1"/>
        <pt x="416" y="-255" on="0"/>
        <pt x="356" y="-251" on="0"/>
        <pt x="322" y="-242" on="1"/>
        <pt x="296" y="197" on="1"/>
        <pt x="259" y="191" on="0"/>
        <pt x="193" y="181" on="0"/>
        <pt x="174" y="181" on="1"/>
        <pt x="77" y="177" on="1"/>
        <pt x="69" y="207" on="0"/>
        <pt x="62" y="281" on="0"/>
        <pt x="62" y="302" on="1"/>
        <pt x="62" y="323" on="0"/>
        <pt x="69" y="396" on="0"/>
        <pt x="77" y="427" on="1"/>
        <pt x="174" y="424" on="1"/>
        <pt x="190" y="423" on="0"/>
        <pt x="249" y="415" on="0"/>
        <pt x="283" y="409" on="1"/>
      </contour>
    </TTGlyph>
    <TTGlyph name="dcaron" xMin="144" yMin="-8" xMax="1149" yMax="1605">
      <component glyphName="d" x="0" y="0" flags="0x204"/>
      <component glyphName="caron" x="186" y="104" flags="0x4"/>
    </TTGlyph>
    <TTGlyph name="dcroat" xMin="16" yMin="-8" xMax="1168" yMax="1112">
      <component glyphName="eth" x="0" y="0" flags="0x204"/>
    </TTGlyph>
    <TTGlyph name="degree" xMin="29" yMin="705" xMax="672" yMax="1349">
      <contour>
        <pt x="29" y="1027" on="1"/>
        <pt x="29" y="1122" on="0"/>
        <pt x="112" y="1267" on="0"/>
        <pt x="257" y="1349" on="0"/>
        <pt x="351" y="1349" on="1"/>
        <pt x="444" y="1349" on="0"/>
        <pt x="589" y="1267" on="0"/>
        <pt x="672" y="1122" on="0"/>
        <pt x="672" y="1027" on="1"/>
        <pt x="672" y="933" on="0"/>
        <pt x="589" y="787" on="0"/>
        <pt x="444" y="705" on="0"/>
        <pt x="351" y="705" on="1"/>
        <pt x="257" y="705" on="0"/>
        <pt x="112" y="787" on="0"/>
        <pt x="29" y="933" on="0"/>
      </contour>
      <contour>
        <pt x="245" y="1027" on="1"/>
        <pt x="245" y="968" on="0"/>
        <pt x="302" y="898" on="0"/>
        <pt x="351" y="898" on="1"/>
        <pt x="398" y="898" on="0"/>
        <pt x="455" y="968" on="0"/>
        <pt x="455" y="1027" on="1"/>
        <pt x="455" y="1087" on="0"/>
        <pt x="398" y="1157" on="0"/>
        <pt x="351" y="1157" on="1"/>
        <pt x="302" y="1157" on="0"/>
        <pt x="245" y="1087" on="0"/>
      </contour>
    </TTGlyph>
    <TTGlyph name="dieresis" xMin="49" yMin="1115" xMax="747" yMax="1379">
      <contour>
        <pt x="453" y="1247" on="1"/>
        <pt x="453" y="1265" on="0"/>
        <pt x="460" y="1321" on="0"/>
        <pt x="470" y="1346" on="1"/>
        <pt x="496" y="1362" on="0"/>
        <pt x="567" y="1379" on="0"/>
        <pt x="600" y="1379" on="1"/>
        <pt x="676" y="1379" on="0"/>
        <pt x="729" y="1346" on="1"/>
        <pt x="739" y="1321" on="0"/>
        <pt x="747" y="1265" on="0"/>
        <pt x="747" y="1247" on="1"/>
        <pt x="747" y="1229" on="0"/>
        <pt x="739" y="1172" on="0"/>
        <pt x="729" y="1148" on="1"/>
        <pt x="676" y="1115" on="0"/>
        <pt x="600" y="1115" on="1"/>
        <pt x="524" y="1115" on="0"/>
        <pt x="470" y="1148" on="1"/>
        <pt x="460" y="1174" on="0"/>
        <pt x="453" y="1229" on="0"/>
      </contour>
      <contour>
        <pt x="49" y="1247" on="1"/>
        <pt x="49" y="1265" on="0"/>
        <pt x="57" y="1321" on="0"/>
        <pt x="67" y="1346" on="1"/>
        <pt x="93" y="1362" on="0"/>
        <pt x="163" y="1379" on="0"/>
        <pt x="196" y="1379" on="1"/>
        <pt x="272" y="1379" on="0"/>
        <pt x="326" y="1346" on="1"/>
        <pt x="336" y="1321" on="0"/>
        <pt x="343" y="1265" on="0"/>
        <pt x="343" y="1247" on="1"/>
        <pt x="343" y="1229" on="0"/>
        <pt x="336" y="1172" on="0"/>
        <pt x="326" y="1148" on="1"/>
        <pt x="272" y="1115" on="0"/>
        <pt x="196" y="1115" on="1"/>
        <pt x="120" y="1115" on="0"/>
        <pt x="67" y="1148" on="1"/>
        <pt x="57" y="1174" on="0"/>
        <pt x="49" y="1229" on="0"/>
      </contour>
    </TTGlyph>
    <TTGlyph name="divide" xMin="92" yMin="106" xMax="968" yMax="1090">
      <contour>
        <pt x="375" y="956" on="1"/>
        <pt x="375" y="1016" on="0"/>
        <pt x="396" y="1061" on="1"/>
        <pt x="451" y="1090" on="0"/>
        <pt x="530" y="1090" on="1"/>
        <pt x="567" y="1090" on="0"/>
        <pt x="640" y="1074" on="0"/>
        <pt x="662" y="1061" on="1"/>
        <pt x="674" y="1040" on="0"/>
        <pt x="685" y="981" on="0"/>
        <pt x="685" y="956" on="1"/>
        <pt x="685" y="930" on="0"/>
        <pt x="674" y="873" on="0"/>
        <pt x="662" y="851" on="1"/>
        <pt x="640" y="838" on="0"/>
        <pt x="567" y="822" on="0"/>
        <pt x="530" y="822" on="1"/>
        <pt x="492" y="822" on="0"/>
        <pt x="419" y="836" on="0"/>
        <pt x="396" y="851" on="1"/>
        <pt x="375" y="897" on="0"/>
      </contour>
      <contour>
        <pt x="105" y="474" on="1"/>
        <pt x="97" y="505" on="0"/>
        <pt x="92" y="578" on="0"/>
        <pt x="92" y="598" on="1"/>
        <pt x="92" y="619" on="0"/>
        <pt x="97" y="692" on="0"/>
        <pt x="105" y="723" on="1"/>
        <pt x="955" y="723" on="1"/>
        <pt x="963" y="692" on="0"/>
        <pt x="968" y="619" on="0"/>
        <pt x="968" y="598" on="1"/>
        <pt x="968" y="578" on="0"/>
        <pt x="963" y="505" on="0"/>
        <pt x="955" y="474" on="1"/>
      </contour>
      <contour>
        <pt x="375" y="240" on="1"/>
        <pt x="375" y="300" on="0"/>
        <pt x="396" y="346" on="1"/>
        <pt x="451" y="375" on="0"/>
        <pt x="530" y="375" on="1"/>
        <pt x="567" y="375" on="0"/>
        <pt x="640" y="359" on="0"/>
        <pt x="662" y="346" on="1"/>
        <pt x="674" y="324" on="0"/>
        <pt x="685" y="265" on="0"/>
        <pt x="685" y="240" on="1"/>
        <pt x="685" y="214" on="0"/>
        <pt x="674" y="157" on="0"/>
        <pt x="662" y="135" on="1"/>
        <pt x="640" y="122" on="0"/>
        <pt x="567" y="106" on="0"/>
        <pt x="530" y="106" on="1"/>
        <pt x="492" y="106" on="0"/>
        <pt x="419" y="121" on="0"/>
        <pt x="396" y="135" on="1"/>
        <pt x="375" y="181" on="0"/>
      </contour>
    </TTGlyph>
    <TTGlyph name="dollar" xMin="43" yMin="-89" xMax="969" yMax="1389">
      <contour>
        <pt x="43" y="189" on="1"/>
        <pt x="44" y="228" on="0"/>
        <pt x="76" y="320" on="0"/>
        <pt x="128" y="400" on="0"/>
        <pt x="159" y="419" on="1"/>
        <pt x="234" y="380" on="0"/>
        <pt x="420" y="311" on="0"/>
        <pt x="514" y="311" on="1"/>
        <pt x="569" y="311" on="0"/>
        <pt x="639" y="352" on="0"/>
        <pt x="639" y="392" on="1"/>
        <pt x="639" y="418" on="0"/>
        <pt x="598" y="470" on="0"/>
        <pt x="549" y="487" on="1"/>
        <pt x="360" y="556" on="1"/>
        <pt x="246" y="599" on="0"/>
        <pt x="91" y="753" on="0"/>
        <pt x="91" y="877" on="1"/>
        <pt x="91" y="1013" on="0"/>
        <pt x="267" y="1195" on="0"/>
        <pt x="401" y="1221" on="1"/>
        <pt x="401" y="1380" on="1"/>
        <pt x="423" y="1385" on="0"/>
        <pt x="495" y="1389" on="0"/>
        <pt x="513" y="1389" on="1"/>
        <pt x="531" y="1389" on="0"/>
        <pt x="602" y="1385" on="0"/>
        <pt x="625" y="1380" on="1"/>
        <pt x="625" y="1223" on="1"/>
        <pt x="721" y="1212" on="0"/>
        <pt x="877" y="1163" on="0"/>
        <pt x="940" y="1135" on="1"/>
        <pt x="940" y="1068" on="0"/>
        <pt x="880" y="934" on="0"/>
        <pt x="833" y="894" on="1"/>
        <pt x="750" y="927" on="0"/>
        <pt x="582" y="974" on="0"/>
        <pt x="519" y="974" on="1"/>
        <pt x="415" y="974" on="0"/>
        <pt x="415" y="898" on="1"/>
        <pt x="415" y="867" on="0"/>
        <pt x="468" y="834" on="0"/>
        <pt x="507" y="820" on="1"/>
        <pt x="693" y="749" on="1"/>
        <pt x="814" y="704" on="0"/>
        <pt x="969" y="535" on="0"/>
        <pt x="969" y="403" on="1"/>
        <pt x="969" y="269" on="0"/>
        <pt x="772" y="93" on="0"/>
        <pt x="617" y="69" on="1"/>
        <pt x="617" y="-82" on="1"/>
        <pt x="594" y="-87" on="0"/>
        <pt x="523" y="-89" on="0"/>
        <pt x="505" y="-89" on="1"/>
        <pt x="487" y="-89" on="0"/>
        <pt x="414" y="-87" on="0"/>
        <pt x="393" y="-82" on="1"/>
        <pt x="393" y="70" on="1"/>
        <pt x="282" y="86" on="0"/>
        <pt x="93" y="156" on="0"/>
      </contour>
    </TTGlyph>
    <TTGlyph name="dotaccent" xMin="226" yMin="1138" xMax="570" yMax="1432">
      <contour>
        <pt x="226" y="1285" on="1"/>
        <pt x="226" y="1346" on="0"/>
        <pt x="249" y="1401" on="1"/>
        <pt x="275" y="1414" on="0"/>
        <pt x="358" y="1432" on="0"/>
        <pt x="398" y="1432" on="1"/>
        <pt x="438" y="1432" on="0"/>
        <pt x="524" y="1414" on="0"/>
        <pt x="547" y="1401" on="1"/>
        <pt x="558" y="1374" on="0"/>
        <pt x="570" y="1311" on="0"/>
        <pt x="570" y="1285" on="1"/>
        <pt x="570" y="1223" on="0"/>
        <pt x="547" y="1169" on="1"/>
        <pt x="524" y="1156" on="0"/>
        <pt x="438" y="1138" on="0"/>
        <pt x="398" y="1138" on="1"/>
        <pt x="358" y="1138" on="0"/>
        <pt x="273" y="1154" on="0"/>
        <pt x="249" y="1169" on="1"/>
        <pt x="226" y="1223" on="0"/>
      </contour>
    </TTGlyph>
    <TTGlyph name="dotlessi" xMin="29" yMin="-12" xMax="479" yMax="1006">
      <contour>
        <pt x="479" y="0" on="1"/>
        <pt x="446" y="-6" on="0"/>
        <pt x="363" y="-12" on="0"/>
        <pt x="323" y="-12" on="1"/>
        <pt x="284" y="-12" on="0"/>
        <pt x="201" y="-6" on="0"/>
        <pt x="166" y="0" on="1"/>
        <pt x="166" y="662" on="1"/>
        <pt x="166" y="712" on="0"/>
        <pt x="125" y="778" on="0"/>
        <pt x="72" y="778" on="1"/>
        <pt x="42" y="778" on="1"/>
        <pt x="29" y="827" on="0"/>
        <pt x="29" y="884" on="1"/>
        <pt x="29" y="910" on="0"/>
        <pt x="35" y="969" on="0"/>
        <pt x="42" y="996" on="1"/>
        <pt x="88" y="1001" on="0"/>
        <pt x="185" y="1006" on="0"/>
        <pt x="218" y="1006" on="1"/>
        <pt x="261" y="1006" on="1"/>
        <pt x="361" y="1006" on="0"/>
        <pt x="479" y="877" on="0"/>
        <pt x="479" y="767" on="1"/>
      </contour>
    </TTGlyph>
    <TTGlyph name="e" xMin="144" yMin="-4" xMax="983" yMax="1102">
      <contour>
        <pt x="983" y="251" on="1"/>
        <pt x="983" y="108" on="0"/>
        <pt x="894" y="-4" on="0"/>
        <pt x="788" y="-4" on="1"/>
        <pt x="327" y="-4" on="1"/>
        <pt x="242" y="-4" on="0"/>
        <pt x="144" y="93" on="0"/>
        <pt x="144" y="175" on="1"/>
        <pt x="144" y="1091" on="1"/>
        <pt x="155" y="1102" on="1"/>
        <pt x="946" y="1102" on="1"/>
        <pt x="953" y="1068" on="0"/>
        <pt x="955" y="1006" on="0"/>
        <pt x="955" y="978" on="1"/>
        <pt x="955" y="951" on="0"/>
        <pt x="944" y="883" on="0"/>
        <pt x="931" y="848" on="1"/>
        <pt x="581" y="848" on="1"/>
        <pt x="539" y="848" on="0"/>
        <pt x="454" y="849" on="1"/>
        <pt x="455" y="818" on="0"/>
        <pt x="456" y="774" on="0"/>
        <pt x="456" y="743" on="1"/>
        <pt x="456" y="677" on="1"/>
        <pt x="494" y="677" on="0"/>
        <pt x="562" y="678" on="0"/>
        <pt x="581" y="678" on="1"/>
        <pt x="837" y="678" on="1"/>
        <pt x="847" y="651" on="0"/>
        <pt x="854" y="582" on="0"/>
        <pt x="854" y="558" on="1"/>
        <pt x="854" y="530" on="0"/>
        <pt x="847" y="461" on="0"/>
        <pt x="837" y="433" on="1"/>
        <pt x="581" y="433" on="1"/>
        <pt x="562" y="433" on="0"/>
        <pt x="494" y="433" on="0"/>
        <pt x="456" y="433" on="1"/>
        <pt x="456" y="368" on="1"/>
        <pt x="456" y="331" on="0"/>
        <pt x="454" y="283" on="0"/>
        <pt x="454" y="247" on="1"/>
        <pt x="454" y="245" on="1"/>
        <pt x="489" y="247" on="0"/>
        <pt x="549" y="251" on="0"/>
        <pt x="592" y="251" on="1"/>
      </contour>
    </TTGlyph>
    <TTGlyph name="eacute" xMin="144" yMin="-4" xMax="983" yMax="1643">
      <component glyphName="e" x="0" y="0" flags="0x204"/>
      <component glyphName="acute" x="160" y="104" flags="0x4"/>
    </TTGlyph>
    <TTGlyph name="ebreve" xMin="144" yMin="-4" xMax="983" yMax="1556">
      <component glyphName="e" x="0" y="0" flags="0x204"/>
      <component glyphName="breve" x="157" y="104" flags="0x4"/>
    </TTGlyph>
    <TTGlyph name="ecaron" xMin="144" yMin="-4" xMax="983" yMax="1605">
      <component glyphName="e" x="0" y="0" flags="0x204"/>
      <component glyphName="caron" x="157" y="104" flags="0x4"/>
    </TTGlyph>
    <TTGlyph name="ecircumflex" xMin="144" yMin="-4" xMax="983" yMax="1600">
      <component glyphName="e" x="0" y="0" flags="0x204"/>
      <component glyphName="circumflex" x="157" y="104" flags="0x4"/>
    </TTGlyph>
    <TTGlyph name="edieresis" xMin="144" yMin="-4" xMax="983" yMax="1483">
      <component glyphName="e" x="0" y="0" flags="0x204"/>
      <component glyphName="dieresis" x="157" y="104" flags="0x4"/>
    </TTGlyph>
    <TTGlyph name="edotaccent" xMin="144" yMin="-4" xMax="983" yMax="1536">
      <component glyphName="e" x="0" y="0" flags="0x204"/>
      <component glyphName="dotaccent" x="157" y="104" flags="0x4"/>
    </TTGlyph>
    <TTGlyph name="egrave" xMin="144" yMin="-4" xMax="983" yMax="1643">
      <component glyphName="e" x="0" y="0" flags="0x204"/>
      <component glyphName="grave" x="157" y="104" flags="0x4"/>
    </TTGlyph>
    <TTGlyph name="eight" xMin="51" yMin="-30" xMax="1009" yMax="1326">
      <contour>
        <pt x="51" y="330" on="1"/>
        <pt x="51" y="440" on="0"/>
        <pt x="181" y="611" on="0"/>
        <pt x="270" y="665" on="1"/>
        <pt x="180" y="722" on="0"/>
        <pt x="84" y="868" on="0"/>
        <pt x="84" y="973" on="1"/>
        <pt x="84" y="1072" on="0"/>
        <pt x="199" y="1232" on="0"/>
        <pt x="400" y="1326" on="0"/>
        <pt x="530" y="1326" on="1"/>
        <pt x="666" y="1326" on="0"/>
        <pt x="864" y="1235" on="0"/>
        <pt x="973" y="1078" on="0"/>
        <pt x="973" y="978" on="1"/>
        <pt x="973" y="883" on="0"/>
        <pt x="862" y="744" on="0"/>
        <pt x="786" y="701" on="1"/>
        <pt x="887" y="641" on="0"/>
        <pt x="1009" y="470" on="0"/>
        <pt x="1009" y="344" on="1"/>
        <pt x="1009" y="227" on="0"/>
        <pt x="876" y="60" on="0"/>
        <pt x="653" y="-30" on="0"/>
        <pt x="516" y="-30" on="1"/>
        <pt x="305" y="-30" on="0"/>
        <pt x="51" y="162" on="0"/>
      </contour>
      <contour>
        <pt x="555" y="804" on="1"/>
        <pt x="581" y="795" on="1"/>
        <pt x="674" y="864" on="0"/>
        <pt x="674" y="966" on="1"/>
        <pt x="674" y="1025" on="0"/>
        <pt x="595" y="1105" on="0"/>
        <pt x="528" y="1105" on="1"/>
        <pt x="467" y="1105" on="0"/>
        <pt x="388" y="1030" on="0"/>
        <pt x="388" y="973" on="1"/>
        <pt x="388" y="914" on="0"/>
        <pt x="476" y="833" on="0"/>
      </contour>
      <contour>
        <pt x="365" y="349" on="1"/>
        <pt x="365" y="279" on="0"/>
        <pt x="453" y="185" on="0"/>
        <pt x="530" y="185" on="1"/>
        <pt x="609" y="185" on="0"/>
        <pt x="691" y="281" on="0"/>
        <pt x="691" y="346" on="1"/>
        <pt x="691" y="408" on="0"/>
        <pt x="607" y="515" on="0"/>
        <pt x="522" y="547" on="1"/>
        <pt x="473" y="567" on="1"/>
        <pt x="414" y="517" on="0"/>
        <pt x="365" y="405" on="0"/>
      </contour>
    </TTGlyph>
    <TTGlyph name="ellipsis" xMin="106" yMin="-21" xMax="1614" yMax="294">
      <component glyphName="period" x="0" y="0" flags="0x4"/>
      <component glyphName="period" x="574" y="0" flags="0x4"/>
      <component glyphName="period" x="1147" y="0" flags="0x4"/>
    </TTGlyph>
    <TTGlyph name="emacron" xMin="144" yMin="-4" xMax="983" yMax="1471">
      <component glyphName="e" x="0" y="0" flags="0x204"/>
      <component glyphName="macron" x="157" y="104" flags="0x4"/>
    </TTGlyph>
    <TTGlyph name="emdash" xMin="134" yMin="413" xMax="1497" yMax="651">
      <contour>
        <pt x="148" y="413" on="1"/>
        <pt x="139" y="444" on="0"/>
        <pt x="134" y="511" on="0"/>
        <pt x="134" y="532" on="1"/>
        <pt x="134" y="553" on="0"/>
        <pt x="139" y="619" on="0"/>
        <pt x="148" y="651" on="1"/>
        <pt x="1484" y="651" on="1"/>
        <pt x="1492" y="619" on="0"/>
        <pt x="1497" y="553" on="0"/>
        <pt x="1497" y="532" on="1"/>
        <pt x="1497" y="511" on="0"/>
        <pt x="1492" y="444" on="0"/>
        <pt x="1484" y="413" on="1"/>
      </contour>
    </TTGlyph>
    <TTGlyph name="endash" xMin="111" yMin="413" xMax="1001" yMax="651">
      <contour>
        <pt x="125" y="413" on="1"/>
        <pt x="116" y="444" on="0"/>
        <pt x="111" y="511" on="0"/>
        <pt x="111" y="532" on="1"/>
        <pt x="111" y="553" on="0"/>
        <pt x="116" y="619" on="0"/>
        <pt x="125" y="651" on="1"/>
        <pt x="988" y="651" on="1"/>
        <pt x="997" y="619" on="0"/>
        <pt x="1001" y="553" on="0"/>
        <pt x="1001" y="532" on="1"/>
        <pt x="1001" y="511" on="0"/>
        <pt x="997" y="444" on="0"/>
        <pt x="988" y="413" on="1"/>
      </contour>
    </TTGlyph>
    <TTGlyph name="eng" xMin="144" yMin="-402" xMax="1137" yMax="1116">
      <contour>
        <pt x="622" y="-142" on="1"/>
        <pt x="647" y="-154" on="0"/>
        <pt x="706" y="-170" on="0"/>
        <pt x="739" y="-170" on="1"/>
        <pt x="791" y="-170" on="0"/>
        <pt x="864" y="-101" on="0"/>
        <pt x="864" y="-10" on="1"/>
        <pt x="838" y="-9" on="0"/>
        <pt x="789" y="-4" on="0"/>
        <pt x="772" y="0" on="1"/>
        <pt x="532" y="503" on="1"/>
        <pt x="525" y="519" on="0"/>
        <pt x="495" y="588" on="0"/>
        <pt x="461" y="668" on="0"/>
        <pt x="432" y="738" on="0"/>
        <pt x="424" y="754" on="1"/>
        <pt x="417" y="751" on="1"/>
        <pt x="421" y="672" on="0"/>
        <pt x="429" y="489" on="0"/>
        <pt x="434" y="338" on="0"/>
        <pt x="434" y="304" on="1"/>
        <pt x="434" y="0" on="1"/>
        <pt x="395" y="-7" on="0"/>
        <pt x="323" y="-12" on="0"/>
        <pt x="292" y="-12" on="1"/>
        <pt x="264" y="-12" on="0"/>
        <pt x="181" y="-7" on="0"/>
        <pt x="144" y="0" on="1"/>
        <pt x="144" y="1095" on="1"/>
        <pt x="181" y="1104" on="0"/>
        <pt x="291" y="1114" on="0"/>
        <pt x="321" y="1114" on="1"/>
        <pt x="352" y="1114" on="0"/>
        <pt x="466" y="1111" on="0"/>
        <pt x="503" y="1102" on="1"/>
        <pt x="738" y="601" on="1"/>
        <pt x="745" y="587" on="0"/>
        <pt x="778" y="513" on="0"/>
        <pt x="816" y="425" on="0"/>
        <pt x="849" y="348" on="0"/>
        <pt x="857" y="330" on="1"/>
        <pt x="866" y="332" on="1"/>
        <pt x="862" y="398" on="0"/>
        <pt x="849" y="574" on="0"/>
        <pt x="839" y="738" on="0"/>
        <pt x="839" y="787" on="1"/>
        <pt x="839" y="943" on="1"/>
        <pt x="839" y="1049" on="0"/>
        <pt x="931" y="1116" on="0"/>
        <pt x="1022" y="1116" on="1"/>
        <pt x="1125" y="1116" on="1"/>
        <pt x="1137" y="1102" on="1"/>
        <pt x="1137" y="4" on="1"/>
        <pt x="1137" y="-113" on="0"/>
        <pt x="1059" y="-296" on="0"/>
        <pt x="895" y="-402" on="0"/>
        <pt x="766" y="-402" on="1"/>
        <pt x="714" y="-402" on="0"/>
        <pt x="595" y="-379" on="0"/>
        <pt x="545" y="-359" on="1"/>
        <pt x="551" y="-304" on="0"/>
        <pt x="589" y="-188" on="0"/>
      </contour>
    </TTGlyph>
    <TTGlyph name="eogonek" xMin="144" yMin="-436" xMax="983" yMax="1102">
      <contour>
        <pt x="900" y="-215" on="1"/>
        <pt x="925" y="-237" on="0"/>
        <pt x="963" y="-312" on="0"/>
        <pt x="966" y="-355" on="1"/>
        <pt x="927" y="-388" on="0"/>
        <pt x="801" y="-436" on="0"/>
        <pt x="729" y="-436" on="1"/>
        <pt x="624" y="-436" on="0"/>
        <pt x="491" y="-328" on="0"/>
        <pt x="491" y="-234" on="1"/>
        <pt x="491" y="-162" on="0"/>
        <pt x="563" y="-46" on="0"/>
        <pt x="616" y="-4" on="1"/>
        <pt x="327" y="-4" on="1"/>
        <pt x="242" y="-4" on="0"/>
        <pt x="144" y="93" on="0"/>
        <pt x="144" y="175" on="1"/>
        <pt x="144" y="1091" on="1"/>
        <pt x="155" y="1102" on="1"/>
        <pt x="946" y="1102" on="1"/>
        <pt x="953" y="1068" on="0"/>
        <pt x="955" y="1006" on="0"/>
        <pt x="955" y="978" on="1"/>
        <pt x="955" y="951" on="0"/>
        <pt x="944" y="881" on="0"/>
        <pt x="931" y="846" on="1"/>
        <pt x="581" y="846" on="1"/>
        <pt x="539" y="846" on="0"/>
        <pt x="454" y="848" on="1"/>
        <pt x="455" y="816" on="0"/>
        <pt x="456" y="772" on="0"/>
        <pt x="456" y="741" on="1"/>
        <pt x="456" y="679" on="1"/>
        <pt x="494" y="679" on="0"/>
        <pt x="562" y="680" on="0"/>
        <pt x="581" y="680" on="1"/>
        <pt x="837" y="680" on="1"/>
        <pt x="847" y="653" on="0"/>
        <pt x="854" y="582" on="0"/>
        <pt x="854" y="558" on="1"/>
        <pt x="854" y="530" on="0"/>
        <pt x="847" y="459" on="0"/>
        <pt x="837" y="431" on="1"/>
        <pt x="581" y="431" on="1"/>
        <pt x="562" y="431" on="0"/>
        <pt x="494" y="431" on="0"/>
        <pt x="456" y="432" on="1"/>
        <pt x="456" y="368" on="1"/>
        <pt x="456" y="331" on="0"/>
        <pt x="454" y="285" on="0"/>
        <pt x="454" y="249" on="1"/>
        <pt x="454" y="247" on="1"/>
        <pt x="489" y="249" on="0"/>
        <pt x="549" y="253" on="0"/>
        <pt x="592" y="253" on="1"/>
        <pt x="983" y="253" on="1"/>
        <pt x="983" y="137" on="0"/>
        <pt x="932" y="31" on="0"/>
        <pt x="876" y="10" on="1"/>
        <pt x="790" y="-25" on="0"/>
        <pt x="718" y="-125" on="0"/>
        <pt x="718" y="-171" on="1"/>
        <pt x="718" y="-208" on="0"/>
        <pt x="766" y="-244" on="0"/>
        <pt x="800" y="-244" on="1"/>
        <pt x="828" y="-244" on="0"/>
        <pt x="880" y="-226" on="0"/>
      </contour>
    </TTGlyph>
    <TTGlyph name="equal" xMin="92" yMin="247" xMax="968" yMax="954">
      <contour>
        <pt x="105" y="704" on="1"/>
        <pt x="97" y="736" on="0"/>
        <pt x="92" y="808" on="0"/>
        <pt x="92" y="829" on="1"/>
        <pt x="92" y="850" on="0"/>
        <pt x="97" y="923" on="0"/>
        <pt x="105" y="954" on="1"/>
        <pt x="955" y="954" on="1"/>
        <pt x="963" y="923" on="0"/>
        <pt x="968" y="850" on="0"/>
        <pt x="968" y="829" on="1"/>
        <pt x="968" y="808" on="0"/>
        <pt x="963" y="736" on="0"/>
        <pt x="955" y="704" on="1"/>
      </contour>
      <contour>
        <pt x="105" y="247" on="1"/>
        <pt x="97" y="278" on="0"/>
        <pt x="92" y="351" on="0"/>
        <pt x="92" y="372" on="1"/>
        <pt x="92" y="393" on="0"/>
        <pt x="97" y="465" on="0"/>
        <pt x="105" y="497" on="1"/>
        <pt x="955" y="497" on="1"/>
        <pt x="963" y="465" on="0"/>
        <pt x="968" y="393" on="0"/>
        <pt x="968" y="372" on="1"/>
        <pt x="968" y="351" on="0"/>
        <pt x="963" y="278" on="0"/>
        <pt x="955" y="247" on="1"/>
      </contour>
    </TTGlyph>
    <TTGlyph name="estimated" xMin="124" yMin="-16" xMax="1212" yMax="964">
      <contour>
        <pt x="330" y="460" on="1"/>
        <pt x="324" y="460" on="0"/>
        <pt x="324" y="456" on="1"/>
        <pt x="324" y="188" on="1"/>
        <pt x="324" y="179" on="0"/>
        <pt x="332" y="164" on="0"/>
        <pt x="336" y="158" on="1"/>
        <pt x="399" y="91" on="0"/>
        <pt x="571" y="12" on="0"/>
        <pt x="670" y="12" on="1"/>
        <pt x="775" y="12" on="0"/>
        <pt x="955" y="101" on="0"/>
        <pt x="1018" y="176" on="1"/>
        <pt x="1100" y="176" on="1"/>
        <pt x="1027" y="89" on="0"/>
        <pt x="801" y="-16" on="0"/>
        <pt x="670" y="-16" on="1"/>
        <pt x="519" y="-16" on="0"/>
        <pt x="271" y="117" on="0"/>
        <pt x="124" y="339" on="0"/>
        <pt x="124" y="474" on="1"/>
        <pt x="124" y="610" on="0"/>
        <pt x="271" y="832" on="0"/>
        <pt x="519" y="964" on="0"/>
        <pt x="670" y="964" on="1"/>
        <pt x="820" y="964" on="0"/>
        <pt x="1066" y="832" on="0"/>
        <pt x="1212" y="610" on="0"/>
        <pt x="1212" y="474" on="1"/>
        <pt x="1212" y="460" on="1"/>
      </contour>
      <contour>
        <pt x="1014" y="764" on="1"/>
        <pt x="1014" y="782" on="0"/>
        <pt x="1000" y="796" on="1"/>
        <pt x="937" y="859" on="0"/>
        <pt x="766" y="934" on="0"/>
        <pt x="670" y="934" on="1"/>
        <pt x="571" y="934" on="0"/>
        <pt x="403" y="858" on="0"/>
        <pt x="338" y="792" on="1"/>
        <pt x="324" y="778" on="0"/>
        <pt x="324" y="758" on="1"/>
        <pt x="324" y="496" on="1"/>
        <pt x="324" y="490" on="0"/>
        <pt x="330" y="490" on="1"/>
        <pt x="1008" y="490" on="1"/>
        <pt x="1014" y="490" on="0"/>
        <pt x="1014" y="496" on="1"/>
      </contour>
    </TTGlyph>
    <TTGlyph name="eth" xMin="16" yMin="-8" xMax="1168" yMax="1112">
      <contour>
        <pt x="29" y="430" on="1"/>
        <pt x="21" y="461" on="0"/>
        <pt x="16" y="517" on="0"/>
        <pt x="16" y="549" on="1"/>
        <pt x="16" y="579" on="0"/>
        <pt x="21" y="637" on="0"/>
        <pt x="29" y="669" on="1"/>
        <pt x="163" y="669" on="1"/>
        <pt x="163" y="1092" on="1"/>
        <pt x="175" y="1104" on="1"/>
        <pt x="293" y="1107" on="0"/>
        <pt x="505" y="1112" on="0"/>
        <pt x="624" y="1112" on="1"/>
        <pt x="903" y="1112" on="0"/>
        <pt x="1168" y="823" on="0"/>
        <pt x="1168" y="549" on="1"/>
        <pt x="1168" y="269" on="0"/>
        <pt x="905" y="-8" on="0"/>
        <pt x="624" y="-8" on="1"/>
        <pt x="505" y="-8" on="0"/>
        <pt x="293" y="-5" on="0"/>
        <pt x="175" y="-2" on="1"/>
        <pt x="163" y="10" on="1"/>
        <pt x="163" y="430" on="1"/>
      </contour>
      <contour>
        <pt x="848" y="549" on="1"/>
        <pt x="848" y="625" on="0"/>
        <pt x="815" y="777" on="0"/>
        <pt x="718" y="878" on="0"/>
        <pt x="624" y="878" on="1"/>
        <pt x="580" y="878" on="0"/>
        <pt x="512" y="879" on="0"/>
        <pt x="470" y="880" on="1"/>
        <pt x="470" y="669" on="1"/>
        <pt x="663" y="669" on="1"/>
        <pt x="670" y="637" on="0"/>
        <pt x="676" y="585" on="0"/>
        <pt x="676" y="551" on="1"/>
        <pt x="676" y="487" on="0"/>
        <pt x="663" y="430" on="1"/>
        <pt x="470" y="430" on="1"/>
        <pt x="470" y="222" on="1"/>
        <pt x="513" y="222" on="0"/>
        <pt x="580" y="224" on="0"/>
        <pt x="624" y="224" on="1"/>
        <pt x="717" y="224" on="0"/>
        <pt x="814" y="323" on="0"/>
        <pt x="848" y="473" on="0"/>
      </contour>
    </TTGlyph>
    <TTGlyph name="exclam" xMin="126" yMin="-23" xMax="474" yMax="1385">
      <contour>
        <pt x="181" y="418" on="1"/>
        <pt x="164" y="611" on="0"/>
        <pt x="126" y="995" on="0"/>
        <pt x="126" y="1191" on="1"/>
        <pt x="126" y="1364" on="1"/>
        <pt x="169" y="1377" on="0"/>
        <pt x="300" y="1385" on="0"/>
        <pt x="431" y="1376" on="0"/>
        <pt x="474" y="1364" on="1"/>
        <pt x="474" y="1187" on="1"/>
        <pt x="474" y="995" on="0"/>
        <pt x="431" y="611" on="0"/>
        <pt x="416" y="418" on="1"/>
        <pt x="385" y="409" on="0"/>
        <pt x="323" y="404" on="0"/>
        <pt x="300" y="404" on="1"/>
        <pt x="279" y="404" on="0"/>
        <pt x="211" y="409" on="0"/>
      </contour>
      <contour>
        <pt x="300" y="278" on="1"/>
        <pt x="340" y="278" on="0"/>
        <pt x="419" y="261" on="0"/>
        <pt x="447" y="245" on="1"/>
        <pt x="458" y="226" on="0"/>
        <pt x="470" y="154" on="0"/>
        <pt x="470" y="126" on="1"/>
        <pt x="470" y="99" on="0"/>
        <pt x="458" y="28" on="0"/>
        <pt x="447" y="10" on="1"/>
        <pt x="419" y="-6" on="0"/>
        <pt x="340" y="-23" on="0"/>
        <pt x="300" y="-23" on="1"/>
        <pt x="259" y="-23" on="0"/>
        <pt x="180" y="-6" on="0"/>
        <pt x="151" y="10" on="1"/>
        <pt x="141" y="28" on="0"/>
        <pt x="130" y="99" on="0"/>
        <pt x="130" y="126" on="1"/>
        <pt x="130" y="154" on="0"/>
        <pt x="141" y="226" on="0"/>
        <pt x="151" y="245" on="1"/>
        <pt x="180" y="261" on="0"/>
        <pt x="259" y="278" on="0"/>
      </contour>
    </TTGlyph>
    <TTGlyph name="exclamdown" xMin="142" yMin="-388" xMax="490" yMax="1020">
      <component glyphName="exclam" x="616" y="997" scale="-1.0" flags="0x4"/>
    </TTGlyph>
    <TTGlyph name="f" xMin="144" yMin="-12" xMax="944" yMax="1102">
      <contour>
        <pt x="460" y="0" on="1"/>
        <pt x="419" y="-7" on="0"/>
        <pt x="334" y="-12" on="0"/>
        <pt x="302" y="-12" on="1"/>
        <pt x="270" y="-12" on="0"/>
        <pt x="185" y="-7" on="0"/>
        <pt x="144" y="0" on="1"/>
        <pt x="144" y="1093" on="1"/>
        <pt x="155" y="1102" on="1"/>
        <pt x="930" y="1102" on="1"/>
        <pt x="937" y="1075" on="0"/>
        <pt x="944" y="1007" on="0"/>
        <pt x="944" y="986" on="1"/>
        <pt x="944" y="918" on="0"/>
        <pt x="872" y="842" on="0"/>
        <pt x="788" y="842" on="1"/>
        <pt x="575" y="842" on="1"/>
        <pt x="545" y="842" on="0"/>
        <pt x="488" y="843" on="0"/>
        <pt x="460" y="843" on="1"/>
        <pt x="460" y="822" on="0"/>
        <pt x="460" y="779" on="0"/>
        <pt x="460" y="758" on="1"/>
        <pt x="460" y="654" on="1"/>
        <pt x="472" y="654" on="0"/>
        <pt x="483" y="654" on="1"/>
        <pt x="816" y="654" on="1"/>
        <pt x="825" y="628" on="0"/>
        <pt x="832" y="559" on="0"/>
        <pt x="832" y="535" on="1"/>
        <pt x="832" y="508" on="0"/>
        <pt x="825" y="434" on="0"/>
        <pt x="816" y="407" on="1"/>
        <pt x="483" y="407" on="1"/>
        <pt x="472" y="407" on="0"/>
        <pt x="460" y="407" on="1"/>
      </contour>
    </TTGlyph>
    <TTGlyph name="five" xMin="73" yMin="-30" xMax="970" yMax="1296">
      <contour>
        <pt x="73" y="109" on="1"/>
        <pt x="82" y="152" on="0"/>
        <pt x="154" y="279" on="0"/>
        <pt x="200" y="312" on="1"/>
        <pt x="259" y="270" on="0"/>
        <pt x="378" y="223" on="0"/>
        <pt x="446" y="223" on="1"/>
        <pt x="531" y="223" on="0"/>
        <pt x="651" y="327" on="0"/>
        <pt x="651" y="429" on="1"/>
        <pt x="651" y="533" on="0"/>
        <pt x="531" y="630" on="0"/>
        <pt x="451" y="630" on="1"/>
        <pt x="361" y="630" on="0"/>
        <pt x="281" y="568" on="1"/>
        <pt x="239" y="576" on="0"/>
        <pt x="147" y="640" on="0"/>
        <pt x="125" y="676" on="1"/>
        <pt x="160" y="1280" on="1"/>
        <pt x="176" y="1296" on="1"/>
        <pt x="902" y="1296" on="1"/>
        <pt x="917" y="1258" on="0"/>
        <pt x="924" y="1191" on="0"/>
        <pt x="924" y="1168" on="1"/>
        <pt x="924" y="1038" on="0"/>
        <pt x="791" y="1038" on="1"/>
        <pt x="465" y="1038" on="1"/>
        <pt x="457" y="1038" on="0"/>
        <pt x="449" y="1038" on="1"/>
        <pt x="449" y="1005" on="0"/>
        <pt x="448" y="985" on="1"/>
        <pt x="440" y="890" on="1"/>
        <pt x="438" y="872" on="0"/>
        <pt x="436" y="855" on="1"/>
        <pt x="488" y="867" on="0"/>
        <pt x="542" y="867" on="1"/>
        <pt x="746" y="867" on="0"/>
        <pt x="970" y="632" on="0"/>
        <pt x="970" y="442" on="1"/>
        <pt x="970" y="281" on="0"/>
        <pt x="825" y="72" on="0"/>
        <pt x="598" y="-30" on="0"/>
        <pt x="474" y="-30" on="1"/>
        <pt x="358" y="-30" on="0"/>
        <pt x="147" y="42" on="0"/>
      </contour>
    </TTGlyph>
    <TTGlyph name="florin" xMin="-196" yMin="-369" xMax="898" yMax="1326">
      <contour>
        <pt x="271" y="961" on="1"/>
        <pt x="292" y="1123" on="0"/>
        <pt x="448" y="1326" on="0"/>
        <pt x="607" y="1326" on="1"/>
        <pt x="696" y="1326" on="0"/>
        <pt x="848" y="1290" on="0"/>
        <pt x="897" y="1271" on="1"/>
        <pt x="898" y="1218" on="0"/>
        <pt x="860" y="1096" on="0"/>
        <pt x="830" y="1064" on="1"/>
        <pt x="803" y="1072" on="0"/>
        <pt x="730" y="1091" on="0"/>
        <pt x="694" y="1091" on="1"/>
        <pt x="637" y="1091" on="0"/>
        <pt x="574" y="1017" on="0"/>
        <pt x="559" y="902" on="1"/>
        <pt x="545" y="796" on="1"/>
        <pt x="768" y="798" on="1"/>
        <pt x="779" y="746" on="0"/>
        <pt x="779" y="689" on="1"/>
        <pt x="779" y="663" on="0"/>
        <pt x="774" y="602" on="0"/>
        <pt x="768" y="576" on="1"/>
        <pt x="517" y="580" on="1"/>
        <pt x="454" y="93" on="1"/>
        <pt x="431" y="-82" on="0"/>
        <pt x="326" y="-284" on="0"/>
        <pt x="156" y="-369" on="0"/>
        <pt x="38" y="-369" on="1"/>
        <pt x="-24" y="-369" on="0"/>
        <pt x="-149" y="-344" on="0"/>
        <pt x="-190" y="-328" on="1"/>
        <pt x="-196" y="-275" on="0"/>
        <pt x="-158" y="-142" on="0"/>
        <pt x="-127" y="-106" on="1"/>
        <pt x="-98" y="-117" on="0"/>
        <pt x="-34" y="-132" on="0"/>
        <pt x="0" y="-132" on="1"/>
        <pt x="47" y="-132" on="0"/>
        <pt x="111" y="-89" on="0"/>
        <pt x="152" y="29" on="0"/>
        <pt x="166" y="140" on="1"/>
        <pt x="222" y="579" on="1"/>
        <pt x="73" y="576" on="1"/>
        <pt x="68" y="602" on="0"/>
        <pt x="62" y="663" on="0"/>
        <pt x="62" y="689" on="1"/>
        <pt x="62" y="746" on="0"/>
        <pt x="73" y="798" on="1"/>
        <pt x="250" y="796" on="1"/>
      </contour>
    </TTGlyph>
    <TTGlyph name="four" xMin="41" yMin="-12" xMax="1018" yMax="1320">
      <contour>
        <pt x="108" y="225" on="1"/>
        <pt x="79" y="271" on="0"/>
        <pt x="41" y="376" on="0"/>
        <pt x="41" y="418" on="1"/>
        <pt x="41" y="451" on="0"/>
        <pt x="66" y="523" on="0"/>
        <pt x="78" y="549" on="1"/>
        <pt x="400" y="1312" on="1"/>
        <pt x="445" y="1320" on="0"/>
        <pt x="559" y="1309" on="0"/>
        <pt x="660" y="1275" on="0"/>
        <pt x="685" y="1247" on="1"/>
        <pt x="551" y="925" on="1"/>
        <pt x="528" y="868" on="0"/>
        <pt x="453" y="700" on="0"/>
        <pt x="369" y="533" on="0"/>
        <pt x="332" y="480" on="1"/>
        <pt x="338" y="470" on="1"/>
        <pt x="380" y="475" on="0"/>
        <pt x="497" y="482" on="0"/>
        <pt x="543" y="483" on="1"/>
        <pt x="542" y="496" on="0"/>
        <pt x="542" y="517" on="0"/>
        <pt x="542" y="523" on="1"/>
        <pt x="542" y="588" on="1"/>
        <pt x="542" y="702" on="0"/>
        <pt x="655" y="837" on="0"/>
        <pt x="759" y="837" on="1"/>
        <pt x="830" y="837" on="1"/>
        <pt x="844" y="824" on="1"/>
        <pt x="844" y="629" on="1"/>
        <pt x="844" y="590" on="0"/>
        <pt x="842" y="523" on="0"/>
        <pt x="842" y="485" on="1"/>
        <pt x="880" y="485" on="0"/>
        <pt x="917" y="487" on="0"/>
        <pt x="956" y="487" on="1"/>
        <pt x="1010" y="487" on="1"/>
        <pt x="1014" y="459" on="0"/>
        <pt x="1018" y="403" on="0"/>
        <pt x="1018" y="376" on="1"/>
        <pt x="1018" y="344" on="0"/>
        <pt x="1009" y="265" on="0"/>
        <pt x="998" y="229" on="1"/>
        <pt x="956" y="229" on="1"/>
        <pt x="917" y="229" on="0"/>
        <pt x="880" y="229" on="0"/>
        <pt x="842" y="229" on="1"/>
        <pt x="842" y="190" on="0"/>
        <pt x="844" y="124" on="0"/>
        <pt x="844" y="84" on="1"/>
        <pt x="844" y="0" on="1"/>
        <pt x="802" y="-7" on="0"/>
        <pt x="726" y="-12" on="0"/>
        <pt x="693" y="-12" on="1"/>
        <pt x="659" y="-12" on="0"/>
        <pt x="583" y="-7" on="0"/>
        <pt x="542" y="0" on="1"/>
        <pt x="542" y="84" on="1"/>
        <pt x="542" y="124" on="0"/>
        <pt x="544" y="190" on="0"/>
        <pt x="544" y="229" on="1"/>
        <pt x="505" y="229" on="0"/>
        <pt x="436" y="225" on="0"/>
        <pt x="396" y="225" on="1"/>
      </contour>
    </TTGlyph>
    <TTGlyph name="fraction" xMin="-242" yMin="-14" xMax="814" yMax="1380">
      <contour>
        <pt x="514" y="1366" on="1"/>
        <pt x="556" y="1376" on="0"/>
        <pt x="679" y="1380" on="0"/>
        <pt x="790" y="1373" on="0"/>
        <pt x="814" y="1366" on="1"/>
        <pt x="58" y="0" on="1"/>
        <pt x="17" y="-10" on="0"/>
        <pt x="-106" y="-14" on="0"/>
        <pt x="-217" y="-7" on="0"/>
        <pt x="-242" y="0" on="1"/>
      </contour>
    </TTGlyph>
    <TTGlyph name="g" xMin="63" yMin="-30" xMax="1083" yMax="1132">
      <contour>
        <pt x="792" y="292" on="1"/>
        <pt x="792" y="342" on="0"/>
        <pt x="794" y="392" on="1"/>
        <pt x="776" y="392" on="0"/>
        <pt x="739" y="392" on="0"/>
        <pt x="722" y="392" on="1"/>
        <pt x="580" y="392" on="0"/>
        <pt x="580" y="516" on="1"/>
        <pt x="580" y="550" on="0"/>
        <pt x="588" y="619" on="0"/>
        <pt x="596" y="642" on="1"/>
        <pt x="668" y="645" on="0"/>
        <pt x="810" y="646" on="0"/>
        <pt x="883" y="646" on="1"/>
        <pt x="998" y="646" on="0"/>
        <pt x="1083" y="558" on="0"/>
        <pt x="1083" y="477" on="1"/>
        <pt x="1083" y="35" on="1"/>
        <pt x="1037" y="20" on="0"/>
        <pt x="881" y="-10" on="0"/>
        <pt x="697" y="-30" on="0"/>
        <pt x="610" y="-30" on="1"/>
        <pt x="414" y="-30" on="0"/>
        <pt x="173" y="117" on="0"/>
        <pt x="63" y="376" on="0"/>
        <pt x="63" y="545" on="1"/>
        <pt x="63" y="748" on="0"/>
        <pt x="221" y="1008" on="0"/>
        <pt x="482" y="1132" on="0"/>
        <pt x="634" y="1132" on="1"/>
        <pt x="754" y="1132" on="0"/>
        <pt x="980" y="1076" on="0"/>
        <pt x="1064" y="1034" on="1"/>
        <pt x="1059" y="972" on="0"/>
        <pt x="989" y="833" on="0"/>
        <pt x="944" y="803" on="1"/>
        <pt x="871" y="840" on="0"/>
        <pt x="727" y="879" on="0"/>
        <pt x="652" y="879" on="1"/>
        <pt x="524" y="879" on="0"/>
        <pt x="386" y="707" on="0"/>
        <pt x="386" y="543" on="1"/>
        <pt x="386" y="373" on="0"/>
        <pt x="521" y="205" on="0"/>
        <pt x="666" y="205" on="1"/>
        <pt x="698" y="205" on="0"/>
        <pt x="762" y="210" on="0"/>
        <pt x="792" y="215" on="1"/>
      </contour>
    </TTGlyph>
    <TTGlyph name="gbreve" xMin="63" yMin="-30" xMax="1083" yMax="1556">
      <component glyphName="g" x="0" y="0" flags="0x204"/>
      <component glyphName="breve" x="236" y="104" flags="0x4"/>
    </TTGlyph>
    <TTGlyph name="gcircumflex" xMin="63" yMin="-30" xMax="1083" yMax="1600">
      <component glyphName="g" x="0" y="0" flags="0x204"/>
      <component glyphName="circumflex" x="236" y="104" flags="0x4"/>
    </TTGlyph>
    <TTGlyph name="gdotaccent" xMin="63" yMin="-30" xMax="1083" yMax="1536">
      <component glyphName="g" x="0" y="0" flags="0x204"/>
      <component glyphName="dotaccent" x="236" y="104" flags="0x4"/>
    </TTGlyph>
    <TTGlyph name="germandbls" xMin="117" yMin="-19" xMax="1113" yMax="1124">
      <contour>
        <pt x="588" y="224" on="1"/>
        <pt x="621" y="210" on="0"/>
        <pt x="679" y="198" on="0"/>
        <pt x="717" y="198" on="1"/>
        <pt x="775" y="198" on="0"/>
        <pt x="837" y="248" on="0"/>
        <pt x="837" y="289" on="1"/>
        <pt x="837" y="329" on="0"/>
        <pt x="777" y="378" on="0"/>
        <pt x="710" y="378" on="1"/>
        <pt x="679" y="378" on="0"/>
        <pt x="621" y="369" on="0"/>
        <pt x="587" y="359" on="1"/>
        <pt x="549" y="460" on="0"/>
        <pt x="529" y="544" on="0"/>
        <pt x="529" y="576" on="1"/>
        <pt x="529" y="606" on="0"/>
        <pt x="555" y="666" on="0"/>
        <pt x="592" y="698" on="1"/>
        <pt x="698" y="788" on="1"/>
        <pt x="741" y="825" on="0"/>
        <pt x="798" y="848" on="1"/>
        <pt x="798" y="855" on="1"/>
        <pt x="759" y="877" on="0"/>
        <pt x="670" y="903" on="0"/>
        <pt x="607" y="903" on="1"/>
        <pt x="520" y="903" on="0"/>
        <pt x="435" y="812" on="0"/>
        <pt x="435" y="734" on="1"/>
        <pt x="435" y="0" on="1"/>
        <pt x="393" y="-7" on="0"/>
        <pt x="304" y="-11" on="0"/>
        <pt x="277" y="-11" on="1"/>
        <pt x="251" y="-11" on="0"/>
        <pt x="158" y="-7" on="0"/>
        <pt x="117" y="0" on="1"/>
        <pt x="117" y="735" on="1"/>
        <pt x="117" y="910" on="0"/>
        <pt x="367" y="1124" on="0"/>
        <pt x="604" y="1124" on="1"/>
        <pt x="738" y="1124" on="0"/>
        <pt x="950" y="1047" on="0"/>
        <pt x="1024" y="997" on="1"/>
        <pt x="1034" y="942" on="0"/>
        <pt x="1041" y="884" on="0"/>
        <pt x="1041" y="860" on="1"/>
        <pt x="1041" y="818" on="0"/>
        <pt x="1016" y="760" on="0"/>
        <pt x="981" y="735" on="1"/>
        <pt x="867" y="651" on="1"/>
        <pt x="834" y="627" on="0"/>
        <pt x="774" y="587" on="0"/>
        <pt x="738" y="567" on="1"/>
        <pt x="738" y="559" on="1"/>
        <pt x="776" y="568" on="0"/>
        <pt x="820" y="568" on="1"/>
        <pt x="956" y="568" on="0"/>
        <pt x="1113" y="413" on="0"/>
        <pt x="1113" y="288" on="1"/>
        <pt x="1113" y="160" on="0"/>
        <pt x="919" y="-19" on="0"/>
        <pt x="738" y="-19" on="1"/>
        <pt x="665" y="-19" on="0"/>
        <pt x="558" y="3" on="0"/>
        <pt x="515" y="25" on="1"/>
        <pt x="523" y="91" on="0"/>
        <pt x="556" y="181" on="0"/>
      </contour>
    </TTGlyph>
    <TTGlyph name="glyph00064" xMin="82" yMin="528" xMax="671" yMax="778">
      <component glyphName="hyphen" x="0" y="114" flags="0x204"/>
    </TTGlyph>
    <TTGlyph name="glyph00111" xMin="71" yMin="-28" xMax="1190" yMax="1132">
      <contour>
        <pt x="951" y="699" on="1"/>
        <pt x="1021" y="699" on="0"/>
        <pt x="1114" y="720" on="0"/>
        <pt x="1152" y="739" on="1"/>
        <pt x="1166" y="720" on="0"/>
        <pt x="1190" y="639" on="0"/>
        <pt x="1190" y="603" on="1"/>
        <pt x="1190" y="520" on="0"/>
        <pt x="1091" y="455" on="0"/>
        <pt x="1004" y="455" on="1"/>
        <pt x="984" y="455" on="1"/>
        <pt x="987" y="404" on="0"/>
        <pt x="987" y="340" on="1"/>
        <pt x="987" y="194" on="1"/>
        <pt x="987" y="152" on="0"/>
        <pt x="998" y="38" on="0"/>
        <pt x="1003" y="1" on="1"/>
        <pt x="975" y="-10" on="0"/>
        <pt x="888" y="-20" on="0"/>
        <pt x="846" y="-20" on="1"/>
        <pt x="816" y="-20" on="0"/>
        <pt x="744" y="-14" on="0"/>
        <pt x="718" y="-8" on="1"/>
        <pt x="700" y="69" on="1"/>
        <pt x="653" y="27" on="0"/>
        <pt x="502" y="-28" on="0"/>
        <pt x="414" y="-28" on="1"/>
        <pt x="302" y="-28" on="0"/>
        <pt x="149" y="60" on="0"/>
        <pt x="71" y="204" on="0"/>
        <pt x="71" y="288" on="1"/>
        <pt x="71" y="403" on="0"/>
        <pt x="208" y="561" on="0"/>
        <pt x="300" y="587" on="1"/>
        <pt x="222" y="612" on="0"/>
        <pt x="130" y="743" on="0"/>
        <pt x="130" y="830" on="1"/>
        <pt x="130" y="967" on="0"/>
        <pt x="352" y="1132" on="0"/>
        <pt x="546" y="1132" on="1"/>
        <pt x="639" y="1132" on="0"/>
        <pt x="845" y="1097" on="0"/>
        <pt x="921" y="1075" on="1"/>
        <pt x="925" y="1017" on="0"/>
        <pt x="883" y="892" on="0"/>
        <pt x="843" y="849" on="1"/>
        <pt x="781" y="867" on="0"/>
        <pt x="647" y="896" on="0"/>
        <pt x="588" y="896" on="1"/>
        <pt x="518" y="896" on="0"/>
        <pt x="457" y="841" on="0"/>
        <pt x="457" y="803" on="1"/>
        <pt x="457" y="699" on="0"/>
        <pt x="619" y="699" on="1"/>
      </contour>
      <contour>
        <pt x="521" y="202" on="1"/>
        <pt x="567" y="202" on="0"/>
        <pt x="657" y="235" on="0"/>
        <pt x="687" y="257" on="1"/>
        <pt x="687" y="344" on="1"/>
        <pt x="687" y="378" on="0"/>
        <pt x="688" y="431" on="0"/>
        <pt x="689" y="455" on="1"/>
        <pt x="594" y="455" on="1"/>
        <pt x="502" y="455" on="0"/>
        <pt x="392" y="395" on="0"/>
        <pt x="392" y="321" on="1"/>
        <pt x="392" y="254" on="0"/>
        <pt x="474" y="202" on="0"/>
      </contour>
    </TTGlyph>
    <TTGlyph name="glyph00114" xMin="381" yMin="1107" xMax="662" yMax="1608">
      <contour>
        <pt x="403" y="1598" on="1"/>
        <pt x="437" y="1608" on="0"/>
        <pt x="484" y="1608" on="1"/>
        <pt x="533" y="1608" on="0"/>
        <pt x="630" y="1584" on="0"/>
        <pt x="662" y="1560" on="1"/>
        <pt x="555" y="1117" on="1"/>
        <pt x="529" y="1107" on="0"/>
        <pt x="489" y="1107" on="1"/>
        <pt x="421" y="1107" on="0"/>
        <pt x="381" y="1130" on="1"/>
      </contour>
    </TTGlyph>
    <TTGlyph name="glyph00123" xMin="243" yMin="572" xMax="553" yMax="877">
      <contour>
        <pt x="243" y="726" on="1"/>
        <pt x="243" y="743" on="0"/>
        <pt x="251" y="817" on="0"/>
        <pt x="262" y="842" on="1"/>
        <pt x="288" y="859" on="0"/>
        <pt x="363" y="877" on="0"/>
        <pt x="398" y="877" on="1"/>
        <pt x="431" y="877" on="0"/>
        <pt x="506" y="859" on="0"/>
        <pt x="532" y="842" on="1"/>
        <pt x="543" y="817" on="0"/>
        <pt x="553" y="743" on="0"/>
        <pt x="553" y="726" on="1"/>
        <pt x="553" y="708" on="0"/>
        <pt x="543" y="634" on="0"/>
        <pt x="532" y="609" on="1"/>
        <pt x="506" y="590" on="0"/>
        <pt x="431" y="572" on="0"/>
        <pt x="398" y="572" on="1"/>
        <pt x="363" y="572" on="0"/>
        <pt x="288" y="590" on="0"/>
        <pt x="262" y="609" on="1"/>
        <pt x="251" y="634" on="0"/>
        <pt x="243" y="708" on="0"/>
      </contour>
    </TTGlyph>
    <TTGlyph name="glyph00127" xMin="96" yMin="1454" xMax="666" yMax="1878">
      <contour>
        <pt x="218" y="1878" on="1"/>
        <pt x="666" y="1604" on="1"/>
        <pt x="659" y="1561" on="0"/>
        <pt x="615" y="1476" on="0"/>
        <pt x="578" y="1454" on="1"/>
        <pt x="96" y="1643" on="1"/>
        <pt x="100" y="1688" on="0"/>
        <pt x="140" y="1782" on="0"/>
        <pt x="194" y="1858" on="0"/>
      </contour>
    </TTGlyph>
    <TTGlyph name="glyph00128" xMin="149" yMin="1454" xMax="718" yMax="1878">
      <contour>
        <pt x="597" y="1878" on="1"/>
        <pt x="621" y="1858" on="0"/>
        <pt x="675" y="1782" on="0"/>
        <pt x="715" y="1688" on="0"/>
        <pt x="718" y="1643" on="1"/>
        <pt x="237" y="1454" on="1"/>
        <pt x="204" y="1472" on="0"/>
        <pt x="154" y="1564" on="0"/>
        <pt x="149" y="1604" on="1"/>
      </contour>
    </TTGlyph>
    <TTGlyph name="glyph00129" xMin="36" yMin="1470" xMax="752" yMax="1832">
      <contour>
        <pt x="525" y="1820" on="1"/>
        <pt x="752" y="1599" on="1"/>
        <pt x="738" y="1551" on="0"/>
        <pt x="659" y="1482" on="0"/>
        <pt x="629" y="1470" on="1"/>
        <pt x="394" y="1619" on="1"/>
        <pt x="160" y="1470" on="1"/>
        <pt x="129" y="1482" on="0"/>
        <pt x="51" y="1551" on="0"/>
        <pt x="36" y="1599" on="1"/>
        <pt x="264" y="1820" on="1"/>
        <pt x="323" y="1832" on="0"/>
        <pt x="394" y="1832" on="1"/>
        <pt x="466" y="1832" on="0"/>
      </contour>
    </TTGlyph>
    <TTGlyph name="glyph00130" xMin="18" yMin="1470" xMax="778" yMax="1740">
      <contour>
        <pt x="634" y="1740" on="1"/>
        <pt x="671" y="1740" on="0"/>
        <pt x="731" y="1720" on="0"/>
        <pt x="753" y="1706" on="1"/>
        <pt x="768" y="1689" on="0"/>
        <pt x="778" y="1632" on="0"/>
        <pt x="778" y="1606" on="1"/>
        <pt x="778" y="1580" on="0"/>
        <pt x="768" y="1521" on="0"/>
        <pt x="753" y="1505" on="1"/>
        <pt x="731" y="1490" on="0"/>
        <pt x="671" y="1470" on="0"/>
        <pt x="634" y="1470" on="1"/>
        <pt x="587" y="1470" on="0"/>
        <pt x="532" y="1490" on="0"/>
        <pt x="507" y="1505" on="1"/>
        <pt x="491" y="1521" on="0"/>
        <pt x="478" y="1580" on="0"/>
        <pt x="478" y="1606" on="1"/>
        <pt x="478" y="1632" on="0"/>
        <pt x="491" y="1689" on="0"/>
        <pt x="507" y="1706" on="1"/>
        <pt x="532" y="1720" on="0"/>
        <pt x="587" y="1740" on="0"/>
      </contour>
      <contour>
        <pt x="162" y="1740" on="1"/>
        <pt x="206" y="1740" on="0"/>
        <pt x="264" y="1720" on="0"/>
        <pt x="289" y="1706" on="1"/>
        <pt x="305" y="1689" on="0"/>
        <pt x="314" y="1632" on="0"/>
        <pt x="314" y="1606" on="1"/>
        <pt x="314" y="1580" on="0"/>
        <pt x="305" y="1521" on="0"/>
        <pt x="289" y="1505" on="1"/>
        <pt x="264" y="1490" on="0"/>
        <pt x="206" y="1470" on="0"/>
        <pt x="162" y="1470" on="1"/>
        <pt x="122" y="1470" on="0"/>
        <pt x="63" y="1490" on="0"/>
        <pt x="43" y="1505" on="1"/>
        <pt x="28" y="1521" on="0"/>
        <pt x="18" y="1580" on="0"/>
        <pt x="18" y="1606" on="1"/>
        <pt x="18" y="1632" on="0"/>
        <pt x="28" y="1689" on="0"/>
        <pt x="43" y="1706" on="1"/>
        <pt x="63" y="1720" on="0"/>
        <pt x="122" y="1740" on="0"/>
      </contour>
    </TTGlyph>
    <TTGlyph name="glyph00131" xMin="29" yMin="1478" xMax="745" yMax="1838">
      <contour>
        <pt x="622" y="1838" on="1"/>
        <pt x="652" y="1827" on="0"/>
        <pt x="730" y="1757" on="0"/>
        <pt x="745" y="1710" on="1"/>
        <pt x="517" y="1489" on="1"/>
        <pt x="464" y="1478" on="0"/>
        <pt x="387" y="1478" on="1"/>
        <pt x="310" y="1478" on="0"/>
        <pt x="257" y="1489" on="1"/>
        <pt x="29" y="1710" on="1"/>
        <pt x="44" y="1757" on="0"/>
        <pt x="122" y="1827" on="0"/>
        <pt x="152" y="1838" on="1"/>
        <pt x="387" y="1690" on="1"/>
      </contour>
    </TTGlyph>
    <TTGlyph name="glyph00132" xMin="116" yMin="1320" xMax="680" yMax="1832">
      <contour>
        <pt x="116" y="1576" on="1"/>
        <pt x="116" y="1682" on="0"/>
        <pt x="269" y="1832" on="0"/>
        <pt x="398" y="1832" on="1"/>
        <pt x="527" y="1832" on="0"/>
        <pt x="680" y="1682" on="0"/>
        <pt x="680" y="1576" on="1"/>
        <pt x="680" y="1470" on="0"/>
        <pt x="527" y="1320" on="0"/>
        <pt x="398" y="1320" on="1"/>
        <pt x="269" y="1320" on="0"/>
        <pt x="116" y="1470" on="0"/>
      </contour>
      <contour>
        <pt x="300" y="1576" on="1"/>
        <pt x="300" y="1533" on="0"/>
        <pt x="353" y="1475" on="0"/>
        <pt x="398" y="1475" on="1"/>
        <pt x="443" y="1475" on="0"/>
        <pt x="496" y="1533" on="0"/>
        <pt x="496" y="1576" on="1"/>
        <pt x="496" y="1619" on="0"/>
        <pt x="443" y="1677" on="0"/>
        <pt x="398" y="1677" on="1"/>
        <pt x="353" y="1677" on="0"/>
        <pt x="300" y="1619" on="0"/>
      </contour>
    </TTGlyph>
    <TTGlyph name="glyph00133" xMin="-2" yMin="1482" xMax="798" yMax="1815">
      <contour>
        <pt x="306" y="1562" on="1"/>
        <pt x="293" y="1570" on="0"/>
        <pt x="260" y="1580" on="0"/>
        <pt x="244" y="1580" on="1"/>
        <pt x="227" y="1580" on="0"/>
        <pt x="189" y="1559" on="0"/>
        <pt x="171" y="1532" on="1"/>
        <pt x="154" y="1508" on="1"/>
        <pt x="110" y="1508" on="0"/>
        <pt x="15" y="1560" on="0"/>
        <pt x="-2" y="1601" on="1"/>
        <pt x="15" y="1640" on="1"/>
        <pt x="52" y="1716" on="0"/>
        <pt x="178" y="1815" on="0"/>
        <pt x="263" y="1815" on="1"/>
        <pt x="299" y="1815" on="0"/>
        <pt x="369" y="1794" on="0"/>
        <pt x="397" y="1780" on="1"/>
        <pt x="490" y="1735" on="1"/>
        <pt x="503" y="1727" on="0"/>
        <pt x="536" y="1717" on="0"/>
        <pt x="552" y="1717" on="1"/>
        <pt x="569" y="1717" on="0"/>
        <pt x="607" y="1738" on="0"/>
        <pt x="625" y="1765" on="1"/>
        <pt x="642" y="1790" on="1"/>
        <pt x="687" y="1789" on="0"/>
        <pt x="781" y="1737" on="0"/>
        <pt x="798" y="1696" on="1"/>
        <pt x="781" y="1658" on="1"/>
        <pt x="744" y="1581" on="0"/>
        <pt x="617" y="1482" on="0"/>
        <pt x="533" y="1482" on="1"/>
        <pt x="497" y="1482" on="0"/>
        <pt x="426" y="1504" on="0"/>
        <pt x="399" y="1517" on="1"/>
      </contour>
    </TTGlyph>
    <TTGlyph name="glyph00134" xMin="226" yMin="1484" xMax="570" yMax="1779">
      <contour>
        <pt x="226" y="1632" on="1"/>
        <pt x="226" y="1693" on="0"/>
        <pt x="249" y="1748" on="1"/>
        <pt x="275" y="1761" on="0"/>
        <pt x="358" y="1779" on="0"/>
        <pt x="398" y="1779" on="1"/>
        <pt x="438" y="1779" on="0"/>
        <pt x="524" y="1761" on="0"/>
        <pt x="547" y="1748" on="1"/>
        <pt x="558" y="1721" on="0"/>
        <pt x="570" y="1658" on="0"/>
        <pt x="570" y="1632" on="1"/>
        <pt x="570" y="1570" on="0"/>
        <pt x="547" y="1515" on="1"/>
        <pt x="524" y="1502" on="0"/>
        <pt x="438" y="1484" on="0"/>
        <pt x="398" y="1484" on="1"/>
        <pt x="358" y="1484" on="0"/>
        <pt x="273" y="1501" on="0"/>
        <pt x="249" y="1515" on="1"/>
        <pt x="226" y="1570" on="0"/>
      </contour>
    </TTGlyph>
</ttFont>
